G04 #@! TF.GenerationSoftware,KiCad,Pcbnew,(5.1.8)-1*
G04 #@! TF.CreationDate,2021-08-08T18:23:10-04:00*
G04 #@! TF.ProjectId,nearless_front_pcb,6e656172-6c65-4737-935f-66726f6e745f,rev?*
G04 #@! TF.SameCoordinates,Original*
G04 #@! TF.FileFunction,Copper,L1,Top*
G04 #@! TF.FilePolarity,Positive*
%FSLAX46Y46*%
G04 Gerber Fmt 4.6, Leading zero omitted, Abs format (unit mm)*
G04 Created by KiCad (PCBNEW (5.1.8)-1) date 2021-08-08 18:23:10*
%MOMM*%
%LPD*%
G01*
G04 APERTURE LIST*
G04 #@! TA.AperFunction,ComponentPad*
%ADD10C,1.727200*%
G04 #@! TD*
G04 #@! TA.AperFunction,ViaPad*
%ADD11C,0.800000*%
G04 #@! TD*
G04 #@! TA.AperFunction,Conductor*
%ADD12C,0.355600*%
G04 #@! TD*
G04 #@! TA.AperFunction,Conductor*
%ADD13C,0.254000*%
G04 #@! TD*
G04 #@! TA.AperFunction,Conductor*
%ADD14C,0.100000*%
G04 #@! TD*
G04 APERTURE END LIST*
D10*
X45500000Y-51245000D03*
X45500000Y-43625000D03*
X45500000Y-41085000D03*
X85500000Y-51245000D03*
X85500000Y-43625000D03*
X85500000Y-41085000D03*
X42500000Y-53920000D03*
X42500000Y-56460000D03*
X42500000Y-59000000D03*
X88500000Y-59000000D03*
X88500000Y-56460000D03*
X88500000Y-53920000D03*
X67555000Y-57600000D03*
X75175000Y-57600000D03*
X77715000Y-57600000D03*
X75500000Y-51245000D03*
X75500000Y-43625000D03*
X75500000Y-41085000D03*
X65500000Y-51245000D03*
X65500000Y-43625000D03*
X65500000Y-41085000D03*
X55500000Y-51245000D03*
X55500000Y-43625000D03*
X55500000Y-41085000D03*
X63445000Y-57600000D03*
X55825000Y-57600000D03*
X53285000Y-57600000D03*
D11*
X76025000Y-49750000D03*
X77600000Y-53400000D03*
X47485000Y-51475000D03*
D12*
X62045000Y-59000000D02*
X42500000Y-59000000D01*
X63445000Y-57600000D02*
X62045000Y-59000000D01*
D13*
X66995000Y-49750000D02*
X65500000Y-51245000D01*
X76025000Y-49750000D02*
X66995000Y-49750000D01*
X77600000Y-51325000D02*
X76025000Y-49750000D01*
X77600000Y-53400000D02*
X77600000Y-51325000D01*
D12*
X68955000Y-59000000D02*
X88500000Y-59000000D01*
X67555000Y-57600000D02*
X68955000Y-59000000D01*
D13*
X47485000Y-51475000D02*
X42500000Y-56460000D01*
X44084174Y-40572141D02*
X44011325Y-40858210D01*
X43995685Y-41152993D01*
X44037855Y-41445164D01*
X44136214Y-41723493D01*
X44211433Y-41864218D01*
X44461896Y-41943499D01*
X45320395Y-41085000D01*
X45306253Y-41070858D01*
X45485858Y-40891253D01*
X45500000Y-40905395D01*
X45514143Y-40891253D01*
X45693748Y-41070858D01*
X45679605Y-41085000D01*
X46538104Y-41943499D01*
X46788567Y-41864218D01*
X46915826Y-41597859D01*
X46988675Y-41311790D01*
X47004315Y-41017007D01*
X46962145Y-40724836D01*
X46863786Y-40446507D01*
X46855497Y-40431000D01*
X54151607Y-40431000D01*
X54084174Y-40572141D01*
X54011325Y-40858210D01*
X53995685Y-41152993D01*
X54037855Y-41445164D01*
X54136214Y-41723493D01*
X54211433Y-41864218D01*
X54461896Y-41943499D01*
X55320395Y-41085000D01*
X55306253Y-41070858D01*
X55485858Y-40891253D01*
X55500000Y-40905395D01*
X55514143Y-40891253D01*
X55693748Y-41070858D01*
X55679605Y-41085000D01*
X56538104Y-41943499D01*
X56788567Y-41864218D01*
X56915826Y-41597859D01*
X56988675Y-41311790D01*
X57004315Y-41017007D01*
X56962145Y-40724836D01*
X56863786Y-40446507D01*
X56855497Y-40431000D01*
X64151607Y-40431000D01*
X64084174Y-40572141D01*
X64011325Y-40858210D01*
X63995685Y-41152993D01*
X64037855Y-41445164D01*
X64136214Y-41723493D01*
X64211433Y-41864218D01*
X64461896Y-41943499D01*
X65320395Y-41085000D01*
X65306253Y-41070858D01*
X65485858Y-40891253D01*
X65500000Y-40905395D01*
X65514143Y-40891253D01*
X65693748Y-41070858D01*
X65679605Y-41085000D01*
X66538104Y-41943499D01*
X66788567Y-41864218D01*
X66915826Y-41597859D01*
X66988675Y-41311790D01*
X67004315Y-41017007D01*
X66962145Y-40724836D01*
X66863786Y-40446507D01*
X66855497Y-40431000D01*
X74151607Y-40431000D01*
X74084174Y-40572141D01*
X74011325Y-40858210D01*
X73995685Y-41152993D01*
X74037855Y-41445164D01*
X74136214Y-41723493D01*
X74211433Y-41864218D01*
X74461896Y-41943499D01*
X75320395Y-41085000D01*
X75306253Y-41070858D01*
X75485858Y-40891253D01*
X75500000Y-40905395D01*
X75514143Y-40891253D01*
X75693748Y-41070858D01*
X75679605Y-41085000D01*
X76538104Y-41943499D01*
X76788567Y-41864218D01*
X76915826Y-41597859D01*
X76988675Y-41311790D01*
X77004315Y-41017007D01*
X76962145Y-40724836D01*
X76863786Y-40446507D01*
X76855497Y-40431000D01*
X84151607Y-40431000D01*
X84084174Y-40572141D01*
X84011325Y-40858210D01*
X83995685Y-41152993D01*
X84037855Y-41445164D01*
X84136214Y-41723493D01*
X84211433Y-41864218D01*
X84461896Y-41943499D01*
X85320395Y-41085000D01*
X85306253Y-41070858D01*
X85485858Y-40891253D01*
X85500000Y-40905395D01*
X85514143Y-40891253D01*
X85693748Y-41070858D01*
X85679605Y-41085000D01*
X86538104Y-41943499D01*
X86788567Y-41864218D01*
X86915826Y-41597859D01*
X86988675Y-41311790D01*
X87004315Y-41017007D01*
X86962145Y-40724836D01*
X86863786Y-40446507D01*
X86855497Y-40431000D01*
X90069001Y-40431000D01*
X90069000Y-61769000D01*
X40931000Y-61769000D01*
X40931000Y-58877418D01*
X41255400Y-58877418D01*
X41255400Y-59122582D01*
X41303229Y-59363036D01*
X41397050Y-59589539D01*
X41533256Y-59793386D01*
X41706614Y-59966744D01*
X41910461Y-60102950D01*
X42136964Y-60196771D01*
X42377418Y-60244600D01*
X42622582Y-60244600D01*
X42863036Y-60196771D01*
X43089539Y-60102950D01*
X43293386Y-59966744D01*
X43466744Y-59793386D01*
X43602950Y-59589539D01*
X43615683Y-59558800D01*
X62017558Y-59558800D01*
X62045000Y-59561503D01*
X62072442Y-59558800D01*
X62072444Y-59558800D01*
X62154544Y-59550714D01*
X62259878Y-59518761D01*
X62356954Y-59466873D01*
X62442043Y-59397043D01*
X62459543Y-59375719D01*
X63051224Y-58784038D01*
X63081964Y-58796771D01*
X63322418Y-58844600D01*
X63567582Y-58844600D01*
X63808036Y-58796771D01*
X64034539Y-58702950D01*
X64238386Y-58566744D01*
X64411744Y-58393386D01*
X64547950Y-58189539D01*
X64641771Y-57963036D01*
X64689600Y-57722582D01*
X64689600Y-57477418D01*
X66310400Y-57477418D01*
X66310400Y-57722582D01*
X66358229Y-57963036D01*
X66452050Y-58189539D01*
X66588256Y-58393386D01*
X66761614Y-58566744D01*
X66965461Y-58702950D01*
X67191964Y-58796771D01*
X67432418Y-58844600D01*
X67677582Y-58844600D01*
X67918036Y-58796771D01*
X67948776Y-58784038D01*
X68540462Y-59375725D01*
X68557957Y-59397043D01*
X68643046Y-59466873D01*
X68740122Y-59518761D01*
X68845456Y-59550714D01*
X68927556Y-59558800D01*
X68927558Y-59558800D01*
X68955000Y-59561503D01*
X68982442Y-59558800D01*
X87384317Y-59558800D01*
X87397050Y-59589539D01*
X87533256Y-59793386D01*
X87706614Y-59966744D01*
X87910461Y-60102950D01*
X88136964Y-60196771D01*
X88377418Y-60244600D01*
X88622582Y-60244600D01*
X88863036Y-60196771D01*
X89089539Y-60102950D01*
X89293386Y-59966744D01*
X89466744Y-59793386D01*
X89602950Y-59589539D01*
X89696771Y-59363036D01*
X89744600Y-59122582D01*
X89744600Y-58877418D01*
X89696771Y-58636964D01*
X89602950Y-58410461D01*
X89466744Y-58206614D01*
X89293386Y-58033256D01*
X89089539Y-57897050D01*
X88863036Y-57803229D01*
X88622582Y-57755400D01*
X88377418Y-57755400D01*
X88136964Y-57803229D01*
X87910461Y-57897050D01*
X87706614Y-58033256D01*
X87533256Y-58206614D01*
X87397050Y-58410461D01*
X87384317Y-58441200D01*
X78807755Y-58441200D01*
X79003567Y-58379218D01*
X79130826Y-58112859D01*
X79203675Y-57826790D01*
X79219315Y-57532007D01*
X79177145Y-57239836D01*
X79078786Y-56961507D01*
X79003567Y-56820782D01*
X78753104Y-56741501D01*
X77894605Y-57600000D01*
X77908748Y-57614143D01*
X77729143Y-57793748D01*
X77715000Y-57779605D01*
X77700858Y-57793748D01*
X77521253Y-57614143D01*
X77535395Y-57600000D01*
X76676896Y-56741501D01*
X76426433Y-56820782D01*
X76304818Y-57075327D01*
X76277950Y-57010461D01*
X76141744Y-56806614D01*
X75968386Y-56633256D01*
X75861589Y-56561896D01*
X76856501Y-56561896D01*
X77715000Y-57420395D01*
X78573499Y-56561896D01*
X78502444Y-56337418D01*
X87255400Y-56337418D01*
X87255400Y-56582582D01*
X87303229Y-56823036D01*
X87397050Y-57049539D01*
X87533256Y-57253386D01*
X87706614Y-57426744D01*
X87910461Y-57562950D01*
X88136964Y-57656771D01*
X88377418Y-57704600D01*
X88622582Y-57704600D01*
X88863036Y-57656771D01*
X89089539Y-57562950D01*
X89293386Y-57426744D01*
X89466744Y-57253386D01*
X89602950Y-57049539D01*
X89696771Y-56823036D01*
X89744600Y-56582582D01*
X89744600Y-56337418D01*
X89696771Y-56096964D01*
X89602950Y-55870461D01*
X89466744Y-55666614D01*
X89293386Y-55493256D01*
X89089539Y-55357050D01*
X89016632Y-55326851D01*
X89138493Y-55283786D01*
X89279218Y-55208567D01*
X89358499Y-54958104D01*
X88500000Y-54099605D01*
X87641501Y-54958104D01*
X87720782Y-55208567D01*
X87975327Y-55330182D01*
X87910461Y-55357050D01*
X87706614Y-55493256D01*
X87533256Y-55666614D01*
X87397050Y-55870461D01*
X87303229Y-56096964D01*
X87255400Y-56337418D01*
X78502444Y-56337418D01*
X78494218Y-56311433D01*
X78227859Y-56184174D01*
X77941790Y-56111325D01*
X77647007Y-56095685D01*
X77354836Y-56137855D01*
X77076507Y-56236214D01*
X76935782Y-56311433D01*
X76856501Y-56561896D01*
X75861589Y-56561896D01*
X75764539Y-56497050D01*
X75538036Y-56403229D01*
X75297582Y-56355400D01*
X75052418Y-56355400D01*
X74811964Y-56403229D01*
X74585461Y-56497050D01*
X74381614Y-56633256D01*
X74208256Y-56806614D01*
X74072050Y-57010461D01*
X73978229Y-57236964D01*
X73930400Y-57477418D01*
X73930400Y-57722582D01*
X73978229Y-57963036D01*
X74072050Y-58189539D01*
X74208256Y-58393386D01*
X74256070Y-58441200D01*
X69186463Y-58441200D01*
X68739038Y-57993776D01*
X68751771Y-57963036D01*
X68799600Y-57722582D01*
X68799600Y-57477418D01*
X68751771Y-57236964D01*
X68657950Y-57010461D01*
X68521744Y-56806614D01*
X68348386Y-56633256D01*
X68144539Y-56497050D01*
X67918036Y-56403229D01*
X67677582Y-56355400D01*
X67432418Y-56355400D01*
X67191964Y-56403229D01*
X66965461Y-56497050D01*
X66761614Y-56633256D01*
X66588256Y-56806614D01*
X66452050Y-57010461D01*
X66358229Y-57236964D01*
X66310400Y-57477418D01*
X64689600Y-57477418D01*
X64641771Y-57236964D01*
X64547950Y-57010461D01*
X64411744Y-56806614D01*
X64238386Y-56633256D01*
X64034539Y-56497050D01*
X63808036Y-56403229D01*
X63567582Y-56355400D01*
X63322418Y-56355400D01*
X63081964Y-56403229D01*
X62855461Y-56497050D01*
X62651614Y-56633256D01*
X62478256Y-56806614D01*
X62342050Y-57010461D01*
X62248229Y-57236964D01*
X62200400Y-57477418D01*
X62200400Y-57722582D01*
X62248229Y-57963036D01*
X62260962Y-57993776D01*
X61813538Y-58441200D01*
X56743930Y-58441200D01*
X56791744Y-58393386D01*
X56927950Y-58189539D01*
X57021771Y-57963036D01*
X57069600Y-57722582D01*
X57069600Y-57477418D01*
X57021771Y-57236964D01*
X56927950Y-57010461D01*
X56791744Y-56806614D01*
X56618386Y-56633256D01*
X56414539Y-56497050D01*
X56188036Y-56403229D01*
X55947582Y-56355400D01*
X55702418Y-56355400D01*
X55461964Y-56403229D01*
X55235461Y-56497050D01*
X55031614Y-56633256D01*
X54858256Y-56806614D01*
X54722050Y-57010461D01*
X54691851Y-57083368D01*
X54648786Y-56961507D01*
X54573567Y-56820782D01*
X54323104Y-56741501D01*
X53464605Y-57600000D01*
X53478748Y-57614143D01*
X53299143Y-57793748D01*
X53285000Y-57779605D01*
X53270858Y-57793748D01*
X53091253Y-57614143D01*
X53105395Y-57600000D01*
X52246896Y-56741501D01*
X51996433Y-56820782D01*
X51869174Y-57087141D01*
X51796325Y-57373210D01*
X51780685Y-57667993D01*
X51822855Y-57960164D01*
X51921214Y-58238493D01*
X51996433Y-58379218D01*
X52192245Y-58441200D01*
X43615683Y-58441200D01*
X43602950Y-58410461D01*
X43466744Y-58206614D01*
X43293386Y-58033256D01*
X43089539Y-57897050D01*
X42863036Y-57803229D01*
X42622582Y-57755400D01*
X42377418Y-57755400D01*
X42136964Y-57803229D01*
X41910461Y-57897050D01*
X41706614Y-58033256D01*
X41533256Y-58206614D01*
X41397050Y-58410461D01*
X41303229Y-58636964D01*
X41255400Y-58877418D01*
X40931000Y-58877418D01*
X40931000Y-56337418D01*
X41255400Y-56337418D01*
X41255400Y-56582582D01*
X41303229Y-56823036D01*
X41397050Y-57049539D01*
X41533256Y-57253386D01*
X41706614Y-57426744D01*
X41910461Y-57562950D01*
X42136964Y-57656771D01*
X42377418Y-57704600D01*
X42622582Y-57704600D01*
X42863036Y-57656771D01*
X43089539Y-57562950D01*
X43293386Y-57426744D01*
X43466744Y-57253386D01*
X43602950Y-57049539D01*
X43696771Y-56823036D01*
X43744600Y-56582582D01*
X43744600Y-56561896D01*
X52426501Y-56561896D01*
X53285000Y-57420395D01*
X54143499Y-56561896D01*
X54064218Y-56311433D01*
X53797859Y-56184174D01*
X53511790Y-56111325D01*
X53217007Y-56095685D01*
X52924836Y-56137855D01*
X52646507Y-56236214D01*
X52505782Y-56311433D01*
X52426501Y-56561896D01*
X43744600Y-56561896D01*
X43744600Y-56337418D01*
X43696771Y-56096964D01*
X43662996Y-56015424D01*
X47422420Y-52256000D01*
X47561922Y-52256000D01*
X47712809Y-52225987D01*
X47854942Y-52167113D01*
X47982859Y-52081642D01*
X48091642Y-51972859D01*
X48177113Y-51844942D01*
X48235987Y-51702809D01*
X48266000Y-51551922D01*
X48266000Y-51398078D01*
X48235987Y-51247191D01*
X48184304Y-51122418D01*
X54255400Y-51122418D01*
X54255400Y-51367582D01*
X54303229Y-51608036D01*
X54397050Y-51834539D01*
X54533256Y-52038386D01*
X54706614Y-52211744D01*
X54910461Y-52347950D01*
X55136964Y-52441771D01*
X55377418Y-52489600D01*
X55622582Y-52489600D01*
X55863036Y-52441771D01*
X56089539Y-52347950D01*
X56293386Y-52211744D01*
X56466744Y-52038386D01*
X56602950Y-51834539D01*
X56696771Y-51608036D01*
X56744600Y-51367582D01*
X56744600Y-51122418D01*
X64255400Y-51122418D01*
X64255400Y-51367582D01*
X64303229Y-51608036D01*
X64397050Y-51834539D01*
X64533256Y-52038386D01*
X64706614Y-52211744D01*
X64910461Y-52347950D01*
X65136964Y-52441771D01*
X65377418Y-52489600D01*
X65622582Y-52489600D01*
X65863036Y-52441771D01*
X66089539Y-52347950D01*
X66293386Y-52211744D01*
X66466744Y-52038386D01*
X66602950Y-51834539D01*
X66696771Y-51608036D01*
X66744600Y-51367582D01*
X66744600Y-51122418D01*
X66696771Y-50881964D01*
X66662996Y-50800424D01*
X67205421Y-50258000D01*
X74736929Y-50258000D01*
X74706614Y-50278256D01*
X74533256Y-50451614D01*
X74397050Y-50655461D01*
X74303229Y-50881964D01*
X74255400Y-51122418D01*
X74255400Y-51367582D01*
X74303229Y-51608036D01*
X74397050Y-51834539D01*
X74533256Y-52038386D01*
X74706614Y-52211744D01*
X74910461Y-52347950D01*
X75136964Y-52441771D01*
X75377418Y-52489600D01*
X75622582Y-52489600D01*
X75863036Y-52441771D01*
X76089539Y-52347950D01*
X76293386Y-52211744D01*
X76466744Y-52038386D01*
X76602950Y-51834539D01*
X76696771Y-51608036D01*
X76744600Y-51367582D01*
X76744600Y-51188021D01*
X77092001Y-51535422D01*
X77092000Y-52803499D01*
X76993358Y-52902141D01*
X76907887Y-53030058D01*
X76849013Y-53172191D01*
X76819000Y-53323078D01*
X76819000Y-53476922D01*
X76849013Y-53627809D01*
X76907887Y-53769942D01*
X76993358Y-53897859D01*
X77102141Y-54006642D01*
X77230058Y-54092113D01*
X77372191Y-54150987D01*
X77523078Y-54181000D01*
X77676922Y-54181000D01*
X77827809Y-54150987D01*
X77969942Y-54092113D01*
X78097859Y-54006642D01*
X78116508Y-53987993D01*
X86995685Y-53987993D01*
X87037855Y-54280164D01*
X87136214Y-54558493D01*
X87211433Y-54699218D01*
X87461896Y-54778499D01*
X88320395Y-53920000D01*
X88679605Y-53920000D01*
X89538104Y-54778499D01*
X89788567Y-54699218D01*
X89915826Y-54432859D01*
X89988675Y-54146790D01*
X90004315Y-53852007D01*
X89962145Y-53559836D01*
X89863786Y-53281507D01*
X89788567Y-53140782D01*
X89538104Y-53061501D01*
X88679605Y-53920000D01*
X88320395Y-53920000D01*
X87461896Y-53061501D01*
X87211433Y-53140782D01*
X87084174Y-53407141D01*
X87011325Y-53693210D01*
X86995685Y-53987993D01*
X78116508Y-53987993D01*
X78206642Y-53897859D01*
X78292113Y-53769942D01*
X78350987Y-53627809D01*
X78381000Y-53476922D01*
X78381000Y-53323078D01*
X78350987Y-53172191D01*
X78292113Y-53030058D01*
X78206642Y-52902141D01*
X78186397Y-52881896D01*
X87641501Y-52881896D01*
X88500000Y-53740395D01*
X89358499Y-52881896D01*
X89279218Y-52631433D01*
X89012859Y-52504174D01*
X88726790Y-52431325D01*
X88432007Y-52415685D01*
X88139836Y-52457855D01*
X87861507Y-52556214D01*
X87720782Y-52631433D01*
X87641501Y-52881896D01*
X78186397Y-52881896D01*
X78108000Y-52803499D01*
X78108000Y-51349943D01*
X78110457Y-51324999D01*
X78105991Y-51279656D01*
X78100649Y-51225415D01*
X78071601Y-51129657D01*
X78067732Y-51122418D01*
X84255400Y-51122418D01*
X84255400Y-51367582D01*
X84303229Y-51608036D01*
X84397050Y-51834539D01*
X84533256Y-52038386D01*
X84706614Y-52211744D01*
X84910461Y-52347950D01*
X85136964Y-52441771D01*
X85377418Y-52489600D01*
X85622582Y-52489600D01*
X85863036Y-52441771D01*
X86089539Y-52347950D01*
X86293386Y-52211744D01*
X86466744Y-52038386D01*
X86602950Y-51834539D01*
X86696771Y-51608036D01*
X86744600Y-51367582D01*
X86744600Y-51122418D01*
X86696771Y-50881964D01*
X86602950Y-50655461D01*
X86466744Y-50451614D01*
X86293386Y-50278256D01*
X86089539Y-50142050D01*
X85863036Y-50048229D01*
X85622582Y-50000400D01*
X85377418Y-50000400D01*
X85136964Y-50048229D01*
X84910461Y-50142050D01*
X84706614Y-50278256D01*
X84533256Y-50451614D01*
X84397050Y-50655461D01*
X84303229Y-50881964D01*
X84255400Y-51122418D01*
X78067732Y-51122418D01*
X78024429Y-51041404D01*
X77976850Y-50983429D01*
X77960948Y-50964052D01*
X77941571Y-50948150D01*
X76806000Y-49812580D01*
X76806000Y-49673078D01*
X76775987Y-49522191D01*
X76717113Y-49380058D01*
X76631642Y-49252141D01*
X76522859Y-49143358D01*
X76394942Y-49057887D01*
X76252809Y-48999013D01*
X76101922Y-48969000D01*
X75948078Y-48969000D01*
X75797191Y-48999013D01*
X75655058Y-49057887D01*
X75527141Y-49143358D01*
X75428499Y-49242000D01*
X67019943Y-49242000D01*
X66994999Y-49239543D01*
X66970055Y-49242000D01*
X66970053Y-49242000D01*
X66895415Y-49249351D01*
X66799657Y-49278399D01*
X66799655Y-49278400D01*
X66711404Y-49325571D01*
X66656810Y-49370376D01*
X66634052Y-49389052D01*
X66618150Y-49408429D01*
X65944576Y-50082004D01*
X65863036Y-50048229D01*
X65622582Y-50000400D01*
X65377418Y-50000400D01*
X65136964Y-50048229D01*
X64910461Y-50142050D01*
X64706614Y-50278256D01*
X64533256Y-50451614D01*
X64397050Y-50655461D01*
X64303229Y-50881964D01*
X64255400Y-51122418D01*
X56744600Y-51122418D01*
X56696771Y-50881964D01*
X56602950Y-50655461D01*
X56466744Y-50451614D01*
X56293386Y-50278256D01*
X56089539Y-50142050D01*
X55863036Y-50048229D01*
X55622582Y-50000400D01*
X55377418Y-50000400D01*
X55136964Y-50048229D01*
X54910461Y-50142050D01*
X54706614Y-50278256D01*
X54533256Y-50451614D01*
X54397050Y-50655461D01*
X54303229Y-50881964D01*
X54255400Y-51122418D01*
X48184304Y-51122418D01*
X48177113Y-51105058D01*
X48091642Y-50977141D01*
X47982859Y-50868358D01*
X47854942Y-50782887D01*
X47712809Y-50724013D01*
X47561922Y-50694000D01*
X47408078Y-50694000D01*
X47257191Y-50724013D01*
X47115058Y-50782887D01*
X46987141Y-50868358D01*
X46878358Y-50977141D01*
X46792887Y-51105058D01*
X46744600Y-51221632D01*
X46744600Y-51122418D01*
X46696771Y-50881964D01*
X46602950Y-50655461D01*
X46466744Y-50451614D01*
X46293386Y-50278256D01*
X46089539Y-50142050D01*
X45863036Y-50048229D01*
X45622582Y-50000400D01*
X45377418Y-50000400D01*
X45136964Y-50048229D01*
X44910461Y-50142050D01*
X44706614Y-50278256D01*
X44533256Y-50451614D01*
X44397050Y-50655461D01*
X44303229Y-50881964D01*
X44255400Y-51122418D01*
X44255400Y-51367582D01*
X44303229Y-51608036D01*
X44397050Y-51834539D01*
X44533256Y-52038386D01*
X44706614Y-52211744D01*
X44910461Y-52347950D01*
X45136964Y-52441771D01*
X45377418Y-52489600D01*
X45622582Y-52489600D01*
X45784110Y-52457470D01*
X43952420Y-54289160D01*
X43988675Y-54146790D01*
X44004315Y-53852007D01*
X43962145Y-53559836D01*
X43863786Y-53281507D01*
X43788567Y-53140782D01*
X43538104Y-53061501D01*
X42679605Y-53920000D01*
X42693748Y-53934143D01*
X42514143Y-54113748D01*
X42500000Y-54099605D01*
X41641501Y-54958104D01*
X41720782Y-55208567D01*
X41975327Y-55330182D01*
X41910461Y-55357050D01*
X41706614Y-55493256D01*
X41533256Y-55666614D01*
X41397050Y-55870461D01*
X41303229Y-56096964D01*
X41255400Y-56337418D01*
X40931000Y-56337418D01*
X40931000Y-53987993D01*
X40995685Y-53987993D01*
X41037855Y-54280164D01*
X41136214Y-54558493D01*
X41211433Y-54699218D01*
X41461896Y-54778499D01*
X42320395Y-53920000D01*
X41461896Y-53061501D01*
X41211433Y-53140782D01*
X41084174Y-53407141D01*
X41011325Y-53693210D01*
X40995685Y-53987993D01*
X40931000Y-53987993D01*
X40931000Y-52881896D01*
X41641501Y-52881896D01*
X42500000Y-53740395D01*
X43358499Y-52881896D01*
X43279218Y-52631433D01*
X43012859Y-52504174D01*
X42726790Y-52431325D01*
X42432007Y-52415685D01*
X42139836Y-52457855D01*
X41861507Y-52556214D01*
X41720782Y-52631433D01*
X41641501Y-52881896D01*
X40931000Y-52881896D01*
X40931000Y-44663104D01*
X44641501Y-44663104D01*
X44720782Y-44913567D01*
X44987141Y-45040826D01*
X45273210Y-45113675D01*
X45567993Y-45129315D01*
X45860164Y-45087145D01*
X46138493Y-44988786D01*
X46279218Y-44913567D01*
X46358499Y-44663104D01*
X54641501Y-44663104D01*
X54720782Y-44913567D01*
X54987141Y-45040826D01*
X55273210Y-45113675D01*
X55567993Y-45129315D01*
X55860164Y-45087145D01*
X56138493Y-44988786D01*
X56279218Y-44913567D01*
X56358499Y-44663104D01*
X64641501Y-44663104D01*
X64720782Y-44913567D01*
X64987141Y-45040826D01*
X65273210Y-45113675D01*
X65567993Y-45129315D01*
X65860164Y-45087145D01*
X66138493Y-44988786D01*
X66279218Y-44913567D01*
X66358499Y-44663104D01*
X74641501Y-44663104D01*
X74720782Y-44913567D01*
X74987141Y-45040826D01*
X75273210Y-45113675D01*
X75567993Y-45129315D01*
X75860164Y-45087145D01*
X76138493Y-44988786D01*
X76279218Y-44913567D01*
X76358499Y-44663104D01*
X84641501Y-44663104D01*
X84720782Y-44913567D01*
X84987141Y-45040826D01*
X85273210Y-45113675D01*
X85567993Y-45129315D01*
X85860164Y-45087145D01*
X86138493Y-44988786D01*
X86279218Y-44913567D01*
X86358499Y-44663104D01*
X85500000Y-43804605D01*
X84641501Y-44663104D01*
X76358499Y-44663104D01*
X75500000Y-43804605D01*
X74641501Y-44663104D01*
X66358499Y-44663104D01*
X65500000Y-43804605D01*
X64641501Y-44663104D01*
X56358499Y-44663104D01*
X55500000Y-43804605D01*
X54641501Y-44663104D01*
X46358499Y-44663104D01*
X45500000Y-43804605D01*
X44641501Y-44663104D01*
X40931000Y-44663104D01*
X40931000Y-43692993D01*
X43995685Y-43692993D01*
X44037855Y-43985164D01*
X44136214Y-44263493D01*
X44211433Y-44404218D01*
X44461896Y-44483499D01*
X45320395Y-43625000D01*
X45679605Y-43625000D01*
X46538104Y-44483499D01*
X46788567Y-44404218D01*
X46915826Y-44137859D01*
X46988675Y-43851790D01*
X46997100Y-43692993D01*
X53995685Y-43692993D01*
X54037855Y-43985164D01*
X54136214Y-44263493D01*
X54211433Y-44404218D01*
X54461896Y-44483499D01*
X55320395Y-43625000D01*
X55679605Y-43625000D01*
X56538104Y-44483499D01*
X56788567Y-44404218D01*
X56915826Y-44137859D01*
X56988675Y-43851790D01*
X56997100Y-43692993D01*
X63995685Y-43692993D01*
X64037855Y-43985164D01*
X64136214Y-44263493D01*
X64211433Y-44404218D01*
X64461896Y-44483499D01*
X65320395Y-43625000D01*
X65679605Y-43625000D01*
X66538104Y-44483499D01*
X66788567Y-44404218D01*
X66915826Y-44137859D01*
X66988675Y-43851790D01*
X66997100Y-43692993D01*
X73995685Y-43692993D01*
X74037855Y-43985164D01*
X74136214Y-44263493D01*
X74211433Y-44404218D01*
X74461896Y-44483499D01*
X75320395Y-43625000D01*
X75679605Y-43625000D01*
X76538104Y-44483499D01*
X76788567Y-44404218D01*
X76915826Y-44137859D01*
X76988675Y-43851790D01*
X76997100Y-43692993D01*
X83995685Y-43692993D01*
X84037855Y-43985164D01*
X84136214Y-44263493D01*
X84211433Y-44404218D01*
X84461896Y-44483499D01*
X85320395Y-43625000D01*
X85679605Y-43625000D01*
X86538104Y-44483499D01*
X86788567Y-44404218D01*
X86915826Y-44137859D01*
X86988675Y-43851790D01*
X87004315Y-43557007D01*
X86962145Y-43264836D01*
X86863786Y-42986507D01*
X86788567Y-42845782D01*
X86538104Y-42766501D01*
X85679605Y-43625000D01*
X85320395Y-43625000D01*
X84461896Y-42766501D01*
X84211433Y-42845782D01*
X84084174Y-43112141D01*
X84011325Y-43398210D01*
X83995685Y-43692993D01*
X76997100Y-43692993D01*
X77004315Y-43557007D01*
X76962145Y-43264836D01*
X76863786Y-42986507D01*
X76788567Y-42845782D01*
X76538104Y-42766501D01*
X75679605Y-43625000D01*
X75320395Y-43625000D01*
X74461896Y-42766501D01*
X74211433Y-42845782D01*
X74084174Y-43112141D01*
X74011325Y-43398210D01*
X73995685Y-43692993D01*
X66997100Y-43692993D01*
X67004315Y-43557007D01*
X66962145Y-43264836D01*
X66863786Y-42986507D01*
X66788567Y-42845782D01*
X66538104Y-42766501D01*
X65679605Y-43625000D01*
X65320395Y-43625000D01*
X64461896Y-42766501D01*
X64211433Y-42845782D01*
X64084174Y-43112141D01*
X64011325Y-43398210D01*
X63995685Y-43692993D01*
X56997100Y-43692993D01*
X57004315Y-43557007D01*
X56962145Y-43264836D01*
X56863786Y-42986507D01*
X56788567Y-42845782D01*
X56538104Y-42766501D01*
X55679605Y-43625000D01*
X55320395Y-43625000D01*
X54461896Y-42766501D01*
X54211433Y-42845782D01*
X54084174Y-43112141D01*
X54011325Y-43398210D01*
X53995685Y-43692993D01*
X46997100Y-43692993D01*
X47004315Y-43557007D01*
X46962145Y-43264836D01*
X46863786Y-42986507D01*
X46788567Y-42845782D01*
X46538104Y-42766501D01*
X45679605Y-43625000D01*
X45320395Y-43625000D01*
X44461896Y-42766501D01*
X44211433Y-42845782D01*
X44084174Y-43112141D01*
X44011325Y-43398210D01*
X43995685Y-43692993D01*
X40931000Y-43692993D01*
X40931000Y-42123104D01*
X44641501Y-42123104D01*
X44714905Y-42355000D01*
X44641501Y-42586896D01*
X45500000Y-43445395D01*
X46358499Y-42586896D01*
X46285095Y-42355000D01*
X46358499Y-42123104D01*
X54641501Y-42123104D01*
X54714905Y-42355000D01*
X54641501Y-42586896D01*
X55500000Y-43445395D01*
X56358499Y-42586896D01*
X56285095Y-42355000D01*
X56358499Y-42123104D01*
X64641501Y-42123104D01*
X64714905Y-42355000D01*
X64641501Y-42586896D01*
X65500000Y-43445395D01*
X66358499Y-42586896D01*
X66285095Y-42355000D01*
X66358499Y-42123104D01*
X74641501Y-42123104D01*
X74714905Y-42355000D01*
X74641501Y-42586896D01*
X75500000Y-43445395D01*
X76358499Y-42586896D01*
X76285095Y-42355000D01*
X76358499Y-42123104D01*
X84641501Y-42123104D01*
X84714905Y-42355000D01*
X84641501Y-42586896D01*
X85500000Y-43445395D01*
X86358499Y-42586896D01*
X86285095Y-42355000D01*
X86358499Y-42123104D01*
X85500000Y-41264605D01*
X84641501Y-42123104D01*
X76358499Y-42123104D01*
X75500000Y-41264605D01*
X74641501Y-42123104D01*
X66358499Y-42123104D01*
X65500000Y-41264605D01*
X64641501Y-42123104D01*
X56358499Y-42123104D01*
X55500000Y-41264605D01*
X54641501Y-42123104D01*
X46358499Y-42123104D01*
X45500000Y-41264605D01*
X44641501Y-42123104D01*
X40931000Y-42123104D01*
X40931000Y-40431000D01*
X44151607Y-40431000D01*
X44084174Y-40572141D01*
G04 #@! TA.AperFunction,Conductor*
D14*
G36*
X44084174Y-40572141D02*
G01*
X44011325Y-40858210D01*
X43995685Y-41152993D01*
X44037855Y-41445164D01*
X44136214Y-41723493D01*
X44211433Y-41864218D01*
X44461896Y-41943499D01*
X45320395Y-41085000D01*
X45306253Y-41070858D01*
X45485858Y-40891253D01*
X45500000Y-40905395D01*
X45514143Y-40891253D01*
X45693748Y-41070858D01*
X45679605Y-41085000D01*
X46538104Y-41943499D01*
X46788567Y-41864218D01*
X46915826Y-41597859D01*
X46988675Y-41311790D01*
X47004315Y-41017007D01*
X46962145Y-40724836D01*
X46863786Y-40446507D01*
X46855497Y-40431000D01*
X54151607Y-40431000D01*
X54084174Y-40572141D01*
X54011325Y-40858210D01*
X53995685Y-41152993D01*
X54037855Y-41445164D01*
X54136214Y-41723493D01*
X54211433Y-41864218D01*
X54461896Y-41943499D01*
X55320395Y-41085000D01*
X55306253Y-41070858D01*
X55485858Y-40891253D01*
X55500000Y-40905395D01*
X55514143Y-40891253D01*
X55693748Y-41070858D01*
X55679605Y-41085000D01*
X56538104Y-41943499D01*
X56788567Y-41864218D01*
X56915826Y-41597859D01*
X56988675Y-41311790D01*
X57004315Y-41017007D01*
X56962145Y-40724836D01*
X56863786Y-40446507D01*
X56855497Y-40431000D01*
X64151607Y-40431000D01*
X64084174Y-40572141D01*
X64011325Y-40858210D01*
X63995685Y-41152993D01*
X64037855Y-41445164D01*
X64136214Y-41723493D01*
X64211433Y-41864218D01*
X64461896Y-41943499D01*
X65320395Y-41085000D01*
X65306253Y-41070858D01*
X65485858Y-40891253D01*
X65500000Y-40905395D01*
X65514143Y-40891253D01*
X65693748Y-41070858D01*
X65679605Y-41085000D01*
X66538104Y-41943499D01*
X66788567Y-41864218D01*
X66915826Y-41597859D01*
X66988675Y-41311790D01*
X67004315Y-41017007D01*
X66962145Y-40724836D01*
X66863786Y-40446507D01*
X66855497Y-40431000D01*
X74151607Y-40431000D01*
X74084174Y-40572141D01*
X74011325Y-40858210D01*
X73995685Y-41152993D01*
X74037855Y-41445164D01*
X74136214Y-41723493D01*
X74211433Y-41864218D01*
X74461896Y-41943499D01*
X75320395Y-41085000D01*
X75306253Y-41070858D01*
X75485858Y-40891253D01*
X75500000Y-40905395D01*
X75514143Y-40891253D01*
X75693748Y-41070858D01*
X75679605Y-41085000D01*
X76538104Y-41943499D01*
X76788567Y-41864218D01*
X76915826Y-41597859D01*
X76988675Y-41311790D01*
X77004315Y-41017007D01*
X76962145Y-40724836D01*
X76863786Y-40446507D01*
X76855497Y-40431000D01*
X84151607Y-40431000D01*
X84084174Y-40572141D01*
X84011325Y-40858210D01*
X83995685Y-41152993D01*
X84037855Y-41445164D01*
X84136214Y-41723493D01*
X84211433Y-41864218D01*
X84461896Y-41943499D01*
X85320395Y-41085000D01*
X85306253Y-41070858D01*
X85485858Y-40891253D01*
X85500000Y-40905395D01*
X85514143Y-40891253D01*
X85693748Y-41070858D01*
X85679605Y-41085000D01*
X86538104Y-41943499D01*
X86788567Y-41864218D01*
X86915826Y-41597859D01*
X86988675Y-41311790D01*
X87004315Y-41017007D01*
X86962145Y-40724836D01*
X86863786Y-40446507D01*
X86855497Y-40431000D01*
X90069001Y-40431000D01*
X90069000Y-61769000D01*
X40931000Y-61769000D01*
X40931000Y-58877418D01*
X41255400Y-58877418D01*
X41255400Y-59122582D01*
X41303229Y-59363036D01*
X41397050Y-59589539D01*
X41533256Y-59793386D01*
X41706614Y-59966744D01*
X41910461Y-60102950D01*
X42136964Y-60196771D01*
X42377418Y-60244600D01*
X42622582Y-60244600D01*
X42863036Y-60196771D01*
X43089539Y-60102950D01*
X43293386Y-59966744D01*
X43466744Y-59793386D01*
X43602950Y-59589539D01*
X43615683Y-59558800D01*
X62017558Y-59558800D01*
X62045000Y-59561503D01*
X62072442Y-59558800D01*
X62072444Y-59558800D01*
X62154544Y-59550714D01*
X62259878Y-59518761D01*
X62356954Y-59466873D01*
X62442043Y-59397043D01*
X62459543Y-59375719D01*
X63051224Y-58784038D01*
X63081964Y-58796771D01*
X63322418Y-58844600D01*
X63567582Y-58844600D01*
X63808036Y-58796771D01*
X64034539Y-58702950D01*
X64238386Y-58566744D01*
X64411744Y-58393386D01*
X64547950Y-58189539D01*
X64641771Y-57963036D01*
X64689600Y-57722582D01*
X64689600Y-57477418D01*
X66310400Y-57477418D01*
X66310400Y-57722582D01*
X66358229Y-57963036D01*
X66452050Y-58189539D01*
X66588256Y-58393386D01*
X66761614Y-58566744D01*
X66965461Y-58702950D01*
X67191964Y-58796771D01*
X67432418Y-58844600D01*
X67677582Y-58844600D01*
X67918036Y-58796771D01*
X67948776Y-58784038D01*
X68540462Y-59375725D01*
X68557957Y-59397043D01*
X68643046Y-59466873D01*
X68740122Y-59518761D01*
X68845456Y-59550714D01*
X68927556Y-59558800D01*
X68927558Y-59558800D01*
X68955000Y-59561503D01*
X68982442Y-59558800D01*
X87384317Y-59558800D01*
X87397050Y-59589539D01*
X87533256Y-59793386D01*
X87706614Y-59966744D01*
X87910461Y-60102950D01*
X88136964Y-60196771D01*
X88377418Y-60244600D01*
X88622582Y-60244600D01*
X88863036Y-60196771D01*
X89089539Y-60102950D01*
X89293386Y-59966744D01*
X89466744Y-59793386D01*
X89602950Y-59589539D01*
X89696771Y-59363036D01*
X89744600Y-59122582D01*
X89744600Y-58877418D01*
X89696771Y-58636964D01*
X89602950Y-58410461D01*
X89466744Y-58206614D01*
X89293386Y-58033256D01*
X89089539Y-57897050D01*
X88863036Y-57803229D01*
X88622582Y-57755400D01*
X88377418Y-57755400D01*
X88136964Y-57803229D01*
X87910461Y-57897050D01*
X87706614Y-58033256D01*
X87533256Y-58206614D01*
X87397050Y-58410461D01*
X87384317Y-58441200D01*
X78807755Y-58441200D01*
X79003567Y-58379218D01*
X79130826Y-58112859D01*
X79203675Y-57826790D01*
X79219315Y-57532007D01*
X79177145Y-57239836D01*
X79078786Y-56961507D01*
X79003567Y-56820782D01*
X78753104Y-56741501D01*
X77894605Y-57600000D01*
X77908748Y-57614143D01*
X77729143Y-57793748D01*
X77715000Y-57779605D01*
X77700858Y-57793748D01*
X77521253Y-57614143D01*
X77535395Y-57600000D01*
X76676896Y-56741501D01*
X76426433Y-56820782D01*
X76304818Y-57075327D01*
X76277950Y-57010461D01*
X76141744Y-56806614D01*
X75968386Y-56633256D01*
X75861589Y-56561896D01*
X76856501Y-56561896D01*
X77715000Y-57420395D01*
X78573499Y-56561896D01*
X78502444Y-56337418D01*
X87255400Y-56337418D01*
X87255400Y-56582582D01*
X87303229Y-56823036D01*
X87397050Y-57049539D01*
X87533256Y-57253386D01*
X87706614Y-57426744D01*
X87910461Y-57562950D01*
X88136964Y-57656771D01*
X88377418Y-57704600D01*
X88622582Y-57704600D01*
X88863036Y-57656771D01*
X89089539Y-57562950D01*
X89293386Y-57426744D01*
X89466744Y-57253386D01*
X89602950Y-57049539D01*
X89696771Y-56823036D01*
X89744600Y-56582582D01*
X89744600Y-56337418D01*
X89696771Y-56096964D01*
X89602950Y-55870461D01*
X89466744Y-55666614D01*
X89293386Y-55493256D01*
X89089539Y-55357050D01*
X89016632Y-55326851D01*
X89138493Y-55283786D01*
X89279218Y-55208567D01*
X89358499Y-54958104D01*
X88500000Y-54099605D01*
X87641501Y-54958104D01*
X87720782Y-55208567D01*
X87975327Y-55330182D01*
X87910461Y-55357050D01*
X87706614Y-55493256D01*
X87533256Y-55666614D01*
X87397050Y-55870461D01*
X87303229Y-56096964D01*
X87255400Y-56337418D01*
X78502444Y-56337418D01*
X78494218Y-56311433D01*
X78227859Y-56184174D01*
X77941790Y-56111325D01*
X77647007Y-56095685D01*
X77354836Y-56137855D01*
X77076507Y-56236214D01*
X76935782Y-56311433D01*
X76856501Y-56561896D01*
X75861589Y-56561896D01*
X75764539Y-56497050D01*
X75538036Y-56403229D01*
X75297582Y-56355400D01*
X75052418Y-56355400D01*
X74811964Y-56403229D01*
X74585461Y-56497050D01*
X74381614Y-56633256D01*
X74208256Y-56806614D01*
X74072050Y-57010461D01*
X73978229Y-57236964D01*
X73930400Y-57477418D01*
X73930400Y-57722582D01*
X73978229Y-57963036D01*
X74072050Y-58189539D01*
X74208256Y-58393386D01*
X74256070Y-58441200D01*
X69186463Y-58441200D01*
X68739038Y-57993776D01*
X68751771Y-57963036D01*
X68799600Y-57722582D01*
X68799600Y-57477418D01*
X68751771Y-57236964D01*
X68657950Y-57010461D01*
X68521744Y-56806614D01*
X68348386Y-56633256D01*
X68144539Y-56497050D01*
X67918036Y-56403229D01*
X67677582Y-56355400D01*
X67432418Y-56355400D01*
X67191964Y-56403229D01*
X66965461Y-56497050D01*
X66761614Y-56633256D01*
X66588256Y-56806614D01*
X66452050Y-57010461D01*
X66358229Y-57236964D01*
X66310400Y-57477418D01*
X64689600Y-57477418D01*
X64641771Y-57236964D01*
X64547950Y-57010461D01*
X64411744Y-56806614D01*
X64238386Y-56633256D01*
X64034539Y-56497050D01*
X63808036Y-56403229D01*
X63567582Y-56355400D01*
X63322418Y-56355400D01*
X63081964Y-56403229D01*
X62855461Y-56497050D01*
X62651614Y-56633256D01*
X62478256Y-56806614D01*
X62342050Y-57010461D01*
X62248229Y-57236964D01*
X62200400Y-57477418D01*
X62200400Y-57722582D01*
X62248229Y-57963036D01*
X62260962Y-57993776D01*
X61813538Y-58441200D01*
X56743930Y-58441200D01*
X56791744Y-58393386D01*
X56927950Y-58189539D01*
X57021771Y-57963036D01*
X57069600Y-57722582D01*
X57069600Y-57477418D01*
X57021771Y-57236964D01*
X56927950Y-57010461D01*
X56791744Y-56806614D01*
X56618386Y-56633256D01*
X56414539Y-56497050D01*
X56188036Y-56403229D01*
X55947582Y-56355400D01*
X55702418Y-56355400D01*
X55461964Y-56403229D01*
X55235461Y-56497050D01*
X55031614Y-56633256D01*
X54858256Y-56806614D01*
X54722050Y-57010461D01*
X54691851Y-57083368D01*
X54648786Y-56961507D01*
X54573567Y-56820782D01*
X54323104Y-56741501D01*
X53464605Y-57600000D01*
X53478748Y-57614143D01*
X53299143Y-57793748D01*
X53285000Y-57779605D01*
X53270858Y-57793748D01*
X53091253Y-57614143D01*
X53105395Y-57600000D01*
X52246896Y-56741501D01*
X51996433Y-56820782D01*
X51869174Y-57087141D01*
X51796325Y-57373210D01*
X51780685Y-57667993D01*
X51822855Y-57960164D01*
X51921214Y-58238493D01*
X51996433Y-58379218D01*
X52192245Y-58441200D01*
X43615683Y-58441200D01*
X43602950Y-58410461D01*
X43466744Y-58206614D01*
X43293386Y-58033256D01*
X43089539Y-57897050D01*
X42863036Y-57803229D01*
X42622582Y-57755400D01*
X42377418Y-57755400D01*
X42136964Y-57803229D01*
X41910461Y-57897050D01*
X41706614Y-58033256D01*
X41533256Y-58206614D01*
X41397050Y-58410461D01*
X41303229Y-58636964D01*
X41255400Y-58877418D01*
X40931000Y-58877418D01*
X40931000Y-56337418D01*
X41255400Y-56337418D01*
X41255400Y-56582582D01*
X41303229Y-56823036D01*
X41397050Y-57049539D01*
X41533256Y-57253386D01*
X41706614Y-57426744D01*
X41910461Y-57562950D01*
X42136964Y-57656771D01*
X42377418Y-57704600D01*
X42622582Y-57704600D01*
X42863036Y-57656771D01*
X43089539Y-57562950D01*
X43293386Y-57426744D01*
X43466744Y-57253386D01*
X43602950Y-57049539D01*
X43696771Y-56823036D01*
X43744600Y-56582582D01*
X43744600Y-56561896D01*
X52426501Y-56561896D01*
X53285000Y-57420395D01*
X54143499Y-56561896D01*
X54064218Y-56311433D01*
X53797859Y-56184174D01*
X53511790Y-56111325D01*
X53217007Y-56095685D01*
X52924836Y-56137855D01*
X52646507Y-56236214D01*
X52505782Y-56311433D01*
X52426501Y-56561896D01*
X43744600Y-56561896D01*
X43744600Y-56337418D01*
X43696771Y-56096964D01*
X43662996Y-56015424D01*
X47422420Y-52256000D01*
X47561922Y-52256000D01*
X47712809Y-52225987D01*
X47854942Y-52167113D01*
X47982859Y-52081642D01*
X48091642Y-51972859D01*
X48177113Y-51844942D01*
X48235987Y-51702809D01*
X48266000Y-51551922D01*
X48266000Y-51398078D01*
X48235987Y-51247191D01*
X48184304Y-51122418D01*
X54255400Y-51122418D01*
X54255400Y-51367582D01*
X54303229Y-51608036D01*
X54397050Y-51834539D01*
X54533256Y-52038386D01*
X54706614Y-52211744D01*
X54910461Y-52347950D01*
X55136964Y-52441771D01*
X55377418Y-52489600D01*
X55622582Y-52489600D01*
X55863036Y-52441771D01*
X56089539Y-52347950D01*
X56293386Y-52211744D01*
X56466744Y-52038386D01*
X56602950Y-51834539D01*
X56696771Y-51608036D01*
X56744600Y-51367582D01*
X56744600Y-51122418D01*
X64255400Y-51122418D01*
X64255400Y-51367582D01*
X64303229Y-51608036D01*
X64397050Y-51834539D01*
X64533256Y-52038386D01*
X64706614Y-52211744D01*
X64910461Y-52347950D01*
X65136964Y-52441771D01*
X65377418Y-52489600D01*
X65622582Y-52489600D01*
X65863036Y-52441771D01*
X66089539Y-52347950D01*
X66293386Y-52211744D01*
X66466744Y-52038386D01*
X66602950Y-51834539D01*
X66696771Y-51608036D01*
X66744600Y-51367582D01*
X66744600Y-51122418D01*
X66696771Y-50881964D01*
X66662996Y-50800424D01*
X67205421Y-50258000D01*
X74736929Y-50258000D01*
X74706614Y-50278256D01*
X74533256Y-50451614D01*
X74397050Y-50655461D01*
X74303229Y-50881964D01*
X74255400Y-51122418D01*
X74255400Y-51367582D01*
X74303229Y-51608036D01*
X74397050Y-51834539D01*
X74533256Y-52038386D01*
X74706614Y-52211744D01*
X74910461Y-52347950D01*
X75136964Y-52441771D01*
X75377418Y-52489600D01*
X75622582Y-52489600D01*
X75863036Y-52441771D01*
X76089539Y-52347950D01*
X76293386Y-52211744D01*
X76466744Y-52038386D01*
X76602950Y-51834539D01*
X76696771Y-51608036D01*
X76744600Y-51367582D01*
X76744600Y-51188021D01*
X77092001Y-51535422D01*
X77092000Y-52803499D01*
X76993358Y-52902141D01*
X76907887Y-53030058D01*
X76849013Y-53172191D01*
X76819000Y-53323078D01*
X76819000Y-53476922D01*
X76849013Y-53627809D01*
X76907887Y-53769942D01*
X76993358Y-53897859D01*
X77102141Y-54006642D01*
X77230058Y-54092113D01*
X77372191Y-54150987D01*
X77523078Y-54181000D01*
X77676922Y-54181000D01*
X77827809Y-54150987D01*
X77969942Y-54092113D01*
X78097859Y-54006642D01*
X78116508Y-53987993D01*
X86995685Y-53987993D01*
X87037855Y-54280164D01*
X87136214Y-54558493D01*
X87211433Y-54699218D01*
X87461896Y-54778499D01*
X88320395Y-53920000D01*
X88679605Y-53920000D01*
X89538104Y-54778499D01*
X89788567Y-54699218D01*
X89915826Y-54432859D01*
X89988675Y-54146790D01*
X90004315Y-53852007D01*
X89962145Y-53559836D01*
X89863786Y-53281507D01*
X89788567Y-53140782D01*
X89538104Y-53061501D01*
X88679605Y-53920000D01*
X88320395Y-53920000D01*
X87461896Y-53061501D01*
X87211433Y-53140782D01*
X87084174Y-53407141D01*
X87011325Y-53693210D01*
X86995685Y-53987993D01*
X78116508Y-53987993D01*
X78206642Y-53897859D01*
X78292113Y-53769942D01*
X78350987Y-53627809D01*
X78381000Y-53476922D01*
X78381000Y-53323078D01*
X78350987Y-53172191D01*
X78292113Y-53030058D01*
X78206642Y-52902141D01*
X78186397Y-52881896D01*
X87641501Y-52881896D01*
X88500000Y-53740395D01*
X89358499Y-52881896D01*
X89279218Y-52631433D01*
X89012859Y-52504174D01*
X88726790Y-52431325D01*
X88432007Y-52415685D01*
X88139836Y-52457855D01*
X87861507Y-52556214D01*
X87720782Y-52631433D01*
X87641501Y-52881896D01*
X78186397Y-52881896D01*
X78108000Y-52803499D01*
X78108000Y-51349943D01*
X78110457Y-51324999D01*
X78105991Y-51279656D01*
X78100649Y-51225415D01*
X78071601Y-51129657D01*
X78067732Y-51122418D01*
X84255400Y-51122418D01*
X84255400Y-51367582D01*
X84303229Y-51608036D01*
X84397050Y-51834539D01*
X84533256Y-52038386D01*
X84706614Y-52211744D01*
X84910461Y-52347950D01*
X85136964Y-52441771D01*
X85377418Y-52489600D01*
X85622582Y-52489600D01*
X85863036Y-52441771D01*
X86089539Y-52347950D01*
X86293386Y-52211744D01*
X86466744Y-52038386D01*
X86602950Y-51834539D01*
X86696771Y-51608036D01*
X86744600Y-51367582D01*
X86744600Y-51122418D01*
X86696771Y-50881964D01*
X86602950Y-50655461D01*
X86466744Y-50451614D01*
X86293386Y-50278256D01*
X86089539Y-50142050D01*
X85863036Y-50048229D01*
X85622582Y-50000400D01*
X85377418Y-50000400D01*
X85136964Y-50048229D01*
X84910461Y-50142050D01*
X84706614Y-50278256D01*
X84533256Y-50451614D01*
X84397050Y-50655461D01*
X84303229Y-50881964D01*
X84255400Y-51122418D01*
X78067732Y-51122418D01*
X78024429Y-51041404D01*
X77976850Y-50983429D01*
X77960948Y-50964052D01*
X77941571Y-50948150D01*
X76806000Y-49812580D01*
X76806000Y-49673078D01*
X76775987Y-49522191D01*
X76717113Y-49380058D01*
X76631642Y-49252141D01*
X76522859Y-49143358D01*
X76394942Y-49057887D01*
X76252809Y-48999013D01*
X76101922Y-48969000D01*
X75948078Y-48969000D01*
X75797191Y-48999013D01*
X75655058Y-49057887D01*
X75527141Y-49143358D01*
X75428499Y-49242000D01*
X67019943Y-49242000D01*
X66994999Y-49239543D01*
X66970055Y-49242000D01*
X66970053Y-49242000D01*
X66895415Y-49249351D01*
X66799657Y-49278399D01*
X66799655Y-49278400D01*
X66711404Y-49325571D01*
X66656810Y-49370376D01*
X66634052Y-49389052D01*
X66618150Y-49408429D01*
X65944576Y-50082004D01*
X65863036Y-50048229D01*
X65622582Y-50000400D01*
X65377418Y-50000400D01*
X65136964Y-50048229D01*
X64910461Y-50142050D01*
X64706614Y-50278256D01*
X64533256Y-50451614D01*
X64397050Y-50655461D01*
X64303229Y-50881964D01*
X64255400Y-51122418D01*
X56744600Y-51122418D01*
X56696771Y-50881964D01*
X56602950Y-50655461D01*
X56466744Y-50451614D01*
X56293386Y-50278256D01*
X56089539Y-50142050D01*
X55863036Y-50048229D01*
X55622582Y-50000400D01*
X55377418Y-50000400D01*
X55136964Y-50048229D01*
X54910461Y-50142050D01*
X54706614Y-50278256D01*
X54533256Y-50451614D01*
X54397050Y-50655461D01*
X54303229Y-50881964D01*
X54255400Y-51122418D01*
X48184304Y-51122418D01*
X48177113Y-51105058D01*
X48091642Y-50977141D01*
X47982859Y-50868358D01*
X47854942Y-50782887D01*
X47712809Y-50724013D01*
X47561922Y-50694000D01*
X47408078Y-50694000D01*
X47257191Y-50724013D01*
X47115058Y-50782887D01*
X46987141Y-50868358D01*
X46878358Y-50977141D01*
X46792887Y-51105058D01*
X46744600Y-51221632D01*
X46744600Y-51122418D01*
X46696771Y-50881964D01*
X46602950Y-50655461D01*
X46466744Y-50451614D01*
X46293386Y-50278256D01*
X46089539Y-50142050D01*
X45863036Y-50048229D01*
X45622582Y-50000400D01*
X45377418Y-50000400D01*
X45136964Y-50048229D01*
X44910461Y-50142050D01*
X44706614Y-50278256D01*
X44533256Y-50451614D01*
X44397050Y-50655461D01*
X44303229Y-50881964D01*
X44255400Y-51122418D01*
X44255400Y-51367582D01*
X44303229Y-51608036D01*
X44397050Y-51834539D01*
X44533256Y-52038386D01*
X44706614Y-52211744D01*
X44910461Y-52347950D01*
X45136964Y-52441771D01*
X45377418Y-52489600D01*
X45622582Y-52489600D01*
X45784110Y-52457470D01*
X43952420Y-54289160D01*
X43988675Y-54146790D01*
X44004315Y-53852007D01*
X43962145Y-53559836D01*
X43863786Y-53281507D01*
X43788567Y-53140782D01*
X43538104Y-53061501D01*
X42679605Y-53920000D01*
X42693748Y-53934143D01*
X42514143Y-54113748D01*
X42500000Y-54099605D01*
X41641501Y-54958104D01*
X41720782Y-55208567D01*
X41975327Y-55330182D01*
X41910461Y-55357050D01*
X41706614Y-55493256D01*
X41533256Y-55666614D01*
X41397050Y-55870461D01*
X41303229Y-56096964D01*
X41255400Y-56337418D01*
X40931000Y-56337418D01*
X40931000Y-53987993D01*
X40995685Y-53987993D01*
X41037855Y-54280164D01*
X41136214Y-54558493D01*
X41211433Y-54699218D01*
X41461896Y-54778499D01*
X42320395Y-53920000D01*
X41461896Y-53061501D01*
X41211433Y-53140782D01*
X41084174Y-53407141D01*
X41011325Y-53693210D01*
X40995685Y-53987993D01*
X40931000Y-53987993D01*
X40931000Y-52881896D01*
X41641501Y-52881896D01*
X42500000Y-53740395D01*
X43358499Y-52881896D01*
X43279218Y-52631433D01*
X43012859Y-52504174D01*
X42726790Y-52431325D01*
X42432007Y-52415685D01*
X42139836Y-52457855D01*
X41861507Y-52556214D01*
X41720782Y-52631433D01*
X41641501Y-52881896D01*
X40931000Y-52881896D01*
X40931000Y-44663104D01*
X44641501Y-44663104D01*
X44720782Y-44913567D01*
X44987141Y-45040826D01*
X45273210Y-45113675D01*
X45567993Y-45129315D01*
X45860164Y-45087145D01*
X46138493Y-44988786D01*
X46279218Y-44913567D01*
X46358499Y-44663104D01*
X54641501Y-44663104D01*
X54720782Y-44913567D01*
X54987141Y-45040826D01*
X55273210Y-45113675D01*
X55567993Y-45129315D01*
X55860164Y-45087145D01*
X56138493Y-44988786D01*
X56279218Y-44913567D01*
X56358499Y-44663104D01*
X64641501Y-44663104D01*
X64720782Y-44913567D01*
X64987141Y-45040826D01*
X65273210Y-45113675D01*
X65567993Y-45129315D01*
X65860164Y-45087145D01*
X66138493Y-44988786D01*
X66279218Y-44913567D01*
X66358499Y-44663104D01*
X74641501Y-44663104D01*
X74720782Y-44913567D01*
X74987141Y-45040826D01*
X75273210Y-45113675D01*
X75567993Y-45129315D01*
X75860164Y-45087145D01*
X76138493Y-44988786D01*
X76279218Y-44913567D01*
X76358499Y-44663104D01*
X84641501Y-44663104D01*
X84720782Y-44913567D01*
X84987141Y-45040826D01*
X85273210Y-45113675D01*
X85567993Y-45129315D01*
X85860164Y-45087145D01*
X86138493Y-44988786D01*
X86279218Y-44913567D01*
X86358499Y-44663104D01*
X85500000Y-43804605D01*
X84641501Y-44663104D01*
X76358499Y-44663104D01*
X75500000Y-43804605D01*
X74641501Y-44663104D01*
X66358499Y-44663104D01*
X65500000Y-43804605D01*
X64641501Y-44663104D01*
X56358499Y-44663104D01*
X55500000Y-43804605D01*
X54641501Y-44663104D01*
X46358499Y-44663104D01*
X45500000Y-43804605D01*
X44641501Y-44663104D01*
X40931000Y-44663104D01*
X40931000Y-43692993D01*
X43995685Y-43692993D01*
X44037855Y-43985164D01*
X44136214Y-44263493D01*
X44211433Y-44404218D01*
X44461896Y-44483499D01*
X45320395Y-43625000D01*
X45679605Y-43625000D01*
X46538104Y-44483499D01*
X46788567Y-44404218D01*
X46915826Y-44137859D01*
X46988675Y-43851790D01*
X46997100Y-43692993D01*
X53995685Y-43692993D01*
X54037855Y-43985164D01*
X54136214Y-44263493D01*
X54211433Y-44404218D01*
X54461896Y-44483499D01*
X55320395Y-43625000D01*
X55679605Y-43625000D01*
X56538104Y-44483499D01*
X56788567Y-44404218D01*
X56915826Y-44137859D01*
X56988675Y-43851790D01*
X56997100Y-43692993D01*
X63995685Y-43692993D01*
X64037855Y-43985164D01*
X64136214Y-44263493D01*
X64211433Y-44404218D01*
X64461896Y-44483499D01*
X65320395Y-43625000D01*
X65679605Y-43625000D01*
X66538104Y-44483499D01*
X66788567Y-44404218D01*
X66915826Y-44137859D01*
X66988675Y-43851790D01*
X66997100Y-43692993D01*
X73995685Y-43692993D01*
X74037855Y-43985164D01*
X74136214Y-44263493D01*
X74211433Y-44404218D01*
X74461896Y-44483499D01*
X75320395Y-43625000D01*
X75679605Y-43625000D01*
X76538104Y-44483499D01*
X76788567Y-44404218D01*
X76915826Y-44137859D01*
X76988675Y-43851790D01*
X76997100Y-43692993D01*
X83995685Y-43692993D01*
X84037855Y-43985164D01*
X84136214Y-44263493D01*
X84211433Y-44404218D01*
X84461896Y-44483499D01*
X85320395Y-43625000D01*
X85679605Y-43625000D01*
X86538104Y-44483499D01*
X86788567Y-44404218D01*
X86915826Y-44137859D01*
X86988675Y-43851790D01*
X87004315Y-43557007D01*
X86962145Y-43264836D01*
X86863786Y-42986507D01*
X86788567Y-42845782D01*
X86538104Y-42766501D01*
X85679605Y-43625000D01*
X85320395Y-43625000D01*
X84461896Y-42766501D01*
X84211433Y-42845782D01*
X84084174Y-43112141D01*
X84011325Y-43398210D01*
X83995685Y-43692993D01*
X76997100Y-43692993D01*
X77004315Y-43557007D01*
X76962145Y-43264836D01*
X76863786Y-42986507D01*
X76788567Y-42845782D01*
X76538104Y-42766501D01*
X75679605Y-43625000D01*
X75320395Y-43625000D01*
X74461896Y-42766501D01*
X74211433Y-42845782D01*
X74084174Y-43112141D01*
X74011325Y-43398210D01*
X73995685Y-43692993D01*
X66997100Y-43692993D01*
X67004315Y-43557007D01*
X66962145Y-43264836D01*
X66863786Y-42986507D01*
X66788567Y-42845782D01*
X66538104Y-42766501D01*
X65679605Y-43625000D01*
X65320395Y-43625000D01*
X64461896Y-42766501D01*
X64211433Y-42845782D01*
X64084174Y-43112141D01*
X64011325Y-43398210D01*
X63995685Y-43692993D01*
X56997100Y-43692993D01*
X57004315Y-43557007D01*
X56962145Y-43264836D01*
X56863786Y-42986507D01*
X56788567Y-42845782D01*
X56538104Y-42766501D01*
X55679605Y-43625000D01*
X55320395Y-43625000D01*
X54461896Y-42766501D01*
X54211433Y-42845782D01*
X54084174Y-43112141D01*
X54011325Y-43398210D01*
X53995685Y-43692993D01*
X46997100Y-43692993D01*
X47004315Y-43557007D01*
X46962145Y-43264836D01*
X46863786Y-42986507D01*
X46788567Y-42845782D01*
X46538104Y-42766501D01*
X45679605Y-43625000D01*
X45320395Y-43625000D01*
X44461896Y-42766501D01*
X44211433Y-42845782D01*
X44084174Y-43112141D01*
X44011325Y-43398210D01*
X43995685Y-43692993D01*
X40931000Y-43692993D01*
X40931000Y-42123104D01*
X44641501Y-42123104D01*
X44714905Y-42355000D01*
X44641501Y-42586896D01*
X45500000Y-43445395D01*
X46358499Y-42586896D01*
X46285095Y-42355000D01*
X46358499Y-42123104D01*
X54641501Y-42123104D01*
X54714905Y-42355000D01*
X54641501Y-42586896D01*
X55500000Y-43445395D01*
X56358499Y-42586896D01*
X56285095Y-42355000D01*
X56358499Y-42123104D01*
X64641501Y-42123104D01*
X64714905Y-42355000D01*
X64641501Y-42586896D01*
X65500000Y-43445395D01*
X66358499Y-42586896D01*
X66285095Y-42355000D01*
X66358499Y-42123104D01*
X74641501Y-42123104D01*
X74714905Y-42355000D01*
X74641501Y-42586896D01*
X75500000Y-43445395D01*
X76358499Y-42586896D01*
X76285095Y-42355000D01*
X76358499Y-42123104D01*
X84641501Y-42123104D01*
X84714905Y-42355000D01*
X84641501Y-42586896D01*
X85500000Y-43445395D01*
X86358499Y-42586896D01*
X86285095Y-42355000D01*
X86358499Y-42123104D01*
X85500000Y-41264605D01*
X84641501Y-42123104D01*
X76358499Y-42123104D01*
X75500000Y-41264605D01*
X74641501Y-42123104D01*
X66358499Y-42123104D01*
X65500000Y-41264605D01*
X64641501Y-42123104D01*
X56358499Y-42123104D01*
X55500000Y-41264605D01*
X54641501Y-42123104D01*
X46358499Y-42123104D01*
X45500000Y-41264605D01*
X44641501Y-42123104D01*
X40931000Y-42123104D01*
X40931000Y-40431000D01*
X44151607Y-40431000D01*
X44084174Y-40572141D01*
G37*
G04 #@! TD.AperFunction*
M02*
