M48
; DRILL file {KiCad (5.1.8)-1} date 08/08/21 18:23:20
; FORMAT={-:-/ absolute / metric / decimal}
; #@! TF.CreationDate,2021-08-08T18:23:20-04:00
; #@! TF.GenerationSoftware,Kicad,Pcbnew,(5.1.8)-1
; #@! TF.FileFunction,Plated,1,2,PTH
FMAT,2
METRIC
T1C0.400
T2C1.016
%
G90
G05
T1
X47.485Y-51.475
X76.025Y-49.75
X77.6Y-53.4
T2
X75.5Y-41.085
X75.5Y-43.625
X75.5Y-51.245
X65.5Y-41.085
X65.5Y-43.625
X65.5Y-51.245
X85.5Y-41.085
X85.5Y-43.625
X85.5Y-51.245
X67.555Y-57.6
X75.175Y-57.6
X77.715Y-57.6
X53.285Y-57.6
X55.825Y-57.6
X63.445Y-57.6
X88.5Y-53.92
X88.5Y-56.46
X88.5Y-59.0
X42.5Y-53.92
X42.5Y-56.46
X42.5Y-59.0
X55.5Y-41.085
X55.5Y-43.625
X55.5Y-51.245
X45.5Y-41.085
X45.5Y-43.625
X45.5Y-51.245
T0
M30
