%FSLAX45Y45*%
G04 Gerber Fmt 4.5, Leading zero omitted, Abs format (unit mm)*
G04 Created by KiCad (PCBNEW (5.1.8)-1) date 2021-08-08 18:23:22*
%MOMM*%
%LPD*%
G01*
G04 APERTURE LIST*
%TA.AperFunction,Profile*%
%ADD10C,0.100000*%
%TD*%
%ADD11C,0.200000*%
%ADD12C,0.300000*%
G04 APERTURE END LIST*
D10*
X9050000Y-6220000D02*
X9050000Y-6200000D01*
X4050000Y-6220000D02*
X4050000Y-6200000D01*
X9050000Y-4000000D02*
X4050000Y-4000000D01*
X9050000Y-6200000D02*
X9050000Y-4000000D01*
X4050000Y-6220000D02*
X9050000Y-6220000D01*
X4050000Y-4000000D02*
X4050000Y-6200000D01*
D11*
D12*
X4331428Y-6690714D02*
X4331428Y-6390714D01*
X4402857Y-6390714D01*
X4445714Y-6405000D01*
X4474286Y-6433571D01*
X4488571Y-6462143D01*
X4502857Y-6519286D01*
X4502857Y-6562143D01*
X4488571Y-6619286D01*
X4474286Y-6647857D01*
X4445714Y-6676429D01*
X4402857Y-6690714D01*
X4331428Y-6690714D01*
X4631428Y-6690714D02*
X4631428Y-6490714D01*
X4631428Y-6547857D02*
X4645714Y-6519286D01*
X4660000Y-6505000D01*
X4688571Y-6490714D01*
X4717143Y-6490714D01*
X4817143Y-6690714D02*
X4817143Y-6490714D01*
X4817143Y-6390714D02*
X4802857Y-6405000D01*
X4817143Y-6419286D01*
X4831428Y-6405000D01*
X4817143Y-6390714D01*
X4817143Y-6419286D01*
X5002857Y-6690714D02*
X4974286Y-6676429D01*
X4960000Y-6647857D01*
X4960000Y-6390714D01*
X5160000Y-6690714D02*
X5131428Y-6676429D01*
X5117143Y-6647857D01*
X5117143Y-6390714D01*
X5502857Y-6690714D02*
X5502857Y-6390714D01*
X5602857Y-6605000D01*
X5702857Y-6390714D01*
X5702857Y-6690714D01*
X5974286Y-6690714D02*
X5974286Y-6533571D01*
X5960000Y-6505000D01*
X5931428Y-6490714D01*
X5874286Y-6490714D01*
X5845714Y-6505000D01*
X5974286Y-6676429D02*
X5945714Y-6690714D01*
X5874286Y-6690714D01*
X5845714Y-6676429D01*
X5831428Y-6647857D01*
X5831428Y-6619286D01*
X5845714Y-6590714D01*
X5874286Y-6576429D01*
X5945714Y-6576429D01*
X5974286Y-6562143D01*
X6117143Y-6490714D02*
X6117143Y-6790714D01*
X6117143Y-6505000D02*
X6145714Y-6490714D01*
X6202857Y-6490714D01*
X6231428Y-6505000D01*
X6245714Y-6519286D01*
X6260000Y-6547857D01*
X6260000Y-6633571D01*
X6245714Y-6662143D01*
X6231428Y-6676429D01*
X6202857Y-6690714D01*
X6145714Y-6690714D01*
X6117143Y-6676429D01*
X6388571Y-6662143D02*
X6402857Y-6676429D01*
X6388571Y-6690714D01*
X6374286Y-6676429D01*
X6388571Y-6662143D01*
X6388571Y-6690714D01*
X6388571Y-6505000D02*
X6402857Y-6519286D01*
X6388571Y-6533571D01*
X6374286Y-6519286D01*
X6388571Y-6505000D01*
X6388571Y-6533571D01*
M02*
