G04 #@! TF.GenerationSoftware,KiCad,Pcbnew,(5.1.8)-1*
G04 #@! TF.CreationDate,2021-08-08T18:23:10-04:00*
G04 #@! TF.ProjectId,nearless_front_pcb,6e656172-6c65-4737-935f-66726f6e745f,rev?*
G04 #@! TF.SameCoordinates,Original*
G04 #@! TF.FileFunction,Legend,Bot*
G04 #@! TF.FilePolarity,Positive*
%FSLAX46Y46*%
G04 Gerber Fmt 4.6, Leading zero omitted, Abs format (unit mm)*
G04 Created by KiCad (PCBNEW (5.1.8)-1) date 2021-08-08 18:23:10*
%MOMM*%
%LPD*%
G01*
G04 APERTURE LIST*
%ADD10C,0.100000*%
%ADD11R,1.500000X1.300000*%
%ADD12C,1.727200*%
G04 APERTURE END LIST*
D10*
X83460000Y-52530000D02*
X81360000Y-52530000D01*
X83460000Y-56430000D02*
X83460000Y-52530000D01*
X81360000Y-56430000D02*
X83460000Y-56430000D01*
X81360000Y-52530000D02*
X81360000Y-56430000D01*
X81360000Y-49350000D02*
X83460000Y-49350000D01*
X81360000Y-45450000D02*
X81360000Y-49350000D01*
X83460000Y-45450000D02*
X81360000Y-45450000D01*
X83460000Y-49350000D02*
X83460000Y-45450000D01*
X80285000Y-52530000D02*
X78185000Y-52530000D01*
X80285000Y-56430000D02*
X80285000Y-52530000D01*
X78185000Y-56430000D02*
X80285000Y-56430000D01*
X78185000Y-52530000D02*
X78185000Y-56430000D01*
X78185000Y-49350000D02*
X80285000Y-49350000D01*
X78185000Y-45450000D02*
X78185000Y-49350000D01*
X80285000Y-45450000D02*
X78185000Y-45450000D01*
X80285000Y-49350000D02*
X80285000Y-45450000D01*
X77110000Y-52530000D02*
X75010000Y-52530000D01*
X77110000Y-56430000D02*
X77110000Y-52530000D01*
X75010000Y-56430000D02*
X77110000Y-56430000D01*
X75010000Y-52530000D02*
X75010000Y-56430000D01*
X75010000Y-49350000D02*
X77110000Y-49350000D01*
X75010000Y-45450000D02*
X75010000Y-49350000D01*
X77110000Y-45450000D02*
X75010000Y-45450000D01*
X77110000Y-49350000D02*
X77110000Y-45450000D01*
X73935000Y-52530000D02*
X71835000Y-52530000D01*
X73935000Y-56430000D02*
X73935000Y-52530000D01*
X71835000Y-56430000D02*
X73935000Y-56430000D01*
X71835000Y-52530000D02*
X71835000Y-56430000D01*
X71835000Y-49350000D02*
X73935000Y-49350000D01*
X71835000Y-45450000D02*
X71835000Y-49350000D01*
X73935000Y-45450000D02*
X71835000Y-45450000D01*
X73935000Y-49350000D02*
X73935000Y-45450000D01*
X70760000Y-52530000D02*
X68660000Y-52530000D01*
X70760000Y-56430000D02*
X70760000Y-52530000D01*
X68660000Y-56430000D02*
X70760000Y-56430000D01*
X68660000Y-52530000D02*
X68660000Y-56430000D01*
X68660000Y-49350000D02*
X70760000Y-49350000D01*
X68660000Y-45450000D02*
X68660000Y-49350000D01*
X70760000Y-45450000D02*
X68660000Y-45450000D01*
X70760000Y-49350000D02*
X70760000Y-45450000D01*
X82809285Y-57437857D02*
X82452142Y-57187857D01*
X82809285Y-57009285D02*
X82059285Y-57009285D01*
X82059285Y-57295000D01*
X82095000Y-57366428D01*
X82130714Y-57402142D01*
X82202142Y-57437857D01*
X82309285Y-57437857D01*
X82380714Y-57402142D01*
X82416428Y-57366428D01*
X82452142Y-57295000D01*
X82452142Y-57009285D01*
X82809285Y-58152142D02*
X82809285Y-57723571D01*
X82809285Y-57937857D02*
X82059285Y-57937857D01*
X82166428Y-57866428D01*
X82237857Y-57795000D01*
X82273571Y-57723571D01*
X82059285Y-58616428D02*
X82059285Y-58687857D01*
X82095000Y-58759285D01*
X82130714Y-58795000D01*
X82202142Y-58830714D01*
X82345000Y-58866428D01*
X82523571Y-58866428D01*
X82666428Y-58830714D01*
X82737857Y-58795000D01*
X82773571Y-58759285D01*
X82809285Y-58687857D01*
X82809285Y-58616428D01*
X82773571Y-58545000D01*
X82737857Y-58509285D01*
X82666428Y-58473571D01*
X82523571Y-58437857D01*
X82345000Y-58437857D01*
X82202142Y-58473571D01*
X82130714Y-58509285D01*
X82095000Y-58545000D01*
X82059285Y-58616428D01*
X82784285Y-44085000D02*
X82427142Y-43835000D01*
X82784285Y-43656428D02*
X82034285Y-43656428D01*
X82034285Y-43942142D01*
X82070000Y-44013571D01*
X82105714Y-44049285D01*
X82177142Y-44085000D01*
X82284285Y-44085000D01*
X82355714Y-44049285D01*
X82391428Y-44013571D01*
X82427142Y-43942142D01*
X82427142Y-43656428D01*
X82784285Y-44442142D02*
X82784285Y-44585000D01*
X82748571Y-44656428D01*
X82712857Y-44692142D01*
X82605714Y-44763571D01*
X82462857Y-44799285D01*
X82177142Y-44799285D01*
X82105714Y-44763571D01*
X82070000Y-44727857D01*
X82034285Y-44656428D01*
X82034285Y-44513571D01*
X82070000Y-44442142D01*
X82105714Y-44406428D01*
X82177142Y-44370714D01*
X82355714Y-44370714D01*
X82427142Y-44406428D01*
X82462857Y-44442142D01*
X82498571Y-44513571D01*
X82498571Y-44656428D01*
X82462857Y-44727857D01*
X82427142Y-44763571D01*
X82355714Y-44799285D01*
X80119285Y-57509286D02*
X79762142Y-57259286D01*
X80119285Y-57080714D02*
X79369285Y-57080714D01*
X79369285Y-57366428D01*
X79405000Y-57437857D01*
X79440714Y-57473571D01*
X79512142Y-57509286D01*
X79619285Y-57509286D01*
X79690714Y-57473571D01*
X79726428Y-57437857D01*
X79762142Y-57366428D01*
X79762142Y-57080714D01*
X79690714Y-57937857D02*
X79655000Y-57866428D01*
X79619285Y-57830714D01*
X79547857Y-57795000D01*
X79512142Y-57795000D01*
X79440714Y-57830714D01*
X79405000Y-57866428D01*
X79369285Y-57937857D01*
X79369285Y-58080714D01*
X79405000Y-58152143D01*
X79440714Y-58187857D01*
X79512142Y-58223571D01*
X79547857Y-58223571D01*
X79619285Y-58187857D01*
X79655000Y-58152143D01*
X79690714Y-58080714D01*
X79690714Y-57937857D01*
X79726428Y-57866428D01*
X79762142Y-57830714D01*
X79833571Y-57795000D01*
X79976428Y-57795000D01*
X80047857Y-57830714D01*
X80083571Y-57866428D01*
X80119285Y-57937857D01*
X80119285Y-58080714D01*
X80083571Y-58152143D01*
X80047857Y-58187857D01*
X79976428Y-58223571D01*
X79833571Y-58223571D01*
X79762142Y-58187857D01*
X79726428Y-58152143D01*
X79690714Y-58080714D01*
X79609285Y-44085000D02*
X79252142Y-43835000D01*
X79609285Y-43656428D02*
X78859285Y-43656428D01*
X78859285Y-43942142D01*
X78895000Y-44013571D01*
X78930714Y-44049285D01*
X79002142Y-44085000D01*
X79109285Y-44085000D01*
X79180714Y-44049285D01*
X79216428Y-44013571D01*
X79252142Y-43942142D01*
X79252142Y-43656428D01*
X78859285Y-44335000D02*
X78859285Y-44835000D01*
X79609285Y-44513571D01*
X76439285Y-59555000D02*
X76082142Y-59305000D01*
X76439285Y-59126428D02*
X75689285Y-59126428D01*
X75689285Y-59412142D01*
X75725000Y-59483571D01*
X75760714Y-59519285D01*
X75832142Y-59555000D01*
X75939285Y-59555000D01*
X76010714Y-59519285D01*
X76046428Y-59483571D01*
X76082142Y-59412142D01*
X76082142Y-59126428D01*
X75689285Y-60197857D02*
X75689285Y-60055000D01*
X75725000Y-59983571D01*
X75760714Y-59947857D01*
X75867857Y-59876428D01*
X76010714Y-59840714D01*
X76296428Y-59840714D01*
X76367857Y-59876428D01*
X76403571Y-59912142D01*
X76439285Y-59983571D01*
X76439285Y-60126428D01*
X76403571Y-60197857D01*
X76367857Y-60233571D01*
X76296428Y-60269285D01*
X76117857Y-60269285D01*
X76046428Y-60233571D01*
X76010714Y-60197857D01*
X75975000Y-60126428D01*
X75975000Y-59983571D01*
X76010714Y-59912142D01*
X76046428Y-59876428D01*
X76117857Y-59840714D01*
X77579285Y-44085000D02*
X77222142Y-43835000D01*
X77579285Y-43656428D02*
X76829285Y-43656428D01*
X76829285Y-43942142D01*
X76865000Y-44013571D01*
X76900714Y-44049285D01*
X76972142Y-44085000D01*
X77079285Y-44085000D01*
X77150714Y-44049285D01*
X77186428Y-44013571D01*
X77222142Y-43942142D01*
X77222142Y-43656428D01*
X76829285Y-44763571D02*
X76829285Y-44406428D01*
X77186428Y-44370714D01*
X77150714Y-44406428D01*
X77115000Y-44477857D01*
X77115000Y-44656428D01*
X77150714Y-44727857D01*
X77186428Y-44763571D01*
X77257857Y-44799285D01*
X77436428Y-44799285D01*
X77507857Y-44763571D01*
X77543571Y-44727857D01*
X77579285Y-44656428D01*
X77579285Y-44477857D01*
X77543571Y-44406428D01*
X77507857Y-44370714D01*
X73229285Y-57509286D02*
X72872142Y-57259286D01*
X73229285Y-57080714D02*
X72479285Y-57080714D01*
X72479285Y-57366428D01*
X72515000Y-57437857D01*
X72550714Y-57473571D01*
X72622142Y-57509286D01*
X72729285Y-57509286D01*
X72800714Y-57473571D01*
X72836428Y-57437857D01*
X72872142Y-57366428D01*
X72872142Y-57080714D01*
X72729285Y-58152143D02*
X73229285Y-58152143D01*
X72443571Y-57973571D02*
X72979285Y-57795000D01*
X72979285Y-58259286D01*
X73259285Y-44085000D02*
X72902142Y-43835000D01*
X73259285Y-43656428D02*
X72509285Y-43656428D01*
X72509285Y-43942142D01*
X72545000Y-44013571D01*
X72580714Y-44049285D01*
X72652142Y-44085000D01*
X72759285Y-44085000D01*
X72830714Y-44049285D01*
X72866428Y-44013571D01*
X72902142Y-43942142D01*
X72902142Y-43656428D01*
X72509285Y-44335000D02*
X72509285Y-44799285D01*
X72795000Y-44549285D01*
X72795000Y-44656428D01*
X72830714Y-44727857D01*
X72866428Y-44763571D01*
X72937857Y-44799285D01*
X73116428Y-44799285D01*
X73187857Y-44763571D01*
X73223571Y-44727857D01*
X73259285Y-44656428D01*
X73259285Y-44442142D01*
X73223571Y-44370714D01*
X73187857Y-44335000D01*
X69999285Y-57509286D02*
X69642142Y-57259286D01*
X69999285Y-57080714D02*
X69249285Y-57080714D01*
X69249285Y-57366428D01*
X69285000Y-57437857D01*
X69320714Y-57473571D01*
X69392142Y-57509286D01*
X69499285Y-57509286D01*
X69570714Y-57473571D01*
X69606428Y-57437857D01*
X69642142Y-57366428D01*
X69642142Y-57080714D01*
X69320714Y-57795000D02*
X69285000Y-57830714D01*
X69249285Y-57902143D01*
X69249285Y-58080714D01*
X69285000Y-58152143D01*
X69320714Y-58187857D01*
X69392142Y-58223571D01*
X69463571Y-58223571D01*
X69570714Y-58187857D01*
X69999285Y-57759286D01*
X69999285Y-58223571D01*
X70084285Y-44085000D02*
X69727142Y-43835000D01*
X70084285Y-43656428D02*
X69334285Y-43656428D01*
X69334285Y-43942142D01*
X69370000Y-44013571D01*
X69405714Y-44049285D01*
X69477142Y-44085000D01*
X69584285Y-44085000D01*
X69655714Y-44049285D01*
X69691428Y-44013571D01*
X69727142Y-43942142D01*
X69727142Y-43656428D01*
X70084285Y-44799285D02*
X70084285Y-44370714D01*
X70084285Y-44585000D02*
X69334285Y-44585000D01*
X69441428Y-44513571D01*
X69512857Y-44442142D01*
X69548571Y-44370714D01*
%LPC*%
D11*
X82410000Y-55480000D03*
X82410000Y-53480000D03*
X82410000Y-46400000D03*
X82410000Y-48400000D03*
X79235000Y-55480000D03*
X79235000Y-53480000D03*
X79235000Y-46400000D03*
X79235000Y-48400000D03*
X76060000Y-55480000D03*
X76060000Y-53480000D03*
X76060000Y-46400000D03*
X76060000Y-48400000D03*
X72885000Y-55480000D03*
X72885000Y-53480000D03*
X72885000Y-46400000D03*
X72885000Y-48400000D03*
X69710000Y-55480000D03*
X69710000Y-53480000D03*
X69710000Y-46400000D03*
X69710000Y-48400000D03*
D12*
X45500000Y-51245000D03*
X45500000Y-43625000D03*
X45500000Y-41085000D03*
X85500000Y-51245000D03*
X85500000Y-43625000D03*
X85500000Y-41085000D03*
X42500000Y-53920000D03*
X42500000Y-56460000D03*
X42500000Y-59000000D03*
X88500000Y-59000000D03*
X88500000Y-56460000D03*
X88500000Y-53920000D03*
X67555000Y-57600000D03*
X75175000Y-57600000D03*
X77715000Y-57600000D03*
X75500000Y-51245000D03*
X75500000Y-43625000D03*
X75500000Y-41085000D03*
X65500000Y-51245000D03*
X65500000Y-43625000D03*
X65500000Y-41085000D03*
X55500000Y-51245000D03*
X55500000Y-43625000D03*
X55500000Y-41085000D03*
X63445000Y-57600000D03*
X55825000Y-57600000D03*
X53285000Y-57600000D03*
M02*
