%FSLAX45Y45*%
G04 Gerber Fmt 4.5, Leading zero omitted, Abs format (unit mm)*
G04 Created by KiCad (PCBNEW (5.1.8)-1) date 2021-08-08 18:23:22*
%MOMM*%
%LPD*%
G01*
G04 APERTURE LIST*
%TA.AperFunction,Profile*%
%ADD10C,0.100000*%
%TD*%
%ADD11C,0.200000*%
%ADD12C,0.300000*%
G04 APERTURE END LIST*
D10*
X9050000Y-6220000D02*
X9050000Y-6200000D01*
X4050000Y-6220000D02*
X4050000Y-6200000D01*
X9050000Y-4000000D02*
X4050000Y-4000000D01*
X9050000Y-6200000D02*
X9050000Y-4000000D01*
X4050000Y-6220000D02*
X9050000Y-6220000D01*
X4050000Y-4000000D02*
X4050000Y-6200000D01*
D11*
X4728500Y-5127500D02*
X4768500Y-5167500D01*
X4768500Y-5127500D02*
X4728500Y-5167500D01*
X7582500Y-4955000D02*
X7622500Y-4995000D01*
X7622500Y-4955000D02*
X7582500Y-4995000D01*
X7740000Y-5320000D02*
X7780000Y-5360000D01*
X7780000Y-5320000D02*
X7740000Y-5360000D01*
X7600800Y-4108500D02*
G75*
G03*
X7600800Y-4108500I-50800J0D01*
G01*
X7600800Y-4362500D02*
G75*
G03*
X7600800Y-4362500I-50800J0D01*
G01*
X7600800Y-5124500D02*
G75*
G03*
X7600800Y-5124500I-50800J0D01*
G01*
X6600800Y-4108500D02*
G75*
G03*
X6600800Y-4108500I-50800J0D01*
G01*
X6600800Y-4362500D02*
G75*
G03*
X6600800Y-4362500I-50800J0D01*
G01*
X6600800Y-5124500D02*
G75*
G03*
X6600800Y-5124500I-50800J0D01*
G01*
X8600800Y-4108500D02*
G75*
G03*
X8600800Y-4108500I-50800J0D01*
G01*
X8600800Y-4362500D02*
G75*
G03*
X8600800Y-4362500I-50800J0D01*
G01*
X8600800Y-5124500D02*
G75*
G03*
X8600800Y-5124500I-50800J0D01*
G01*
X6806300Y-5760000D02*
G75*
G03*
X6806300Y-5760000I-50800J0D01*
G01*
X7568300Y-5760000D02*
G75*
G03*
X7568300Y-5760000I-50800J0D01*
G01*
X7822300Y-5760000D02*
G75*
G03*
X7822300Y-5760000I-50800J0D01*
G01*
X5379300Y-5760000D02*
G75*
G03*
X5379300Y-5760000I-50800J0D01*
G01*
X5633300Y-5760000D02*
G75*
G03*
X5633300Y-5760000I-50800J0D01*
G01*
X6395300Y-5760000D02*
G75*
G03*
X6395300Y-5760000I-50800J0D01*
G01*
X8900800Y-5392000D02*
G75*
G03*
X8900800Y-5392000I-50800J0D01*
G01*
X8900800Y-5646000D02*
G75*
G03*
X8900800Y-5646000I-50800J0D01*
G01*
X8900800Y-5900000D02*
G75*
G03*
X8900800Y-5900000I-50800J0D01*
G01*
X4300800Y-5392000D02*
G75*
G03*
X4300800Y-5392000I-50800J0D01*
G01*
X4300800Y-5646000D02*
G75*
G03*
X4300800Y-5646000I-50800J0D01*
G01*
X4300800Y-5900000D02*
G75*
G03*
X4300800Y-5900000I-50800J0D01*
G01*
X5600800Y-4108500D02*
G75*
G03*
X5600800Y-4108500I-50800J0D01*
G01*
X5600800Y-4362500D02*
G75*
G03*
X5600800Y-4362500I-50800J0D01*
G01*
X5600800Y-5124500D02*
G75*
G03*
X5600800Y-5124500I-50800J0D01*
G01*
X4600800Y-4108500D02*
G75*
G03*
X4600800Y-4108500I-50800J0D01*
G01*
X4600800Y-4362500D02*
G75*
G03*
X4600800Y-4362500I-50800J0D01*
G01*
X4600800Y-5124500D02*
G75*
G03*
X4600800Y-5124500I-50800J0D01*
G01*
D12*
X4331428Y-6690714D02*
X4331428Y-6390714D01*
X4402857Y-6390714D01*
X4445714Y-6405000D01*
X4474286Y-6433571D01*
X4488571Y-6462143D01*
X4502857Y-6519286D01*
X4502857Y-6562143D01*
X4488571Y-6619286D01*
X4474286Y-6647857D01*
X4445714Y-6676429D01*
X4402857Y-6690714D01*
X4331428Y-6690714D01*
X4631428Y-6690714D02*
X4631428Y-6490714D01*
X4631428Y-6547857D02*
X4645714Y-6519286D01*
X4660000Y-6505000D01*
X4688571Y-6490714D01*
X4717143Y-6490714D01*
X4817143Y-6690714D02*
X4817143Y-6490714D01*
X4817143Y-6390714D02*
X4802857Y-6405000D01*
X4817143Y-6419286D01*
X4831428Y-6405000D01*
X4817143Y-6390714D01*
X4817143Y-6419286D01*
X5002857Y-6690714D02*
X4974286Y-6676429D01*
X4960000Y-6647857D01*
X4960000Y-6390714D01*
X5160000Y-6690714D02*
X5131428Y-6676429D01*
X5117143Y-6647857D01*
X5117143Y-6390714D01*
X5502857Y-6690714D02*
X5502857Y-6390714D01*
X5602857Y-6605000D01*
X5702857Y-6390714D01*
X5702857Y-6690714D01*
X5974286Y-6690714D02*
X5974286Y-6533571D01*
X5960000Y-6505000D01*
X5931428Y-6490714D01*
X5874286Y-6490714D01*
X5845714Y-6505000D01*
X5974286Y-6676429D02*
X5945714Y-6690714D01*
X5874286Y-6690714D01*
X5845714Y-6676429D01*
X5831428Y-6647857D01*
X5831428Y-6619286D01*
X5845714Y-6590714D01*
X5874286Y-6576429D01*
X5945714Y-6576429D01*
X5974286Y-6562143D01*
X6117143Y-6490714D02*
X6117143Y-6790714D01*
X6117143Y-6505000D02*
X6145714Y-6490714D01*
X6202857Y-6490714D01*
X6231428Y-6505000D01*
X6245714Y-6519286D01*
X6260000Y-6547857D01*
X6260000Y-6633571D01*
X6245714Y-6662143D01*
X6231428Y-6676429D01*
X6202857Y-6690714D01*
X6145714Y-6690714D01*
X6117143Y-6676429D01*
X6388571Y-6662143D02*
X6402857Y-6676429D01*
X6388571Y-6690714D01*
X6374286Y-6676429D01*
X6388571Y-6662143D01*
X6388571Y-6690714D01*
X6388571Y-6505000D02*
X6402857Y-6519286D01*
X6388571Y-6533571D01*
X6374286Y-6519286D01*
X6388571Y-6505000D01*
X6388571Y-6533571D01*
X4005000Y-7165000D02*
X4045000Y-7205000D01*
X4045000Y-7165000D02*
X4005000Y-7205000D01*
X4388571Y-7020714D02*
X4417143Y-7020714D01*
X4445714Y-7035000D01*
X4460000Y-7049286D01*
X4474286Y-7077857D01*
X4488571Y-7135000D01*
X4488571Y-7206429D01*
X4474286Y-7263571D01*
X4460000Y-7292143D01*
X4445714Y-7306429D01*
X4417143Y-7320714D01*
X4388571Y-7320714D01*
X4360000Y-7306429D01*
X4345714Y-7292143D01*
X4331428Y-7263571D01*
X4317143Y-7206429D01*
X4317143Y-7135000D01*
X4331428Y-7077857D01*
X4345714Y-7049286D01*
X4360000Y-7035000D01*
X4388571Y-7020714D01*
X4617143Y-7292143D02*
X4631428Y-7306429D01*
X4617143Y-7320714D01*
X4602857Y-7306429D01*
X4617143Y-7292143D01*
X4617143Y-7320714D01*
X4888571Y-7120714D02*
X4888571Y-7320714D01*
X4817143Y-7006429D02*
X4745714Y-7220714D01*
X4931428Y-7220714D01*
X5102857Y-7020714D02*
X5131428Y-7020714D01*
X5160000Y-7035000D01*
X5174286Y-7049286D01*
X5188571Y-7077857D01*
X5202857Y-7135000D01*
X5202857Y-7206429D01*
X5188571Y-7263571D01*
X5174286Y-7292143D01*
X5160000Y-7306429D01*
X5131428Y-7320714D01*
X5102857Y-7320714D01*
X5074286Y-7306429D01*
X5060000Y-7292143D01*
X5045714Y-7263571D01*
X5031428Y-7206429D01*
X5031428Y-7135000D01*
X5045714Y-7077857D01*
X5060000Y-7049286D01*
X5074286Y-7035000D01*
X5102857Y-7020714D01*
X5331428Y-7320714D02*
X5331428Y-7120714D01*
X5331428Y-7149286D02*
X5345714Y-7135000D01*
X5374286Y-7120714D01*
X5417143Y-7120714D01*
X5445714Y-7135000D01*
X5460000Y-7163571D01*
X5460000Y-7320714D01*
X5460000Y-7163571D02*
X5474286Y-7135000D01*
X5502857Y-7120714D01*
X5545714Y-7120714D01*
X5574286Y-7135000D01*
X5588571Y-7163571D01*
X5588571Y-7320714D01*
X5731428Y-7320714D02*
X5731428Y-7120714D01*
X5731428Y-7149286D02*
X5745714Y-7135000D01*
X5774286Y-7120714D01*
X5817143Y-7120714D01*
X5845714Y-7135000D01*
X5860000Y-7163571D01*
X5860000Y-7320714D01*
X5860000Y-7163571D02*
X5874286Y-7135000D01*
X5902857Y-7120714D01*
X5945714Y-7120714D01*
X5974286Y-7135000D01*
X5988571Y-7163571D01*
X5988571Y-7320714D01*
X6574286Y-7006429D02*
X6317143Y-7392143D01*
X6960000Y-7020714D02*
X6988571Y-7020714D01*
X7017143Y-7035000D01*
X7031428Y-7049286D01*
X7045714Y-7077857D01*
X7060000Y-7135000D01*
X7060000Y-7206429D01*
X7045714Y-7263571D01*
X7031428Y-7292143D01*
X7017143Y-7306429D01*
X6988571Y-7320714D01*
X6960000Y-7320714D01*
X6931428Y-7306429D01*
X6917143Y-7292143D01*
X6902857Y-7263571D01*
X6888571Y-7206429D01*
X6888571Y-7135000D01*
X6902857Y-7077857D01*
X6917143Y-7049286D01*
X6931428Y-7035000D01*
X6960000Y-7020714D01*
X7188571Y-7292143D02*
X7202857Y-7306429D01*
X7188571Y-7320714D01*
X7174286Y-7306429D01*
X7188571Y-7292143D01*
X7188571Y-7320714D01*
X7388571Y-7020714D02*
X7417143Y-7020714D01*
X7445714Y-7035000D01*
X7460000Y-7049286D01*
X7474286Y-7077857D01*
X7488571Y-7135000D01*
X7488571Y-7206429D01*
X7474286Y-7263571D01*
X7460000Y-7292143D01*
X7445714Y-7306429D01*
X7417143Y-7320714D01*
X7388571Y-7320714D01*
X7360000Y-7306429D01*
X7345714Y-7292143D01*
X7331428Y-7263571D01*
X7317143Y-7206429D01*
X7317143Y-7135000D01*
X7331428Y-7077857D01*
X7345714Y-7049286D01*
X7360000Y-7035000D01*
X7388571Y-7020714D01*
X7774286Y-7320714D02*
X7602857Y-7320714D01*
X7688571Y-7320714D02*
X7688571Y-7020714D01*
X7660000Y-7063571D01*
X7631428Y-7092143D01*
X7602857Y-7106429D01*
X8031428Y-7020714D02*
X7974286Y-7020714D01*
X7945714Y-7035000D01*
X7931428Y-7049286D01*
X7902857Y-7092143D01*
X7888571Y-7149286D01*
X7888571Y-7263571D01*
X7902857Y-7292143D01*
X7917143Y-7306429D01*
X7945714Y-7320714D01*
X8002857Y-7320714D01*
X8031428Y-7306429D01*
X8045714Y-7292143D01*
X8060000Y-7263571D01*
X8060000Y-7192143D01*
X8045714Y-7163571D01*
X8031428Y-7149286D01*
X8002857Y-7135000D01*
X7945714Y-7135000D01*
X7917143Y-7149286D01*
X7902857Y-7163571D01*
X7888571Y-7192143D01*
X8174286Y-7020714D02*
X8174286Y-7077857D01*
X8288571Y-7020714D02*
X8288571Y-7077857D01*
X8731428Y-7435000D02*
X8717143Y-7420714D01*
X8688571Y-7377857D01*
X8674286Y-7349286D01*
X8660000Y-7306429D01*
X8645714Y-7235000D01*
X8645714Y-7177857D01*
X8660000Y-7106429D01*
X8674286Y-7063571D01*
X8688571Y-7035000D01*
X8717143Y-6992143D01*
X8731428Y-6977857D01*
X8817143Y-7020714D02*
X9002857Y-7020714D01*
X8902857Y-7135000D01*
X8945714Y-7135000D01*
X8974286Y-7149286D01*
X8988571Y-7163571D01*
X9002857Y-7192143D01*
X9002857Y-7263571D01*
X8988571Y-7292143D01*
X8974286Y-7306429D01*
X8945714Y-7320714D01*
X8860000Y-7320714D01*
X8831428Y-7306429D01*
X8817143Y-7292143D01*
X9360000Y-7320714D02*
X9360000Y-7020714D01*
X9488571Y-7320714D02*
X9488571Y-7163571D01*
X9474286Y-7135000D01*
X9445714Y-7120714D01*
X9402857Y-7120714D01*
X9374286Y-7135000D01*
X9360000Y-7149286D01*
X9674286Y-7320714D02*
X9645714Y-7306429D01*
X9631428Y-7292143D01*
X9617143Y-7263571D01*
X9617143Y-7177857D01*
X9631428Y-7149286D01*
X9645714Y-7135000D01*
X9674286Y-7120714D01*
X9717143Y-7120714D01*
X9745714Y-7135000D01*
X9760000Y-7149286D01*
X9774286Y-7177857D01*
X9774286Y-7263571D01*
X9760000Y-7292143D01*
X9745714Y-7306429D01*
X9717143Y-7320714D01*
X9674286Y-7320714D01*
X9945714Y-7320714D02*
X9917143Y-7306429D01*
X9902857Y-7277857D01*
X9902857Y-7020714D01*
X10174286Y-7306429D02*
X10145714Y-7320714D01*
X10088571Y-7320714D01*
X10060000Y-7306429D01*
X10045714Y-7277857D01*
X10045714Y-7163571D01*
X10060000Y-7135000D01*
X10088571Y-7120714D01*
X10145714Y-7120714D01*
X10174286Y-7135000D01*
X10188571Y-7163571D01*
X10188571Y-7192143D01*
X10045714Y-7220714D01*
X10302857Y-7306429D02*
X10331428Y-7320714D01*
X10388571Y-7320714D01*
X10417143Y-7306429D01*
X10431428Y-7277857D01*
X10431428Y-7263571D01*
X10417143Y-7235000D01*
X10388571Y-7220714D01*
X10345714Y-7220714D01*
X10317143Y-7206429D01*
X10302857Y-7177857D01*
X10302857Y-7163571D01*
X10317143Y-7135000D01*
X10345714Y-7120714D01*
X10388571Y-7120714D01*
X10417143Y-7135000D01*
X10531428Y-7435000D02*
X10545714Y-7420714D01*
X10574286Y-7377857D01*
X10588571Y-7349286D01*
X10602857Y-7306429D01*
X10617143Y-7235000D01*
X10617143Y-7177857D01*
X10602857Y-7106429D01*
X10588571Y-7063571D01*
X10574286Y-7035000D01*
X10545714Y-6992143D01*
X10531428Y-6977857D01*
X4045000Y-7581000D02*
G75*
G03*
X4045000Y-7581000I-50800J0D01*
G01*
X4488571Y-7716714D02*
X4317143Y-7716714D01*
X4402857Y-7716714D02*
X4402857Y-7416714D01*
X4374286Y-7459571D01*
X4345714Y-7488143D01*
X4317143Y-7502429D01*
X4617143Y-7688143D02*
X4631428Y-7702429D01*
X4617143Y-7716714D01*
X4602857Y-7702429D01*
X4617143Y-7688143D01*
X4617143Y-7716714D01*
X4817143Y-7416714D02*
X4845714Y-7416714D01*
X4874286Y-7431000D01*
X4888571Y-7445286D01*
X4902857Y-7473857D01*
X4917143Y-7531000D01*
X4917143Y-7602429D01*
X4902857Y-7659571D01*
X4888571Y-7688143D01*
X4874286Y-7702429D01*
X4845714Y-7716714D01*
X4817143Y-7716714D01*
X4788571Y-7702429D01*
X4774286Y-7688143D01*
X4760000Y-7659571D01*
X4745714Y-7602429D01*
X4745714Y-7531000D01*
X4760000Y-7473857D01*
X4774286Y-7445286D01*
X4788571Y-7431000D01*
X4817143Y-7416714D01*
X5031428Y-7445286D02*
X5045714Y-7431000D01*
X5074286Y-7416714D01*
X5145714Y-7416714D01*
X5174286Y-7431000D01*
X5188571Y-7445286D01*
X5202857Y-7473857D01*
X5202857Y-7502429D01*
X5188571Y-7545286D01*
X5017143Y-7716714D01*
X5202857Y-7716714D01*
X5331428Y-7716714D02*
X5331428Y-7516714D01*
X5331428Y-7545286D02*
X5345714Y-7531000D01*
X5374286Y-7516714D01*
X5417143Y-7516714D01*
X5445714Y-7531000D01*
X5460000Y-7559571D01*
X5460000Y-7716714D01*
X5460000Y-7559571D02*
X5474286Y-7531000D01*
X5502857Y-7516714D01*
X5545714Y-7516714D01*
X5574286Y-7531000D01*
X5588571Y-7559571D01*
X5588571Y-7716714D01*
X5731428Y-7716714D02*
X5731428Y-7516714D01*
X5731428Y-7545286D02*
X5745714Y-7531000D01*
X5774286Y-7516714D01*
X5817143Y-7516714D01*
X5845714Y-7531000D01*
X5860000Y-7559571D01*
X5860000Y-7716714D01*
X5860000Y-7559571D02*
X5874286Y-7531000D01*
X5902857Y-7516714D01*
X5945714Y-7516714D01*
X5974286Y-7531000D01*
X5988571Y-7559571D01*
X5988571Y-7716714D01*
X6574286Y-7402429D02*
X6317143Y-7788143D01*
X6960000Y-7416714D02*
X6988571Y-7416714D01*
X7017143Y-7431000D01*
X7031428Y-7445286D01*
X7045714Y-7473857D01*
X7060000Y-7531000D01*
X7060000Y-7602429D01*
X7045714Y-7659571D01*
X7031428Y-7688143D01*
X7017143Y-7702429D01*
X6988571Y-7716714D01*
X6960000Y-7716714D01*
X6931428Y-7702429D01*
X6917143Y-7688143D01*
X6902857Y-7659571D01*
X6888571Y-7602429D01*
X6888571Y-7531000D01*
X6902857Y-7473857D01*
X6917143Y-7445286D01*
X6931428Y-7431000D01*
X6960000Y-7416714D01*
X7188571Y-7688143D02*
X7202857Y-7702429D01*
X7188571Y-7716714D01*
X7174286Y-7702429D01*
X7188571Y-7688143D01*
X7188571Y-7716714D01*
X7388571Y-7416714D02*
X7417143Y-7416714D01*
X7445714Y-7431000D01*
X7460000Y-7445286D01*
X7474286Y-7473857D01*
X7488571Y-7531000D01*
X7488571Y-7602429D01*
X7474286Y-7659571D01*
X7460000Y-7688143D01*
X7445714Y-7702429D01*
X7417143Y-7716714D01*
X7388571Y-7716714D01*
X7360000Y-7702429D01*
X7345714Y-7688143D01*
X7331428Y-7659571D01*
X7317143Y-7602429D01*
X7317143Y-7531000D01*
X7331428Y-7473857D01*
X7345714Y-7445286D01*
X7360000Y-7431000D01*
X7388571Y-7416714D01*
X7745714Y-7516714D02*
X7745714Y-7716714D01*
X7674286Y-7402429D02*
X7602857Y-7616714D01*
X7788571Y-7616714D01*
X7960000Y-7416714D02*
X7988571Y-7416714D01*
X8017143Y-7431000D01*
X8031428Y-7445286D01*
X8045714Y-7473857D01*
X8060000Y-7531000D01*
X8060000Y-7602429D01*
X8045714Y-7659571D01*
X8031428Y-7688143D01*
X8017143Y-7702429D01*
X7988571Y-7716714D01*
X7960000Y-7716714D01*
X7931428Y-7702429D01*
X7917143Y-7688143D01*
X7902857Y-7659571D01*
X7888571Y-7602429D01*
X7888571Y-7531000D01*
X7902857Y-7473857D01*
X7917143Y-7445286D01*
X7931428Y-7431000D01*
X7960000Y-7416714D01*
X8174286Y-7416714D02*
X8174286Y-7473857D01*
X8288571Y-7416714D02*
X8288571Y-7473857D01*
X8731428Y-7831000D02*
X8717143Y-7816714D01*
X8688571Y-7773857D01*
X8674286Y-7745286D01*
X8660000Y-7702429D01*
X8645714Y-7631000D01*
X8645714Y-7573857D01*
X8660000Y-7502429D01*
X8674286Y-7459571D01*
X8688571Y-7431000D01*
X8717143Y-7388143D01*
X8731428Y-7373857D01*
X8831428Y-7445286D02*
X8845714Y-7431000D01*
X8874286Y-7416714D01*
X8945714Y-7416714D01*
X8974286Y-7431000D01*
X8988571Y-7445286D01*
X9002857Y-7473857D01*
X9002857Y-7502429D01*
X8988571Y-7545286D01*
X8817143Y-7716714D01*
X9002857Y-7716714D01*
X9102857Y-7416714D02*
X9302857Y-7416714D01*
X9174286Y-7716714D01*
X9645714Y-7716714D02*
X9645714Y-7416714D01*
X9774286Y-7716714D02*
X9774286Y-7559571D01*
X9760000Y-7531000D01*
X9731428Y-7516714D01*
X9688571Y-7516714D01*
X9660000Y-7531000D01*
X9645714Y-7545286D01*
X9960000Y-7716714D02*
X9931428Y-7702429D01*
X9917143Y-7688143D01*
X9902857Y-7659571D01*
X9902857Y-7573857D01*
X9917143Y-7545286D01*
X9931428Y-7531000D01*
X9960000Y-7516714D01*
X10002857Y-7516714D01*
X10031428Y-7531000D01*
X10045714Y-7545286D01*
X10060000Y-7573857D01*
X10060000Y-7659571D01*
X10045714Y-7688143D01*
X10031428Y-7702429D01*
X10002857Y-7716714D01*
X9960000Y-7716714D01*
X10231428Y-7716714D02*
X10202857Y-7702429D01*
X10188571Y-7673857D01*
X10188571Y-7416714D01*
X10460000Y-7702429D02*
X10431428Y-7716714D01*
X10374286Y-7716714D01*
X10345714Y-7702429D01*
X10331428Y-7673857D01*
X10331428Y-7559571D01*
X10345714Y-7531000D01*
X10374286Y-7516714D01*
X10431428Y-7516714D01*
X10460000Y-7531000D01*
X10474286Y-7559571D01*
X10474286Y-7588143D01*
X10331428Y-7616714D01*
X10588571Y-7702429D02*
X10617143Y-7716714D01*
X10674286Y-7716714D01*
X10702857Y-7702429D01*
X10717143Y-7673857D01*
X10717143Y-7659571D01*
X10702857Y-7631000D01*
X10674286Y-7616714D01*
X10631428Y-7616714D01*
X10602857Y-7602429D01*
X10588571Y-7573857D01*
X10588571Y-7559571D01*
X10602857Y-7531000D01*
X10631428Y-7516714D01*
X10674286Y-7516714D01*
X10702857Y-7531000D01*
X10817143Y-7831000D02*
X10831428Y-7816714D01*
X10860000Y-7773857D01*
X10874286Y-7745286D01*
X10888571Y-7702429D01*
X10902857Y-7631000D01*
X10902857Y-7573857D01*
X10888571Y-7502429D01*
X10874286Y-7459571D01*
X10860000Y-7431000D01*
X10831428Y-7388143D01*
X10817143Y-7373857D01*
M02*
