G04 #@! TF.GenerationSoftware,KiCad,Pcbnew,(5.1.8)-1*
G04 #@! TF.CreationDate,2021-08-08T18:23:10-04:00*
G04 #@! TF.ProjectId,nearless_front_pcb,6e656172-6c65-4737-935f-66726f6e745f,rev?*
G04 #@! TF.SameCoordinates,Original*
G04 #@! TF.FileFunction,Legend,Top*
G04 #@! TF.FilePolarity,Positive*
%FSLAX46Y46*%
G04 Gerber Fmt 4.6, Leading zero omitted, Abs format (unit mm)*
G04 Created by KiCad (PCBNEW (5.1.8)-1) date 2021-08-08 18:23:10*
%MOMM*%
%LPD*%
G01*
G04 APERTURE LIST*
%ADD10C,0.120000*%
%ADD11C,0.150000*%
%ADD12C,1.727200*%
G04 APERTURE END LIST*
D10*
X46841641Y-46800000D02*
G75*
G03*
X46841641Y-46800000I-1341641J0D01*
G01*
D11*
X50000000Y-52800000D02*
X41000000Y-52800000D01*
X41000000Y-52800000D02*
X41000000Y-42300000D01*
X41000000Y-42300000D02*
X50000000Y-42300000D01*
X50000000Y-42300000D02*
X50000000Y-52800000D01*
X48500000Y-46800000D02*
G75*
G03*
X48500000Y-46800000I-3000000J0D01*
G01*
D10*
X86841641Y-46800000D02*
G75*
G03*
X86841641Y-46800000I-1341641J0D01*
G01*
D11*
X90000000Y-52800000D02*
X81000000Y-52800000D01*
X81000000Y-52800000D02*
X81000000Y-42300000D01*
X81000000Y-42300000D02*
X90000000Y-42300000D01*
X90000000Y-42300000D02*
X90000000Y-52800000D01*
X88500000Y-46800000D02*
G75*
G03*
X88500000Y-46800000I-3000000J0D01*
G01*
D10*
X73341641Y-57600000D02*
G75*
G03*
X73341641Y-57600000I-1341641J0D01*
G01*
D11*
X66000000Y-62100000D02*
X66000000Y-53100000D01*
X66000000Y-53100000D02*
X76500000Y-53100000D01*
X76500000Y-53100000D02*
X76500000Y-62100000D01*
X76500000Y-62100000D02*
X66000000Y-62100000D01*
X75000000Y-57600000D02*
G75*
G03*
X75000000Y-57600000I-3000000J0D01*
G01*
D10*
X76841641Y-46800000D02*
G75*
G03*
X76841641Y-46800000I-1341641J0D01*
G01*
D11*
X80000000Y-52800000D02*
X71000000Y-52800000D01*
X71000000Y-52800000D02*
X71000000Y-42300000D01*
X71000000Y-42300000D02*
X80000000Y-42300000D01*
X80000000Y-42300000D02*
X80000000Y-52800000D01*
X78500000Y-46800000D02*
G75*
G03*
X78500000Y-46800000I-3000000J0D01*
G01*
D10*
X66841641Y-46800000D02*
G75*
G03*
X66841641Y-46800000I-1341641J0D01*
G01*
D11*
X70000000Y-52800000D02*
X61000000Y-52800000D01*
X61000000Y-52800000D02*
X61000000Y-42300000D01*
X61000000Y-42300000D02*
X70000000Y-42300000D01*
X70000000Y-42300000D02*
X70000000Y-52800000D01*
X68500000Y-46800000D02*
G75*
G03*
X68500000Y-46800000I-3000000J0D01*
G01*
D10*
X56841641Y-46800000D02*
G75*
G03*
X56841641Y-46800000I-1341641J0D01*
G01*
D11*
X60000000Y-52800000D02*
X51000000Y-52800000D01*
X51000000Y-52800000D02*
X51000000Y-42300000D01*
X51000000Y-42300000D02*
X60000000Y-42300000D01*
X60000000Y-42300000D02*
X60000000Y-52800000D01*
X58500000Y-46800000D02*
G75*
G03*
X58500000Y-46800000I-3000000J0D01*
G01*
D10*
X60341641Y-57600000D02*
G75*
G03*
X60341641Y-57600000I-1341641J0D01*
G01*
D11*
X65000000Y-53100000D02*
X65000000Y-62100000D01*
X65000000Y-62100000D02*
X54500000Y-62100000D01*
X54500000Y-62100000D02*
X54500000Y-53100000D01*
X54500000Y-53100000D02*
X65000000Y-53100000D01*
X62000000Y-57600000D02*
G75*
G03*
X62000000Y-57600000I-3000000J0D01*
G01*
X48450000Y-40834285D02*
X48450000Y-41370000D01*
X48414285Y-41477142D01*
X48342857Y-41548571D01*
X48235714Y-41584285D01*
X48164285Y-41584285D01*
X48771428Y-40905714D02*
X48807142Y-40870000D01*
X48878571Y-40834285D01*
X49057142Y-40834285D01*
X49128571Y-40870000D01*
X49164285Y-40905714D01*
X49200000Y-40977142D01*
X49200000Y-41048571D01*
X49164285Y-41155714D01*
X48735714Y-41584285D01*
X49200000Y-41584285D01*
X88450000Y-40834285D02*
X88450000Y-41370000D01*
X88414285Y-41477142D01*
X88342857Y-41548571D01*
X88235714Y-41584285D01*
X88164285Y-41584285D01*
X89128571Y-40834285D02*
X88985714Y-40834285D01*
X88914285Y-40870000D01*
X88878571Y-40905714D01*
X88807142Y-41012857D01*
X88771428Y-41155714D01*
X88771428Y-41441428D01*
X88807142Y-41512857D01*
X88842857Y-41548571D01*
X88914285Y-41584285D01*
X89057142Y-41584285D01*
X89128571Y-41548571D01*
X89164285Y-41512857D01*
X89200000Y-41441428D01*
X89200000Y-41262857D01*
X89164285Y-41191428D01*
X89128571Y-41155714D01*
X89057142Y-41120000D01*
X88914285Y-41120000D01*
X88842857Y-41155714D01*
X88807142Y-41191428D01*
X88771428Y-41262857D01*
X79844285Y-57850000D02*
X80380000Y-57850000D01*
X80487142Y-57885714D01*
X80558571Y-57957142D01*
X80594285Y-58064285D01*
X80594285Y-58135714D01*
X79844285Y-57564285D02*
X79844285Y-57064285D01*
X80594285Y-57385714D01*
X78450000Y-40834285D02*
X78450000Y-41370000D01*
X78414285Y-41477142D01*
X78342857Y-41548571D01*
X78235714Y-41584285D01*
X78164285Y-41584285D01*
X79164285Y-40834285D02*
X78807142Y-40834285D01*
X78771428Y-41191428D01*
X78807142Y-41155714D01*
X78878571Y-41120000D01*
X79057142Y-41120000D01*
X79128571Y-41155714D01*
X79164285Y-41191428D01*
X79200000Y-41262857D01*
X79200000Y-41441428D01*
X79164285Y-41512857D01*
X79128571Y-41548571D01*
X79057142Y-41584285D01*
X78878571Y-41584285D01*
X78807142Y-41548571D01*
X78771428Y-41512857D01*
X68450000Y-40834285D02*
X68450000Y-41370000D01*
X68414285Y-41477142D01*
X68342857Y-41548571D01*
X68235714Y-41584285D01*
X68164285Y-41584285D01*
X69128571Y-41084285D02*
X69128571Y-41584285D01*
X68950000Y-40798571D02*
X68771428Y-41334285D01*
X69235714Y-41334285D01*
X58450000Y-40834285D02*
X58450000Y-41370000D01*
X58414285Y-41477142D01*
X58342857Y-41548571D01*
X58235714Y-41584285D01*
X58164285Y-41584285D01*
X58735714Y-40834285D02*
X59200000Y-40834285D01*
X58950000Y-41120000D01*
X59057142Y-41120000D01*
X59128571Y-41155714D01*
X59164285Y-41191428D01*
X59200000Y-41262857D01*
X59200000Y-41441428D01*
X59164285Y-41512857D01*
X59128571Y-41548571D01*
X59057142Y-41584285D01*
X58842857Y-41584285D01*
X58771428Y-41548571D01*
X58735714Y-41512857D01*
X50334285Y-57850000D02*
X50870000Y-57850000D01*
X50977142Y-57885714D01*
X51048571Y-57957142D01*
X51084285Y-58064285D01*
X51084285Y-58135714D01*
X51084285Y-57100000D02*
X51084285Y-57528571D01*
X51084285Y-57314285D02*
X50334285Y-57314285D01*
X50441428Y-57385714D01*
X50512857Y-57457142D01*
X50548571Y-57528571D01*
%LPC*%
D12*
X45500000Y-51245000D03*
X45500000Y-43625000D03*
X45500000Y-41085000D03*
X85500000Y-51245000D03*
X85500000Y-43625000D03*
X85500000Y-41085000D03*
X42500000Y-53920000D03*
X42500000Y-56460000D03*
X42500000Y-59000000D03*
X88500000Y-59000000D03*
X88500000Y-56460000D03*
X88500000Y-53920000D03*
X67555000Y-57600000D03*
X75175000Y-57600000D03*
X77715000Y-57600000D03*
X75500000Y-51245000D03*
X75500000Y-43625000D03*
X75500000Y-41085000D03*
X65500000Y-51245000D03*
X65500000Y-43625000D03*
X65500000Y-41085000D03*
X55500000Y-51245000D03*
X55500000Y-43625000D03*
X55500000Y-41085000D03*
X63445000Y-57600000D03*
X55825000Y-57600000D03*
X53285000Y-57600000D03*
M02*
