%FSLAX45Y45*%
G04 Gerber Fmt 4.5, Leading zero omitted, Abs format (unit mm)*
G04 Created by KiCad (PCBNEW (5.1.8)-1) date 2021-08-08 18:21:08*
%MOMM*%
%LPD*%
G01*
G04 APERTURE LIST*
%TA.AperFunction,Profile*%
%ADD10C,0.100000*%
%TD*%
%ADD11C,0.200000*%
%ADD12C,0.300000*%
G04 APERTURE END LIST*
D10*
X14750000Y-6220000D02*
X14750000Y-6200000D01*
X9750000Y-6220000D02*
X9750000Y-6200000D01*
X14750000Y-4000000D02*
X9750000Y-4000000D01*
X14750000Y-6200000D02*
X14750000Y-4000000D01*
X9750000Y-6220000D02*
X14750000Y-6220000D01*
X9750000Y-4000000D02*
X9750000Y-6200000D01*
D11*
X10590000Y-4770000D02*
X10630000Y-4810000D01*
X10630000Y-4770000D02*
X10590000Y-4810000D01*
X10970500Y-4996000D02*
X11010500Y-5036000D01*
X11010500Y-4996000D02*
X10970500Y-5036000D01*
X11520000Y-4770000D02*
X11560000Y-4810000D01*
X11560000Y-4770000D02*
X11520000Y-4810000D01*
X12280000Y-4499000D02*
X12320000Y-4539000D01*
X12320000Y-4499000D02*
X12280000Y-4539000D01*
X12890000Y-4499000D02*
X12930000Y-4539000D01*
X12930000Y-4499000D02*
X12890000Y-4539000D01*
X13380000Y-4490000D02*
X13420000Y-4530000D01*
X13420000Y-4490000D02*
X13380000Y-4530000D01*
X13750000Y-4770000D02*
X13790000Y-4810000D01*
X13790000Y-4770000D02*
X13750000Y-4810000D01*
X13870000Y-4990000D02*
X13910000Y-5030000D01*
X13910000Y-4990000D02*
X13870000Y-5030000D01*
X14360000Y-5620000D02*
X14400000Y-5660000D01*
X14400000Y-5620000D02*
X14360000Y-5660000D01*
X14600800Y-5392000D02*
G75*
G03*
X14600800Y-5392000I-50800J0D01*
G01*
X14600800Y-5646000D02*
G75*
G03*
X14600800Y-5646000I-50800J0D01*
G01*
X14600800Y-5900000D02*
G75*
G03*
X14600800Y-5900000I-50800J0D01*
G01*
X11792800Y-5524000D02*
G75*
G03*
X11792800Y-5524000I-50800J0D01*
G01*
X11792800Y-5778000D02*
G75*
G03*
X11792800Y-5778000I-50800J0D01*
G01*
X12046800Y-5524000D02*
G75*
G03*
X12046800Y-5524000I-50800J0D01*
G01*
X12046800Y-5778000D02*
G75*
G03*
X12046800Y-5778000I-50800J0D01*
G01*
X12300800Y-5524000D02*
G75*
G03*
X12300800Y-5524000I-50800J0D01*
G01*
X12300800Y-5778000D02*
G75*
G03*
X12300800Y-5778000I-50800J0D01*
G01*
X12554800Y-5524000D02*
G75*
G03*
X12554800Y-5524000I-50800J0D01*
G01*
X12554800Y-5778000D02*
G75*
G03*
X12554800Y-5778000I-50800J0D01*
G01*
X12808800Y-5524000D02*
G75*
G03*
X12808800Y-5524000I-50800J0D01*
G01*
X12808800Y-5778000D02*
G75*
G03*
X12808800Y-5778000I-50800J0D01*
G01*
X14600800Y-4250000D02*
G75*
G03*
X14600800Y-4250000I-50800J0D01*
G01*
X14600800Y-4504000D02*
G75*
G03*
X14600800Y-4504000I-50800J0D01*
G01*
X14600800Y-4758000D02*
G75*
G03*
X14600800Y-4758000I-50800J0D01*
G01*
X10000800Y-4246000D02*
G75*
G03*
X10000800Y-4246000I-50800J0D01*
G01*
X10000800Y-4500000D02*
G75*
G03*
X10000800Y-4500000I-50800J0D01*
G01*
X10000800Y-4754000D02*
G75*
G03*
X10000800Y-4754000I-50800J0D01*
G01*
X10000800Y-5392000D02*
G75*
G03*
X10000800Y-5392000I-50800J0D01*
G01*
X10000800Y-5646000D02*
G75*
G03*
X10000800Y-5646000I-50800J0D01*
G01*
X10000800Y-5900000D02*
G75*
G03*
X10000800Y-5900000I-50800J0D01*
G01*
D12*
X10031428Y-6690714D02*
X10031428Y-6390714D01*
X10102857Y-6390714D01*
X10145714Y-6405000D01*
X10174286Y-6433571D01*
X10188571Y-6462143D01*
X10202857Y-6519286D01*
X10202857Y-6562143D01*
X10188571Y-6619286D01*
X10174286Y-6647857D01*
X10145714Y-6676429D01*
X10102857Y-6690714D01*
X10031428Y-6690714D01*
X10331428Y-6690714D02*
X10331428Y-6490714D01*
X10331428Y-6547857D02*
X10345714Y-6519286D01*
X10360000Y-6505000D01*
X10388571Y-6490714D01*
X10417143Y-6490714D01*
X10517143Y-6690714D02*
X10517143Y-6490714D01*
X10517143Y-6390714D02*
X10502857Y-6405000D01*
X10517143Y-6419286D01*
X10531428Y-6405000D01*
X10517143Y-6390714D01*
X10517143Y-6419286D01*
X10702857Y-6690714D02*
X10674286Y-6676429D01*
X10660000Y-6647857D01*
X10660000Y-6390714D01*
X10860000Y-6690714D02*
X10831428Y-6676429D01*
X10817143Y-6647857D01*
X10817143Y-6390714D01*
X11202857Y-6690714D02*
X11202857Y-6390714D01*
X11302857Y-6605000D01*
X11402857Y-6390714D01*
X11402857Y-6690714D01*
X11674286Y-6690714D02*
X11674286Y-6533571D01*
X11660000Y-6505000D01*
X11631428Y-6490714D01*
X11574286Y-6490714D01*
X11545714Y-6505000D01*
X11674286Y-6676429D02*
X11645714Y-6690714D01*
X11574286Y-6690714D01*
X11545714Y-6676429D01*
X11531428Y-6647857D01*
X11531428Y-6619286D01*
X11545714Y-6590714D01*
X11574286Y-6576429D01*
X11645714Y-6576429D01*
X11674286Y-6562143D01*
X11817143Y-6490714D02*
X11817143Y-6790714D01*
X11817143Y-6505000D02*
X11845714Y-6490714D01*
X11902857Y-6490714D01*
X11931428Y-6505000D01*
X11945714Y-6519286D01*
X11960000Y-6547857D01*
X11960000Y-6633571D01*
X11945714Y-6662143D01*
X11931428Y-6676429D01*
X11902857Y-6690714D01*
X11845714Y-6690714D01*
X11817143Y-6676429D01*
X12088571Y-6662143D02*
X12102857Y-6676429D01*
X12088571Y-6690714D01*
X12074286Y-6676429D01*
X12088571Y-6662143D01*
X12088571Y-6690714D01*
X12088571Y-6505000D02*
X12102857Y-6519286D01*
X12088571Y-6533571D01*
X12074286Y-6519286D01*
X12088571Y-6505000D01*
X12088571Y-6533571D01*
X9705000Y-7165000D02*
X9745000Y-7205000D01*
X9745000Y-7165000D02*
X9705000Y-7205000D01*
X10088571Y-7020714D02*
X10117143Y-7020714D01*
X10145714Y-7035000D01*
X10160000Y-7049286D01*
X10174286Y-7077857D01*
X10188571Y-7135000D01*
X10188571Y-7206429D01*
X10174286Y-7263571D01*
X10160000Y-7292143D01*
X10145714Y-7306429D01*
X10117143Y-7320714D01*
X10088571Y-7320714D01*
X10060000Y-7306429D01*
X10045714Y-7292143D01*
X10031428Y-7263571D01*
X10017143Y-7206429D01*
X10017143Y-7135000D01*
X10031428Y-7077857D01*
X10045714Y-7049286D01*
X10060000Y-7035000D01*
X10088571Y-7020714D01*
X10317143Y-7292143D02*
X10331428Y-7306429D01*
X10317143Y-7320714D01*
X10302857Y-7306429D01*
X10317143Y-7292143D01*
X10317143Y-7320714D01*
X10588571Y-7120714D02*
X10588571Y-7320714D01*
X10517143Y-7006429D02*
X10445714Y-7220714D01*
X10631428Y-7220714D01*
X10802857Y-7020714D02*
X10831428Y-7020714D01*
X10860000Y-7035000D01*
X10874286Y-7049286D01*
X10888571Y-7077857D01*
X10902857Y-7135000D01*
X10902857Y-7206429D01*
X10888571Y-7263571D01*
X10874286Y-7292143D01*
X10860000Y-7306429D01*
X10831428Y-7320714D01*
X10802857Y-7320714D01*
X10774286Y-7306429D01*
X10760000Y-7292143D01*
X10745714Y-7263571D01*
X10731428Y-7206429D01*
X10731428Y-7135000D01*
X10745714Y-7077857D01*
X10760000Y-7049286D01*
X10774286Y-7035000D01*
X10802857Y-7020714D01*
X11031428Y-7320714D02*
X11031428Y-7120714D01*
X11031428Y-7149286D02*
X11045714Y-7135000D01*
X11074286Y-7120714D01*
X11117143Y-7120714D01*
X11145714Y-7135000D01*
X11160000Y-7163571D01*
X11160000Y-7320714D01*
X11160000Y-7163571D02*
X11174286Y-7135000D01*
X11202857Y-7120714D01*
X11245714Y-7120714D01*
X11274286Y-7135000D01*
X11288571Y-7163571D01*
X11288571Y-7320714D01*
X11431428Y-7320714D02*
X11431428Y-7120714D01*
X11431428Y-7149286D02*
X11445714Y-7135000D01*
X11474286Y-7120714D01*
X11517143Y-7120714D01*
X11545714Y-7135000D01*
X11560000Y-7163571D01*
X11560000Y-7320714D01*
X11560000Y-7163571D02*
X11574286Y-7135000D01*
X11602857Y-7120714D01*
X11645714Y-7120714D01*
X11674286Y-7135000D01*
X11688571Y-7163571D01*
X11688571Y-7320714D01*
X12274286Y-7006429D02*
X12017143Y-7392143D01*
X12660000Y-7020714D02*
X12688571Y-7020714D01*
X12717143Y-7035000D01*
X12731428Y-7049286D01*
X12745714Y-7077857D01*
X12760000Y-7135000D01*
X12760000Y-7206429D01*
X12745714Y-7263571D01*
X12731428Y-7292143D01*
X12717143Y-7306429D01*
X12688571Y-7320714D01*
X12660000Y-7320714D01*
X12631428Y-7306429D01*
X12617143Y-7292143D01*
X12602857Y-7263571D01*
X12588571Y-7206429D01*
X12588571Y-7135000D01*
X12602857Y-7077857D01*
X12617143Y-7049286D01*
X12631428Y-7035000D01*
X12660000Y-7020714D01*
X12888571Y-7292143D02*
X12902857Y-7306429D01*
X12888571Y-7320714D01*
X12874286Y-7306429D01*
X12888571Y-7292143D01*
X12888571Y-7320714D01*
X13088571Y-7020714D02*
X13117143Y-7020714D01*
X13145714Y-7035000D01*
X13160000Y-7049286D01*
X13174286Y-7077857D01*
X13188571Y-7135000D01*
X13188571Y-7206429D01*
X13174286Y-7263571D01*
X13160000Y-7292143D01*
X13145714Y-7306429D01*
X13117143Y-7320714D01*
X13088571Y-7320714D01*
X13060000Y-7306429D01*
X13045714Y-7292143D01*
X13031428Y-7263571D01*
X13017143Y-7206429D01*
X13017143Y-7135000D01*
X13031428Y-7077857D01*
X13045714Y-7049286D01*
X13060000Y-7035000D01*
X13088571Y-7020714D01*
X13474286Y-7320714D02*
X13302857Y-7320714D01*
X13388571Y-7320714D02*
X13388571Y-7020714D01*
X13360000Y-7063571D01*
X13331428Y-7092143D01*
X13302857Y-7106429D01*
X13731428Y-7020714D02*
X13674286Y-7020714D01*
X13645714Y-7035000D01*
X13631428Y-7049286D01*
X13602857Y-7092143D01*
X13588571Y-7149286D01*
X13588571Y-7263571D01*
X13602857Y-7292143D01*
X13617143Y-7306429D01*
X13645714Y-7320714D01*
X13702857Y-7320714D01*
X13731428Y-7306429D01*
X13745714Y-7292143D01*
X13760000Y-7263571D01*
X13760000Y-7192143D01*
X13745714Y-7163571D01*
X13731428Y-7149286D01*
X13702857Y-7135000D01*
X13645714Y-7135000D01*
X13617143Y-7149286D01*
X13602857Y-7163571D01*
X13588571Y-7192143D01*
X13874286Y-7020714D02*
X13874286Y-7077857D01*
X13988571Y-7020714D02*
X13988571Y-7077857D01*
X14431428Y-7435000D02*
X14417143Y-7420714D01*
X14388571Y-7377857D01*
X14374286Y-7349286D01*
X14360000Y-7306429D01*
X14345714Y-7235000D01*
X14345714Y-7177857D01*
X14360000Y-7106429D01*
X14374286Y-7063571D01*
X14388571Y-7035000D01*
X14417143Y-6992143D01*
X14431428Y-6977857D01*
X14560000Y-7320714D02*
X14617143Y-7320714D01*
X14645714Y-7306429D01*
X14660000Y-7292143D01*
X14688571Y-7249286D01*
X14702857Y-7192143D01*
X14702857Y-7077857D01*
X14688571Y-7049286D01*
X14674286Y-7035000D01*
X14645714Y-7020714D01*
X14588571Y-7020714D01*
X14560000Y-7035000D01*
X14545714Y-7049286D01*
X14531428Y-7077857D01*
X14531428Y-7149286D01*
X14545714Y-7177857D01*
X14560000Y-7192143D01*
X14588571Y-7206429D01*
X14645714Y-7206429D01*
X14674286Y-7192143D01*
X14688571Y-7177857D01*
X14702857Y-7149286D01*
X15060000Y-7320714D02*
X15060000Y-7020714D01*
X15188571Y-7320714D02*
X15188571Y-7163571D01*
X15174286Y-7135000D01*
X15145714Y-7120714D01*
X15102857Y-7120714D01*
X15074286Y-7135000D01*
X15060000Y-7149286D01*
X15374286Y-7320714D02*
X15345714Y-7306429D01*
X15331428Y-7292143D01*
X15317143Y-7263571D01*
X15317143Y-7177857D01*
X15331428Y-7149286D01*
X15345714Y-7135000D01*
X15374286Y-7120714D01*
X15417143Y-7120714D01*
X15445714Y-7135000D01*
X15460000Y-7149286D01*
X15474286Y-7177857D01*
X15474286Y-7263571D01*
X15460000Y-7292143D01*
X15445714Y-7306429D01*
X15417143Y-7320714D01*
X15374286Y-7320714D01*
X15645714Y-7320714D02*
X15617143Y-7306429D01*
X15602857Y-7277857D01*
X15602857Y-7020714D01*
X15874286Y-7306429D02*
X15845714Y-7320714D01*
X15788571Y-7320714D01*
X15760000Y-7306429D01*
X15745714Y-7277857D01*
X15745714Y-7163571D01*
X15760000Y-7135000D01*
X15788571Y-7120714D01*
X15845714Y-7120714D01*
X15874286Y-7135000D01*
X15888571Y-7163571D01*
X15888571Y-7192143D01*
X15745714Y-7220714D01*
X16002857Y-7306429D02*
X16031428Y-7320714D01*
X16088571Y-7320714D01*
X16117143Y-7306429D01*
X16131428Y-7277857D01*
X16131428Y-7263571D01*
X16117143Y-7235000D01*
X16088571Y-7220714D01*
X16045714Y-7220714D01*
X16017143Y-7206429D01*
X16002857Y-7177857D01*
X16002857Y-7163571D01*
X16017143Y-7135000D01*
X16045714Y-7120714D01*
X16088571Y-7120714D01*
X16117143Y-7135000D01*
X16231428Y-7435000D02*
X16245714Y-7420714D01*
X16274286Y-7377857D01*
X16288571Y-7349286D01*
X16302857Y-7306429D01*
X16317143Y-7235000D01*
X16317143Y-7177857D01*
X16302857Y-7106429D01*
X16288571Y-7063571D01*
X16274286Y-7035000D01*
X16245714Y-6992143D01*
X16231428Y-6977857D01*
X9745000Y-7581000D02*
G75*
G03*
X9745000Y-7581000I-50800J0D01*
G01*
X10188571Y-7716714D02*
X10017143Y-7716714D01*
X10102857Y-7716714D02*
X10102857Y-7416714D01*
X10074286Y-7459571D01*
X10045714Y-7488143D01*
X10017143Y-7502429D01*
X10317143Y-7688143D02*
X10331428Y-7702429D01*
X10317143Y-7716714D01*
X10302857Y-7702429D01*
X10317143Y-7688143D01*
X10317143Y-7716714D01*
X10517143Y-7416714D02*
X10545714Y-7416714D01*
X10574286Y-7431000D01*
X10588571Y-7445286D01*
X10602857Y-7473857D01*
X10617143Y-7531000D01*
X10617143Y-7602429D01*
X10602857Y-7659571D01*
X10588571Y-7688143D01*
X10574286Y-7702429D01*
X10545714Y-7716714D01*
X10517143Y-7716714D01*
X10488571Y-7702429D01*
X10474286Y-7688143D01*
X10460000Y-7659571D01*
X10445714Y-7602429D01*
X10445714Y-7531000D01*
X10460000Y-7473857D01*
X10474286Y-7445286D01*
X10488571Y-7431000D01*
X10517143Y-7416714D01*
X10731428Y-7445286D02*
X10745714Y-7431000D01*
X10774286Y-7416714D01*
X10845714Y-7416714D01*
X10874286Y-7431000D01*
X10888571Y-7445286D01*
X10902857Y-7473857D01*
X10902857Y-7502429D01*
X10888571Y-7545286D01*
X10717143Y-7716714D01*
X10902857Y-7716714D01*
X11031428Y-7716714D02*
X11031428Y-7516714D01*
X11031428Y-7545286D02*
X11045714Y-7531000D01*
X11074286Y-7516714D01*
X11117143Y-7516714D01*
X11145714Y-7531000D01*
X11160000Y-7559571D01*
X11160000Y-7716714D01*
X11160000Y-7559571D02*
X11174286Y-7531000D01*
X11202857Y-7516714D01*
X11245714Y-7516714D01*
X11274286Y-7531000D01*
X11288571Y-7559571D01*
X11288571Y-7716714D01*
X11431428Y-7716714D02*
X11431428Y-7516714D01*
X11431428Y-7545286D02*
X11445714Y-7531000D01*
X11474286Y-7516714D01*
X11517143Y-7516714D01*
X11545714Y-7531000D01*
X11560000Y-7559571D01*
X11560000Y-7716714D01*
X11560000Y-7559571D02*
X11574286Y-7531000D01*
X11602857Y-7516714D01*
X11645714Y-7516714D01*
X11674286Y-7531000D01*
X11688571Y-7559571D01*
X11688571Y-7716714D01*
X12274286Y-7402429D02*
X12017143Y-7788143D01*
X12660000Y-7416714D02*
X12688571Y-7416714D01*
X12717143Y-7431000D01*
X12731428Y-7445286D01*
X12745714Y-7473857D01*
X12760000Y-7531000D01*
X12760000Y-7602429D01*
X12745714Y-7659571D01*
X12731428Y-7688143D01*
X12717143Y-7702429D01*
X12688571Y-7716714D01*
X12660000Y-7716714D01*
X12631428Y-7702429D01*
X12617143Y-7688143D01*
X12602857Y-7659571D01*
X12588571Y-7602429D01*
X12588571Y-7531000D01*
X12602857Y-7473857D01*
X12617143Y-7445286D01*
X12631428Y-7431000D01*
X12660000Y-7416714D01*
X12888571Y-7688143D02*
X12902857Y-7702429D01*
X12888571Y-7716714D01*
X12874286Y-7702429D01*
X12888571Y-7688143D01*
X12888571Y-7716714D01*
X13088571Y-7416714D02*
X13117143Y-7416714D01*
X13145714Y-7431000D01*
X13160000Y-7445286D01*
X13174286Y-7473857D01*
X13188571Y-7531000D01*
X13188571Y-7602429D01*
X13174286Y-7659571D01*
X13160000Y-7688143D01*
X13145714Y-7702429D01*
X13117143Y-7716714D01*
X13088571Y-7716714D01*
X13060000Y-7702429D01*
X13045714Y-7688143D01*
X13031428Y-7659571D01*
X13017143Y-7602429D01*
X13017143Y-7531000D01*
X13031428Y-7473857D01*
X13045714Y-7445286D01*
X13060000Y-7431000D01*
X13088571Y-7416714D01*
X13445714Y-7516714D02*
X13445714Y-7716714D01*
X13374286Y-7402429D02*
X13302857Y-7616714D01*
X13488571Y-7616714D01*
X13660000Y-7416714D02*
X13688571Y-7416714D01*
X13717143Y-7431000D01*
X13731428Y-7445286D01*
X13745714Y-7473857D01*
X13760000Y-7531000D01*
X13760000Y-7602429D01*
X13745714Y-7659571D01*
X13731428Y-7688143D01*
X13717143Y-7702429D01*
X13688571Y-7716714D01*
X13660000Y-7716714D01*
X13631428Y-7702429D01*
X13617143Y-7688143D01*
X13602857Y-7659571D01*
X13588571Y-7602429D01*
X13588571Y-7531000D01*
X13602857Y-7473857D01*
X13617143Y-7445286D01*
X13631428Y-7431000D01*
X13660000Y-7416714D01*
X13874286Y-7416714D02*
X13874286Y-7473857D01*
X13988571Y-7416714D02*
X13988571Y-7473857D01*
X14431428Y-7831000D02*
X14417143Y-7816714D01*
X14388571Y-7773857D01*
X14374286Y-7745286D01*
X14360000Y-7702429D01*
X14345714Y-7631000D01*
X14345714Y-7573857D01*
X14360000Y-7502429D01*
X14374286Y-7459571D01*
X14388571Y-7431000D01*
X14417143Y-7388143D01*
X14431428Y-7373857D01*
X14531428Y-7445286D02*
X14545714Y-7431000D01*
X14574286Y-7416714D01*
X14645714Y-7416714D01*
X14674286Y-7431000D01*
X14688571Y-7445286D01*
X14702857Y-7473857D01*
X14702857Y-7502429D01*
X14688571Y-7545286D01*
X14517143Y-7716714D01*
X14702857Y-7716714D01*
X14817143Y-7445286D02*
X14831428Y-7431000D01*
X14860000Y-7416714D01*
X14931428Y-7416714D01*
X14960000Y-7431000D01*
X14974286Y-7445286D01*
X14988571Y-7473857D01*
X14988571Y-7502429D01*
X14974286Y-7545286D01*
X14802857Y-7716714D01*
X14988571Y-7716714D01*
X15345714Y-7716714D02*
X15345714Y-7416714D01*
X15474286Y-7716714D02*
X15474286Y-7559571D01*
X15460000Y-7531000D01*
X15431428Y-7516714D01*
X15388571Y-7516714D01*
X15360000Y-7531000D01*
X15345714Y-7545286D01*
X15660000Y-7716714D02*
X15631428Y-7702429D01*
X15617143Y-7688143D01*
X15602857Y-7659571D01*
X15602857Y-7573857D01*
X15617143Y-7545286D01*
X15631428Y-7531000D01*
X15660000Y-7516714D01*
X15702857Y-7516714D01*
X15731428Y-7531000D01*
X15745714Y-7545286D01*
X15760000Y-7573857D01*
X15760000Y-7659571D01*
X15745714Y-7688143D01*
X15731428Y-7702429D01*
X15702857Y-7716714D01*
X15660000Y-7716714D01*
X15931428Y-7716714D02*
X15902857Y-7702429D01*
X15888571Y-7673857D01*
X15888571Y-7416714D01*
X16160000Y-7702429D02*
X16131428Y-7716714D01*
X16074286Y-7716714D01*
X16045714Y-7702429D01*
X16031428Y-7673857D01*
X16031428Y-7559571D01*
X16045714Y-7531000D01*
X16074286Y-7516714D01*
X16131428Y-7516714D01*
X16160000Y-7531000D01*
X16174286Y-7559571D01*
X16174286Y-7588143D01*
X16031428Y-7616714D01*
X16288571Y-7702429D02*
X16317143Y-7716714D01*
X16374286Y-7716714D01*
X16402857Y-7702429D01*
X16417143Y-7673857D01*
X16417143Y-7659571D01*
X16402857Y-7631000D01*
X16374286Y-7616714D01*
X16331428Y-7616714D01*
X16302857Y-7602429D01*
X16288571Y-7573857D01*
X16288571Y-7559571D01*
X16302857Y-7531000D01*
X16331428Y-7516714D01*
X16374286Y-7516714D01*
X16402857Y-7531000D01*
X16517143Y-7831000D02*
X16531428Y-7816714D01*
X16560000Y-7773857D01*
X16574286Y-7745286D01*
X16588571Y-7702429D01*
X16602857Y-7631000D01*
X16602857Y-7573857D01*
X16588571Y-7502429D01*
X16574286Y-7459571D01*
X16560000Y-7431000D01*
X16531428Y-7388143D01*
X16517143Y-7373857D01*
M02*
