%FSLAX45Y45*%
G04 Gerber Fmt 4.5, Leading zero omitted, Abs format (unit mm)*
G04 Created by KiCad (PCBNEW (5.1.8)-1) date 2021-08-08 18:21:08*
%MOMM*%
%LPD*%
G01*
G04 APERTURE LIST*
%TA.AperFunction,Profile*%
%ADD10C,0.100000*%
%TD*%
%ADD11C,0.200000*%
%ADD12C,0.300000*%
G04 APERTURE END LIST*
D10*
X14750000Y-6220000D02*
X14750000Y-6200000D01*
X9750000Y-6220000D02*
X9750000Y-6200000D01*
X14750000Y-4000000D02*
X9750000Y-4000000D01*
X14750000Y-6200000D02*
X14750000Y-4000000D01*
X9750000Y-6220000D02*
X14750000Y-6220000D01*
X9750000Y-4000000D02*
X9750000Y-6200000D01*
D11*
D12*
X10031428Y-6690714D02*
X10031428Y-6390714D01*
X10102857Y-6390714D01*
X10145714Y-6405000D01*
X10174286Y-6433571D01*
X10188571Y-6462143D01*
X10202857Y-6519286D01*
X10202857Y-6562143D01*
X10188571Y-6619286D01*
X10174286Y-6647857D01*
X10145714Y-6676429D01*
X10102857Y-6690714D01*
X10031428Y-6690714D01*
X10331428Y-6690714D02*
X10331428Y-6490714D01*
X10331428Y-6547857D02*
X10345714Y-6519286D01*
X10360000Y-6505000D01*
X10388571Y-6490714D01*
X10417143Y-6490714D01*
X10517143Y-6690714D02*
X10517143Y-6490714D01*
X10517143Y-6390714D02*
X10502857Y-6405000D01*
X10517143Y-6419286D01*
X10531428Y-6405000D01*
X10517143Y-6390714D01*
X10517143Y-6419286D01*
X10702857Y-6690714D02*
X10674286Y-6676429D01*
X10660000Y-6647857D01*
X10660000Y-6390714D01*
X10860000Y-6690714D02*
X10831428Y-6676429D01*
X10817143Y-6647857D01*
X10817143Y-6390714D01*
X11202857Y-6690714D02*
X11202857Y-6390714D01*
X11302857Y-6605000D01*
X11402857Y-6390714D01*
X11402857Y-6690714D01*
X11674286Y-6690714D02*
X11674286Y-6533571D01*
X11660000Y-6505000D01*
X11631428Y-6490714D01*
X11574286Y-6490714D01*
X11545714Y-6505000D01*
X11674286Y-6676429D02*
X11645714Y-6690714D01*
X11574286Y-6690714D01*
X11545714Y-6676429D01*
X11531428Y-6647857D01*
X11531428Y-6619286D01*
X11545714Y-6590714D01*
X11574286Y-6576429D01*
X11645714Y-6576429D01*
X11674286Y-6562143D01*
X11817143Y-6490714D02*
X11817143Y-6790714D01*
X11817143Y-6505000D02*
X11845714Y-6490714D01*
X11902857Y-6490714D01*
X11931428Y-6505000D01*
X11945714Y-6519286D01*
X11960000Y-6547857D01*
X11960000Y-6633571D01*
X11945714Y-6662143D01*
X11931428Y-6676429D01*
X11902857Y-6690714D01*
X11845714Y-6690714D01*
X11817143Y-6676429D01*
X12088571Y-6662143D02*
X12102857Y-6676429D01*
X12088571Y-6690714D01*
X12074286Y-6676429D01*
X12088571Y-6662143D01*
X12088571Y-6690714D01*
X12088571Y-6505000D02*
X12102857Y-6519286D01*
X12088571Y-6533571D01*
X12074286Y-6519286D01*
X12088571Y-6505000D01*
X12088571Y-6533571D01*
M02*
