G04 #@! TF.GenerationSoftware,KiCad,Pcbnew,(5.1.8)-1*
G04 #@! TF.CreationDate,2021-08-08T18:19:28-04:00*
G04 #@! TF.ProjectId,nearless_back_pcb,6e656172-6c65-4737-935f-6261636b5f70,rev?*
G04 #@! TF.SameCoordinates,Original*
G04 #@! TF.FileFunction,Copper,L2,Bot*
G04 #@! TF.FilePolarity,Positive*
%FSLAX46Y46*%
G04 Gerber Fmt 4.6, Leading zero omitted, Abs format (unit mm)*
G04 Created by KiCad (PCBNEW (5.1.8)-1) date 2021-08-08 18:19:28*
%MOMM*%
%LPD*%
G01*
G04 APERTURE LIST*
G04 #@! TA.AperFunction,ComponentPad*
%ADD10C,1.727200*%
G04 #@! TD*
G04 #@! TA.AperFunction,ViaPad*
%ADD11C,0.800000*%
G04 #@! TD*
G04 #@! TA.AperFunction,Conductor*
%ADD12C,0.355600*%
G04 #@! TD*
G04 #@! TA.AperFunction,Conductor*
%ADD13C,0.254000*%
G04 #@! TD*
G04 #@! TA.AperFunction,Conductor*
%ADD14C,0.250000*%
G04 #@! TD*
G04 #@! TA.AperFunction,Conductor*
%ADD15C,0.100000*%
G04 #@! TD*
G04 APERTURE END LIST*
D10*
X117420000Y-57780000D03*
X117420000Y-55240000D03*
X119960000Y-57780000D03*
X119960000Y-55240000D03*
X122500000Y-57780000D03*
X122500000Y-55240000D03*
X125040000Y-57780000D03*
X125040000Y-55240000D03*
X127580000Y-57780000D03*
X127580000Y-55240000D03*
X99500000Y-59000000D03*
X99500000Y-56460000D03*
X99500000Y-53920000D03*
X145500000Y-53920000D03*
X145500000Y-56460000D03*
X145500000Y-59000000D03*
X145500000Y-47580000D03*
X145500000Y-45040000D03*
X145500000Y-42500000D03*
X99500000Y-47540000D03*
X99500000Y-45000000D03*
X99500000Y-42460000D03*
D11*
X123000000Y-45190000D03*
X129100000Y-45190000D03*
X138900000Y-50100000D03*
X109905000Y-50160000D03*
X115400000Y-47900000D03*
X106100000Y-47900000D03*
X134000000Y-45100000D03*
X143800000Y-56400000D03*
X137700000Y-47900000D03*
D12*
X123000000Y-46400000D02*
X120400000Y-49000000D01*
X123000000Y-45190000D02*
X123000000Y-46400000D01*
D13*
X120400000Y-49000000D02*
X120510000Y-49000000D01*
D12*
X137800000Y-49000000D02*
X138900000Y-50100000D01*
X130670000Y-49000000D02*
X137800000Y-49000000D01*
X129100000Y-47430000D02*
X130670000Y-49000000D01*
X129100000Y-45190000D02*
X129100000Y-47430000D01*
X111000000Y-49000000D02*
X120400000Y-49000000D01*
X109905000Y-50160000D02*
X111000000Y-49000000D01*
X115400000Y-47900000D02*
X106100000Y-47900000D01*
D14*
X145460000Y-45080000D02*
X145500000Y-45040000D01*
X134000000Y-45100000D02*
X145460000Y-45080000D01*
D13*
X137775962Y-47900000D02*
X137700000Y-47900000D01*
X143800000Y-53924038D02*
X137775962Y-47900000D01*
X143800000Y-56400000D02*
X143800000Y-53924038D01*
X147069000Y-61769000D02*
X97931000Y-61769000D01*
X97931000Y-58877418D01*
X98255400Y-58877418D01*
X98255400Y-59122582D01*
X98303229Y-59363036D01*
X98397050Y-59589539D01*
X98533256Y-59793386D01*
X98706614Y-59966744D01*
X98910461Y-60102950D01*
X99136964Y-60196771D01*
X99377418Y-60244600D01*
X99622582Y-60244600D01*
X99863036Y-60196771D01*
X100089539Y-60102950D01*
X100293386Y-59966744D01*
X100466744Y-59793386D01*
X100602950Y-59589539D01*
X100696771Y-59363036D01*
X100744600Y-59122582D01*
X100744600Y-58877418D01*
X100696771Y-58636964D01*
X100602950Y-58410461D01*
X100466744Y-58206614D01*
X100293386Y-58033256D01*
X100089539Y-57897050D01*
X99863036Y-57803229D01*
X99622582Y-57755400D01*
X99377418Y-57755400D01*
X99136964Y-57803229D01*
X98910461Y-57897050D01*
X98706614Y-58033256D01*
X98533256Y-58206614D01*
X98397050Y-58410461D01*
X98303229Y-58636964D01*
X98255400Y-58877418D01*
X97931000Y-58877418D01*
X97931000Y-56337418D01*
X98255400Y-56337418D01*
X98255400Y-56582582D01*
X98303229Y-56823036D01*
X98397050Y-57049539D01*
X98533256Y-57253386D01*
X98706614Y-57426744D01*
X98910461Y-57562950D01*
X99136964Y-57656771D01*
X99377418Y-57704600D01*
X99622582Y-57704600D01*
X99859783Y-57657418D01*
X116175400Y-57657418D01*
X116175400Y-57902582D01*
X116223229Y-58143036D01*
X116317050Y-58369539D01*
X116453256Y-58573386D01*
X116626614Y-58746744D01*
X116830461Y-58882950D01*
X117056964Y-58976771D01*
X117297418Y-59024600D01*
X117542582Y-59024600D01*
X117783036Y-58976771D01*
X118009539Y-58882950D01*
X118106588Y-58818104D01*
X119101501Y-58818104D01*
X119180782Y-59068567D01*
X119447141Y-59195826D01*
X119733210Y-59268675D01*
X120027993Y-59284315D01*
X120320164Y-59242145D01*
X120598493Y-59143786D01*
X120739218Y-59068567D01*
X120818499Y-58818104D01*
X121641501Y-58818104D01*
X121720782Y-59068567D01*
X121987141Y-59195826D01*
X122273210Y-59268675D01*
X122567993Y-59284315D01*
X122860164Y-59242145D01*
X123138493Y-59143786D01*
X123279218Y-59068567D01*
X123358499Y-58818104D01*
X124181501Y-58818104D01*
X124260782Y-59068567D01*
X124527141Y-59195826D01*
X124813210Y-59268675D01*
X125107993Y-59284315D01*
X125400164Y-59242145D01*
X125678493Y-59143786D01*
X125819218Y-59068567D01*
X125898499Y-58818104D01*
X125040000Y-57959605D01*
X124181501Y-58818104D01*
X123358499Y-58818104D01*
X122500000Y-57959605D01*
X121641501Y-58818104D01*
X120818499Y-58818104D01*
X119960000Y-57959605D01*
X119101501Y-58818104D01*
X118106588Y-58818104D01*
X118213386Y-58746744D01*
X118386744Y-58573386D01*
X118522950Y-58369539D01*
X118553149Y-58296632D01*
X118596214Y-58418493D01*
X118671433Y-58559218D01*
X118921896Y-58638499D01*
X119780395Y-57780000D01*
X120139605Y-57780000D01*
X120998104Y-58638499D01*
X121230000Y-58565095D01*
X121461896Y-58638499D01*
X122320395Y-57780000D01*
X122679605Y-57780000D01*
X123538104Y-58638499D01*
X123770000Y-58565095D01*
X124001896Y-58638499D01*
X124860395Y-57780000D01*
X125219605Y-57780000D01*
X126078104Y-58638499D01*
X126328567Y-58559218D01*
X126450182Y-58304673D01*
X126477050Y-58369539D01*
X126613256Y-58573386D01*
X126786614Y-58746744D01*
X126990461Y-58882950D01*
X127216964Y-58976771D01*
X127457418Y-59024600D01*
X127702582Y-59024600D01*
X127943036Y-58976771D01*
X128169539Y-58882950D01*
X128177818Y-58877418D01*
X144255400Y-58877418D01*
X144255400Y-59122582D01*
X144303229Y-59363036D01*
X144397050Y-59589539D01*
X144533256Y-59793386D01*
X144706614Y-59966744D01*
X144910461Y-60102950D01*
X145136964Y-60196771D01*
X145377418Y-60244600D01*
X145622582Y-60244600D01*
X145863036Y-60196771D01*
X146089539Y-60102950D01*
X146293386Y-59966744D01*
X146466744Y-59793386D01*
X146602950Y-59589539D01*
X146696771Y-59363036D01*
X146744600Y-59122582D01*
X146744600Y-58877418D01*
X146696771Y-58636964D01*
X146602950Y-58410461D01*
X146466744Y-58206614D01*
X146293386Y-58033256D01*
X146089539Y-57897050D01*
X145863036Y-57803229D01*
X145622582Y-57755400D01*
X145377418Y-57755400D01*
X145136964Y-57803229D01*
X144910461Y-57897050D01*
X144706614Y-58033256D01*
X144533256Y-58206614D01*
X144397050Y-58410461D01*
X144303229Y-58636964D01*
X144255400Y-58877418D01*
X128177818Y-58877418D01*
X128373386Y-58746744D01*
X128546744Y-58573386D01*
X128682950Y-58369539D01*
X128776771Y-58143036D01*
X128824600Y-57902582D01*
X128824600Y-57657418D01*
X128776771Y-57416964D01*
X128682950Y-57190461D01*
X128546744Y-56986614D01*
X128373386Y-56813256D01*
X128169539Y-56677050D01*
X127943036Y-56583229D01*
X127702582Y-56535400D01*
X127457418Y-56535400D01*
X127216964Y-56583229D01*
X126990461Y-56677050D01*
X126786614Y-56813256D01*
X126613256Y-56986614D01*
X126477050Y-57190461D01*
X126446851Y-57263368D01*
X126403786Y-57141507D01*
X126328567Y-57000782D01*
X126078104Y-56921501D01*
X125219605Y-57780000D01*
X124860395Y-57780000D01*
X124001896Y-56921501D01*
X123770000Y-56994905D01*
X123538104Y-56921501D01*
X122679605Y-57780000D01*
X122320395Y-57780000D01*
X121461896Y-56921501D01*
X121230000Y-56994905D01*
X120998104Y-56921501D01*
X120139605Y-57780000D01*
X119780395Y-57780000D01*
X118921896Y-56921501D01*
X118671433Y-57000782D01*
X118549818Y-57255327D01*
X118522950Y-57190461D01*
X118386744Y-56986614D01*
X118213386Y-56813256D01*
X118009539Y-56677050D01*
X117783036Y-56583229D01*
X117542582Y-56535400D01*
X117297418Y-56535400D01*
X117056964Y-56583229D01*
X116830461Y-56677050D01*
X116626614Y-56813256D01*
X116453256Y-56986614D01*
X116317050Y-57190461D01*
X116223229Y-57416964D01*
X116175400Y-57657418D01*
X99859783Y-57657418D01*
X99863036Y-57656771D01*
X100089539Y-57562950D01*
X100293386Y-57426744D01*
X100466744Y-57253386D01*
X100602950Y-57049539D01*
X100696771Y-56823036D01*
X100744600Y-56582582D01*
X100744600Y-56337418D01*
X100696771Y-56096964D01*
X100602950Y-55870461D01*
X100466744Y-55666614D01*
X100293386Y-55493256D01*
X100089539Y-55357050D01*
X100016632Y-55326851D01*
X100138493Y-55283786D01*
X100279218Y-55208567D01*
X100308070Y-55117418D01*
X116175400Y-55117418D01*
X116175400Y-55362582D01*
X116223229Y-55603036D01*
X116317050Y-55829539D01*
X116453256Y-56033386D01*
X116626614Y-56206744D01*
X116830461Y-56342950D01*
X117056964Y-56436771D01*
X117297418Y-56484600D01*
X117542582Y-56484600D01*
X117783036Y-56436771D01*
X118009539Y-56342950D01*
X118106588Y-56278104D01*
X119101501Y-56278104D01*
X119174905Y-56510000D01*
X119101501Y-56741896D01*
X119960000Y-57600395D01*
X120818499Y-56741896D01*
X120745095Y-56510000D01*
X120818499Y-56278104D01*
X121641501Y-56278104D01*
X121714905Y-56510000D01*
X121641501Y-56741896D01*
X122500000Y-57600395D01*
X123358499Y-56741896D01*
X123285095Y-56510000D01*
X123358499Y-56278104D01*
X124181501Y-56278104D01*
X124254905Y-56510000D01*
X124181501Y-56741896D01*
X125040000Y-57600395D01*
X125898499Y-56741896D01*
X125825095Y-56510000D01*
X125898499Y-56278104D01*
X125040000Y-55419605D01*
X124181501Y-56278104D01*
X123358499Y-56278104D01*
X122500000Y-55419605D01*
X121641501Y-56278104D01*
X120818499Y-56278104D01*
X119960000Y-55419605D01*
X119101501Y-56278104D01*
X118106588Y-56278104D01*
X118213386Y-56206744D01*
X118386744Y-56033386D01*
X118522950Y-55829539D01*
X118553149Y-55756632D01*
X118596214Y-55878493D01*
X118671433Y-56019218D01*
X118921896Y-56098499D01*
X119780395Y-55240000D01*
X120139605Y-55240000D01*
X120998104Y-56098499D01*
X121230000Y-56025095D01*
X121461896Y-56098499D01*
X122320395Y-55240000D01*
X122679605Y-55240000D01*
X123538104Y-56098499D01*
X123770000Y-56025095D01*
X124001896Y-56098499D01*
X124860395Y-55240000D01*
X125219605Y-55240000D01*
X126078104Y-56098499D01*
X126328567Y-56019218D01*
X126450182Y-55764673D01*
X126477050Y-55829539D01*
X126613256Y-56033386D01*
X126786614Y-56206744D01*
X126990461Y-56342950D01*
X127216964Y-56436771D01*
X127457418Y-56484600D01*
X127702582Y-56484600D01*
X127943036Y-56436771D01*
X128169539Y-56342950D01*
X128373386Y-56206744D01*
X128546744Y-56033386D01*
X128682950Y-55829539D01*
X128776771Y-55603036D01*
X128824600Y-55362582D01*
X128824600Y-55117418D01*
X128776771Y-54876964D01*
X128682950Y-54650461D01*
X128546744Y-54446614D01*
X128373386Y-54273256D01*
X128169539Y-54137050D01*
X127943036Y-54043229D01*
X127702582Y-53995400D01*
X127457418Y-53995400D01*
X127216964Y-54043229D01*
X126990461Y-54137050D01*
X126786614Y-54273256D01*
X126613256Y-54446614D01*
X126477050Y-54650461D01*
X126446851Y-54723368D01*
X126403786Y-54601507D01*
X126328567Y-54460782D01*
X126078104Y-54381501D01*
X125219605Y-55240000D01*
X124860395Y-55240000D01*
X124001896Y-54381501D01*
X123770000Y-54454905D01*
X123538104Y-54381501D01*
X122679605Y-55240000D01*
X122320395Y-55240000D01*
X121461896Y-54381501D01*
X121230000Y-54454905D01*
X120998104Y-54381501D01*
X120139605Y-55240000D01*
X119780395Y-55240000D01*
X118921896Y-54381501D01*
X118671433Y-54460782D01*
X118549818Y-54715327D01*
X118522950Y-54650461D01*
X118386744Y-54446614D01*
X118213386Y-54273256D01*
X118106589Y-54201896D01*
X119101501Y-54201896D01*
X119960000Y-55060395D01*
X120818499Y-54201896D01*
X121641501Y-54201896D01*
X122500000Y-55060395D01*
X123358499Y-54201896D01*
X124181501Y-54201896D01*
X125040000Y-55060395D01*
X125898499Y-54201896D01*
X125819218Y-53951433D01*
X125552859Y-53824174D01*
X125266790Y-53751325D01*
X124972007Y-53735685D01*
X124679836Y-53777855D01*
X124401507Y-53876214D01*
X124260782Y-53951433D01*
X124181501Y-54201896D01*
X123358499Y-54201896D01*
X123279218Y-53951433D01*
X123012859Y-53824174D01*
X122726790Y-53751325D01*
X122432007Y-53735685D01*
X122139836Y-53777855D01*
X121861507Y-53876214D01*
X121720782Y-53951433D01*
X121641501Y-54201896D01*
X120818499Y-54201896D01*
X120739218Y-53951433D01*
X120472859Y-53824174D01*
X120186790Y-53751325D01*
X119892007Y-53735685D01*
X119599836Y-53777855D01*
X119321507Y-53876214D01*
X119180782Y-53951433D01*
X119101501Y-54201896D01*
X118106589Y-54201896D01*
X118009539Y-54137050D01*
X117783036Y-54043229D01*
X117542582Y-53995400D01*
X117297418Y-53995400D01*
X117056964Y-54043229D01*
X116830461Y-54137050D01*
X116626614Y-54273256D01*
X116453256Y-54446614D01*
X116317050Y-54650461D01*
X116223229Y-54876964D01*
X116175400Y-55117418D01*
X100308070Y-55117418D01*
X100358499Y-54958104D01*
X99500000Y-54099605D01*
X98641501Y-54958104D01*
X98720782Y-55208567D01*
X98975327Y-55330182D01*
X98910461Y-55357050D01*
X98706614Y-55493256D01*
X98533256Y-55666614D01*
X98397050Y-55870461D01*
X98303229Y-56096964D01*
X98255400Y-56337418D01*
X97931000Y-56337418D01*
X97931000Y-53987993D01*
X97995685Y-53987993D01*
X98037855Y-54280164D01*
X98136214Y-54558493D01*
X98211433Y-54699218D01*
X98461896Y-54778499D01*
X99320395Y-53920000D01*
X99679605Y-53920000D01*
X100538104Y-54778499D01*
X100788567Y-54699218D01*
X100915826Y-54432859D01*
X100988675Y-54146790D01*
X101004315Y-53852007D01*
X100962145Y-53559836D01*
X100863786Y-53281507D01*
X100788567Y-53140782D01*
X100538104Y-53061501D01*
X99679605Y-53920000D01*
X99320395Y-53920000D01*
X98461896Y-53061501D01*
X98211433Y-53140782D01*
X98084174Y-53407141D01*
X98011325Y-53693210D01*
X97995685Y-53987993D01*
X97931000Y-53987993D01*
X97931000Y-52881896D01*
X98641501Y-52881896D01*
X99500000Y-53740395D01*
X100358499Y-52881896D01*
X100279218Y-52631433D01*
X100012859Y-52504174D01*
X99726790Y-52431325D01*
X99432007Y-52415685D01*
X99139836Y-52457855D01*
X98861507Y-52556214D01*
X98720782Y-52631433D01*
X98641501Y-52881896D01*
X97931000Y-52881896D01*
X97931000Y-47417418D01*
X98255400Y-47417418D01*
X98255400Y-47662582D01*
X98303229Y-47903036D01*
X98397050Y-48129539D01*
X98533256Y-48333386D01*
X98706614Y-48506744D01*
X98910461Y-48642950D01*
X99136964Y-48736771D01*
X99377418Y-48784600D01*
X99622582Y-48784600D01*
X99863036Y-48736771D01*
X100089539Y-48642950D01*
X100293386Y-48506744D01*
X100466744Y-48333386D01*
X100602950Y-48129539D01*
X100696771Y-47903036D01*
X100712675Y-47823078D01*
X105319000Y-47823078D01*
X105319000Y-47976922D01*
X105349013Y-48127809D01*
X105407887Y-48269942D01*
X105493358Y-48397859D01*
X105602141Y-48506642D01*
X105730058Y-48592113D01*
X105872191Y-48650987D01*
X106023078Y-48681000D01*
X106176922Y-48681000D01*
X106327809Y-48650987D01*
X106469942Y-48592113D01*
X106597859Y-48506642D01*
X106645701Y-48458800D01*
X110856346Y-48458800D01*
X110830101Y-48467595D01*
X110785122Y-48481239D01*
X110777960Y-48485067D01*
X110770264Y-48487646D01*
X110729493Y-48510973D01*
X110688046Y-48533127D01*
X110681768Y-48538279D01*
X110674723Y-48542310D01*
X110639287Y-48573142D01*
X110602957Y-48602957D01*
X110580346Y-48630509D01*
X109873797Y-49379000D01*
X109828078Y-49379000D01*
X109677191Y-49409013D01*
X109535058Y-49467887D01*
X109407141Y-49553358D01*
X109298358Y-49662141D01*
X109212887Y-49790058D01*
X109154013Y-49932191D01*
X109124000Y-50083078D01*
X109124000Y-50236922D01*
X109154013Y-50387809D01*
X109212887Y-50529942D01*
X109298358Y-50657859D01*
X109407141Y-50766642D01*
X109535058Y-50852113D01*
X109677191Y-50910987D01*
X109828078Y-50941000D01*
X109981922Y-50941000D01*
X110132809Y-50910987D01*
X110274942Y-50852113D01*
X110402859Y-50766642D01*
X110511642Y-50657859D01*
X110597113Y-50529942D01*
X110655987Y-50387809D01*
X110686000Y-50236922D01*
X110686000Y-50146695D01*
X111240952Y-49558800D01*
X120372558Y-49558800D01*
X120400000Y-49561503D01*
X120427442Y-49558800D01*
X120427444Y-49558800D01*
X120509544Y-49550714D01*
X120614878Y-49518761D01*
X120700176Y-49473168D01*
X120705343Y-49471601D01*
X120793595Y-49424429D01*
X120870948Y-49360948D01*
X120934429Y-49283595D01*
X120966308Y-49223954D01*
X123375719Y-46814543D01*
X123397043Y-46797043D01*
X123466873Y-46711954D01*
X123518761Y-46614878D01*
X123550714Y-46509544D01*
X123558800Y-46427444D01*
X123558800Y-46427443D01*
X123561503Y-46400001D01*
X123558800Y-46372559D01*
X123558800Y-45735701D01*
X123606642Y-45687859D01*
X123692113Y-45559942D01*
X123750987Y-45417809D01*
X123781000Y-45266922D01*
X123781000Y-45113078D01*
X128319000Y-45113078D01*
X128319000Y-45266922D01*
X128349013Y-45417809D01*
X128407887Y-45559942D01*
X128493358Y-45687859D01*
X128541200Y-45735701D01*
X128541201Y-47402548D01*
X128538497Y-47430000D01*
X128549287Y-47539544D01*
X128581239Y-47644877D01*
X128581240Y-47644878D01*
X128633128Y-47741954D01*
X128702958Y-47827043D01*
X128724276Y-47844538D01*
X130255457Y-49375719D01*
X130272957Y-49397043D01*
X130358046Y-49466873D01*
X130455122Y-49518761D01*
X130560456Y-49550714D01*
X130642556Y-49558800D01*
X130642557Y-49558800D01*
X130669999Y-49561503D01*
X130697441Y-49558800D01*
X137568538Y-49558800D01*
X138119000Y-50109263D01*
X138119000Y-50176922D01*
X138149013Y-50327809D01*
X138207887Y-50469942D01*
X138293358Y-50597859D01*
X138402141Y-50706642D01*
X138530058Y-50792113D01*
X138672191Y-50850987D01*
X138823078Y-50881000D01*
X138976922Y-50881000D01*
X139127809Y-50850987D01*
X139269942Y-50792113D01*
X139397859Y-50706642D01*
X139506642Y-50597859D01*
X139592113Y-50469942D01*
X139602473Y-50444931D01*
X143292001Y-54134460D01*
X143292000Y-55803499D01*
X143193358Y-55902141D01*
X143107887Y-56030058D01*
X143049013Y-56172191D01*
X143019000Y-56323078D01*
X143019000Y-56476922D01*
X143049013Y-56627809D01*
X143107887Y-56769942D01*
X143193358Y-56897859D01*
X143302141Y-57006642D01*
X143430058Y-57092113D01*
X143572191Y-57150987D01*
X143723078Y-57181000D01*
X143876922Y-57181000D01*
X144027809Y-57150987D01*
X144169942Y-57092113D01*
X144297859Y-57006642D01*
X144355433Y-56949068D01*
X144397050Y-57049539D01*
X144533256Y-57253386D01*
X144706614Y-57426744D01*
X144910461Y-57562950D01*
X145136964Y-57656771D01*
X145377418Y-57704600D01*
X145622582Y-57704600D01*
X145863036Y-57656771D01*
X146089539Y-57562950D01*
X146293386Y-57426744D01*
X146466744Y-57253386D01*
X146602950Y-57049539D01*
X146696771Y-56823036D01*
X146744600Y-56582582D01*
X146744600Y-56337418D01*
X146696771Y-56096964D01*
X146602950Y-55870461D01*
X146466744Y-55666614D01*
X146293386Y-55493256D01*
X146089539Y-55357050D01*
X146016632Y-55326851D01*
X146138493Y-55283786D01*
X146279218Y-55208567D01*
X146358499Y-54958104D01*
X145500000Y-54099605D01*
X144641501Y-54958104D01*
X144720782Y-55208567D01*
X144975327Y-55330182D01*
X144910461Y-55357050D01*
X144706614Y-55493256D01*
X144533256Y-55666614D01*
X144397050Y-55870461D01*
X144390581Y-55886080D01*
X144308000Y-55803499D01*
X144308000Y-54729785D01*
X144461896Y-54778499D01*
X145320395Y-53920000D01*
X145679605Y-53920000D01*
X146538104Y-54778499D01*
X146788567Y-54699218D01*
X146915826Y-54432859D01*
X146988675Y-54146790D01*
X147004315Y-53852007D01*
X146962145Y-53559836D01*
X146863786Y-53281507D01*
X146788567Y-53140782D01*
X146538104Y-53061501D01*
X145679605Y-53920000D01*
X145320395Y-53920000D01*
X144461896Y-53061501D01*
X144211433Y-53140782D01*
X144084174Y-53407141D01*
X144067399Y-53473016D01*
X143476279Y-52881896D01*
X144641501Y-52881896D01*
X145500000Y-53740395D01*
X146358499Y-52881896D01*
X146279218Y-52631433D01*
X146012859Y-52504174D01*
X145726790Y-52431325D01*
X145432007Y-52415685D01*
X145139836Y-52457855D01*
X144861507Y-52556214D01*
X144720782Y-52631433D01*
X144641501Y-52881896D01*
X143476279Y-52881896D01*
X138481000Y-47886618D01*
X138481000Y-47823078D01*
X138450987Y-47672191D01*
X138392113Y-47530058D01*
X138343577Y-47457418D01*
X144255400Y-47457418D01*
X144255400Y-47702582D01*
X144303229Y-47943036D01*
X144397050Y-48169539D01*
X144533256Y-48373386D01*
X144706614Y-48546744D01*
X144910461Y-48682950D01*
X145136964Y-48776771D01*
X145377418Y-48824600D01*
X145622582Y-48824600D01*
X145863036Y-48776771D01*
X146089539Y-48682950D01*
X146293386Y-48546744D01*
X146466744Y-48373386D01*
X146602950Y-48169539D01*
X146696771Y-47943036D01*
X146744600Y-47702582D01*
X146744600Y-47457418D01*
X146696771Y-47216964D01*
X146602950Y-46990461D01*
X146466744Y-46786614D01*
X146293386Y-46613256D01*
X146089539Y-46477050D01*
X145863036Y-46383229D01*
X145622582Y-46335400D01*
X145377418Y-46335400D01*
X145136964Y-46383229D01*
X144910461Y-46477050D01*
X144706614Y-46613256D01*
X144533256Y-46786614D01*
X144397050Y-46990461D01*
X144303229Y-47216964D01*
X144255400Y-47457418D01*
X138343577Y-47457418D01*
X138306642Y-47402141D01*
X138197859Y-47293358D01*
X138069942Y-47207887D01*
X137927809Y-47149013D01*
X137776922Y-47119000D01*
X137623078Y-47119000D01*
X137472191Y-47149013D01*
X137330058Y-47207887D01*
X137202141Y-47293358D01*
X137093358Y-47402141D01*
X137007887Y-47530058D01*
X136949013Y-47672191D01*
X136919000Y-47823078D01*
X136919000Y-47976922D01*
X136949013Y-48127809D01*
X137007887Y-48269942D01*
X137093358Y-48397859D01*
X137136699Y-48441200D01*
X130901462Y-48441200D01*
X129658800Y-47198538D01*
X129658800Y-45735701D01*
X129706642Y-45687859D01*
X129792113Y-45559942D01*
X129850987Y-45417809D01*
X129881000Y-45266922D01*
X129881000Y-45113078D01*
X129863099Y-45023078D01*
X133219000Y-45023078D01*
X133219000Y-45176922D01*
X133249013Y-45327809D01*
X133307887Y-45469942D01*
X133393358Y-45597859D01*
X133502141Y-45706642D01*
X133630058Y-45792113D01*
X133772191Y-45850987D01*
X133923078Y-45881000D01*
X134076922Y-45881000D01*
X134227809Y-45850987D01*
X134369942Y-45792113D01*
X134497859Y-45706642D01*
X134599547Y-45604954D01*
X144379796Y-45587885D01*
X144397050Y-45629539D01*
X144533256Y-45833386D01*
X144706614Y-46006744D01*
X144910461Y-46142950D01*
X145136964Y-46236771D01*
X145377418Y-46284600D01*
X145622582Y-46284600D01*
X145863036Y-46236771D01*
X146089539Y-46142950D01*
X146293386Y-46006744D01*
X146466744Y-45833386D01*
X146602950Y-45629539D01*
X146696771Y-45403036D01*
X146744600Y-45162582D01*
X146744600Y-44917418D01*
X146696771Y-44676964D01*
X146602950Y-44450461D01*
X146466744Y-44246614D01*
X146293386Y-44073256D01*
X146089539Y-43937050D01*
X145863036Y-43843229D01*
X145622582Y-43795400D01*
X145377418Y-43795400D01*
X145136964Y-43843229D01*
X144910461Y-43937050D01*
X144706614Y-44073256D01*
X144533256Y-44246614D01*
X144397050Y-44450461D01*
X144345072Y-44575946D01*
X134597458Y-44592957D01*
X134497859Y-44493358D01*
X134369942Y-44407887D01*
X134227809Y-44349013D01*
X134076922Y-44319000D01*
X133923078Y-44319000D01*
X133772191Y-44349013D01*
X133630058Y-44407887D01*
X133502141Y-44493358D01*
X133393358Y-44602141D01*
X133307887Y-44730058D01*
X133249013Y-44872191D01*
X133219000Y-45023078D01*
X129863099Y-45023078D01*
X129850987Y-44962191D01*
X129792113Y-44820058D01*
X129706642Y-44692141D01*
X129597859Y-44583358D01*
X129469942Y-44497887D01*
X129327809Y-44439013D01*
X129176922Y-44409000D01*
X129023078Y-44409000D01*
X128872191Y-44439013D01*
X128730058Y-44497887D01*
X128602141Y-44583358D01*
X128493358Y-44692141D01*
X128407887Y-44820058D01*
X128349013Y-44962191D01*
X128319000Y-45113078D01*
X123781000Y-45113078D01*
X123750987Y-44962191D01*
X123692113Y-44820058D01*
X123606642Y-44692141D01*
X123497859Y-44583358D01*
X123369942Y-44497887D01*
X123227809Y-44439013D01*
X123076922Y-44409000D01*
X122923078Y-44409000D01*
X122772191Y-44439013D01*
X122630058Y-44497887D01*
X122502141Y-44583358D01*
X122393358Y-44692141D01*
X122307887Y-44820058D01*
X122249013Y-44962191D01*
X122219000Y-45113078D01*
X122219000Y-45266922D01*
X122249013Y-45417809D01*
X122307887Y-45559942D01*
X122393358Y-45687859D01*
X122441200Y-45735701D01*
X122441201Y-46168537D01*
X120168538Y-48441200D01*
X115963301Y-48441200D01*
X116006642Y-48397859D01*
X116092113Y-48269942D01*
X116150987Y-48127809D01*
X116181000Y-47976922D01*
X116181000Y-47823078D01*
X116150987Y-47672191D01*
X116092113Y-47530058D01*
X116006642Y-47402141D01*
X115897859Y-47293358D01*
X115769942Y-47207887D01*
X115627809Y-47149013D01*
X115476922Y-47119000D01*
X115323078Y-47119000D01*
X115172191Y-47149013D01*
X115030058Y-47207887D01*
X114902141Y-47293358D01*
X114854299Y-47341200D01*
X106645701Y-47341200D01*
X106597859Y-47293358D01*
X106469942Y-47207887D01*
X106327809Y-47149013D01*
X106176922Y-47119000D01*
X106023078Y-47119000D01*
X105872191Y-47149013D01*
X105730058Y-47207887D01*
X105602141Y-47293358D01*
X105493358Y-47402141D01*
X105407887Y-47530058D01*
X105349013Y-47672191D01*
X105319000Y-47823078D01*
X100712675Y-47823078D01*
X100744600Y-47662582D01*
X100744600Y-47417418D01*
X100696771Y-47176964D01*
X100602950Y-46950461D01*
X100466744Y-46746614D01*
X100293386Y-46573256D01*
X100089539Y-46437050D01*
X99863036Y-46343229D01*
X99622582Y-46295400D01*
X99377418Y-46295400D01*
X99136964Y-46343229D01*
X98910461Y-46437050D01*
X98706614Y-46573256D01*
X98533256Y-46746614D01*
X98397050Y-46950461D01*
X98303229Y-47176964D01*
X98255400Y-47417418D01*
X97931000Y-47417418D01*
X97931000Y-44877418D01*
X98255400Y-44877418D01*
X98255400Y-45122582D01*
X98303229Y-45363036D01*
X98397050Y-45589539D01*
X98533256Y-45793386D01*
X98706614Y-45966744D01*
X98910461Y-46102950D01*
X99136964Y-46196771D01*
X99377418Y-46244600D01*
X99622582Y-46244600D01*
X99863036Y-46196771D01*
X100089539Y-46102950D01*
X100293386Y-45966744D01*
X100466744Y-45793386D01*
X100602950Y-45589539D01*
X100696771Y-45363036D01*
X100744600Y-45122582D01*
X100744600Y-44877418D01*
X100696771Y-44636964D01*
X100602950Y-44410461D01*
X100466744Y-44206614D01*
X100293386Y-44033256D01*
X100089539Y-43897050D01*
X99863036Y-43803229D01*
X99622582Y-43755400D01*
X99377418Y-43755400D01*
X99136964Y-43803229D01*
X98910461Y-43897050D01*
X98706614Y-44033256D01*
X98533256Y-44206614D01*
X98397050Y-44410461D01*
X98303229Y-44636964D01*
X98255400Y-44877418D01*
X97931000Y-44877418D01*
X97931000Y-42337418D01*
X98255400Y-42337418D01*
X98255400Y-42582582D01*
X98303229Y-42823036D01*
X98397050Y-43049539D01*
X98533256Y-43253386D01*
X98706614Y-43426744D01*
X98910461Y-43562950D01*
X99136964Y-43656771D01*
X99377418Y-43704600D01*
X99622582Y-43704600D01*
X99863036Y-43656771D01*
X100089539Y-43562950D01*
X100293386Y-43426744D01*
X100466744Y-43253386D01*
X100602950Y-43049539D01*
X100696771Y-42823036D01*
X100744600Y-42582582D01*
X100744600Y-42377418D01*
X144255400Y-42377418D01*
X144255400Y-42622582D01*
X144303229Y-42863036D01*
X144397050Y-43089539D01*
X144533256Y-43293386D01*
X144706614Y-43466744D01*
X144910461Y-43602950D01*
X145136964Y-43696771D01*
X145377418Y-43744600D01*
X145622582Y-43744600D01*
X145863036Y-43696771D01*
X146089539Y-43602950D01*
X146293386Y-43466744D01*
X146466744Y-43293386D01*
X146602950Y-43089539D01*
X146696771Y-42863036D01*
X146744600Y-42622582D01*
X146744600Y-42377418D01*
X146696771Y-42136964D01*
X146602950Y-41910461D01*
X146466744Y-41706614D01*
X146293386Y-41533256D01*
X146089539Y-41397050D01*
X145863036Y-41303229D01*
X145622582Y-41255400D01*
X145377418Y-41255400D01*
X145136964Y-41303229D01*
X144910461Y-41397050D01*
X144706614Y-41533256D01*
X144533256Y-41706614D01*
X144397050Y-41910461D01*
X144303229Y-42136964D01*
X144255400Y-42377418D01*
X100744600Y-42377418D01*
X100744600Y-42337418D01*
X100696771Y-42096964D01*
X100602950Y-41870461D01*
X100466744Y-41666614D01*
X100293386Y-41493256D01*
X100089539Y-41357050D01*
X99863036Y-41263229D01*
X99622582Y-41215400D01*
X99377418Y-41215400D01*
X99136964Y-41263229D01*
X98910461Y-41357050D01*
X98706614Y-41493256D01*
X98533256Y-41666614D01*
X98397050Y-41870461D01*
X98303229Y-42096964D01*
X98255400Y-42337418D01*
X97931000Y-42337418D01*
X97931000Y-40431000D01*
X147069001Y-40431000D01*
X147069000Y-61769000D01*
G04 #@! TA.AperFunction,Conductor*
D15*
G36*
X147069000Y-61769000D02*
G01*
X97931000Y-61769000D01*
X97931000Y-58877418D01*
X98255400Y-58877418D01*
X98255400Y-59122582D01*
X98303229Y-59363036D01*
X98397050Y-59589539D01*
X98533256Y-59793386D01*
X98706614Y-59966744D01*
X98910461Y-60102950D01*
X99136964Y-60196771D01*
X99377418Y-60244600D01*
X99622582Y-60244600D01*
X99863036Y-60196771D01*
X100089539Y-60102950D01*
X100293386Y-59966744D01*
X100466744Y-59793386D01*
X100602950Y-59589539D01*
X100696771Y-59363036D01*
X100744600Y-59122582D01*
X100744600Y-58877418D01*
X100696771Y-58636964D01*
X100602950Y-58410461D01*
X100466744Y-58206614D01*
X100293386Y-58033256D01*
X100089539Y-57897050D01*
X99863036Y-57803229D01*
X99622582Y-57755400D01*
X99377418Y-57755400D01*
X99136964Y-57803229D01*
X98910461Y-57897050D01*
X98706614Y-58033256D01*
X98533256Y-58206614D01*
X98397050Y-58410461D01*
X98303229Y-58636964D01*
X98255400Y-58877418D01*
X97931000Y-58877418D01*
X97931000Y-56337418D01*
X98255400Y-56337418D01*
X98255400Y-56582582D01*
X98303229Y-56823036D01*
X98397050Y-57049539D01*
X98533256Y-57253386D01*
X98706614Y-57426744D01*
X98910461Y-57562950D01*
X99136964Y-57656771D01*
X99377418Y-57704600D01*
X99622582Y-57704600D01*
X99859783Y-57657418D01*
X116175400Y-57657418D01*
X116175400Y-57902582D01*
X116223229Y-58143036D01*
X116317050Y-58369539D01*
X116453256Y-58573386D01*
X116626614Y-58746744D01*
X116830461Y-58882950D01*
X117056964Y-58976771D01*
X117297418Y-59024600D01*
X117542582Y-59024600D01*
X117783036Y-58976771D01*
X118009539Y-58882950D01*
X118106588Y-58818104D01*
X119101501Y-58818104D01*
X119180782Y-59068567D01*
X119447141Y-59195826D01*
X119733210Y-59268675D01*
X120027993Y-59284315D01*
X120320164Y-59242145D01*
X120598493Y-59143786D01*
X120739218Y-59068567D01*
X120818499Y-58818104D01*
X121641501Y-58818104D01*
X121720782Y-59068567D01*
X121987141Y-59195826D01*
X122273210Y-59268675D01*
X122567993Y-59284315D01*
X122860164Y-59242145D01*
X123138493Y-59143786D01*
X123279218Y-59068567D01*
X123358499Y-58818104D01*
X124181501Y-58818104D01*
X124260782Y-59068567D01*
X124527141Y-59195826D01*
X124813210Y-59268675D01*
X125107993Y-59284315D01*
X125400164Y-59242145D01*
X125678493Y-59143786D01*
X125819218Y-59068567D01*
X125898499Y-58818104D01*
X125040000Y-57959605D01*
X124181501Y-58818104D01*
X123358499Y-58818104D01*
X122500000Y-57959605D01*
X121641501Y-58818104D01*
X120818499Y-58818104D01*
X119960000Y-57959605D01*
X119101501Y-58818104D01*
X118106588Y-58818104D01*
X118213386Y-58746744D01*
X118386744Y-58573386D01*
X118522950Y-58369539D01*
X118553149Y-58296632D01*
X118596214Y-58418493D01*
X118671433Y-58559218D01*
X118921896Y-58638499D01*
X119780395Y-57780000D01*
X120139605Y-57780000D01*
X120998104Y-58638499D01*
X121230000Y-58565095D01*
X121461896Y-58638499D01*
X122320395Y-57780000D01*
X122679605Y-57780000D01*
X123538104Y-58638499D01*
X123770000Y-58565095D01*
X124001896Y-58638499D01*
X124860395Y-57780000D01*
X125219605Y-57780000D01*
X126078104Y-58638499D01*
X126328567Y-58559218D01*
X126450182Y-58304673D01*
X126477050Y-58369539D01*
X126613256Y-58573386D01*
X126786614Y-58746744D01*
X126990461Y-58882950D01*
X127216964Y-58976771D01*
X127457418Y-59024600D01*
X127702582Y-59024600D01*
X127943036Y-58976771D01*
X128169539Y-58882950D01*
X128177818Y-58877418D01*
X144255400Y-58877418D01*
X144255400Y-59122582D01*
X144303229Y-59363036D01*
X144397050Y-59589539D01*
X144533256Y-59793386D01*
X144706614Y-59966744D01*
X144910461Y-60102950D01*
X145136964Y-60196771D01*
X145377418Y-60244600D01*
X145622582Y-60244600D01*
X145863036Y-60196771D01*
X146089539Y-60102950D01*
X146293386Y-59966744D01*
X146466744Y-59793386D01*
X146602950Y-59589539D01*
X146696771Y-59363036D01*
X146744600Y-59122582D01*
X146744600Y-58877418D01*
X146696771Y-58636964D01*
X146602950Y-58410461D01*
X146466744Y-58206614D01*
X146293386Y-58033256D01*
X146089539Y-57897050D01*
X145863036Y-57803229D01*
X145622582Y-57755400D01*
X145377418Y-57755400D01*
X145136964Y-57803229D01*
X144910461Y-57897050D01*
X144706614Y-58033256D01*
X144533256Y-58206614D01*
X144397050Y-58410461D01*
X144303229Y-58636964D01*
X144255400Y-58877418D01*
X128177818Y-58877418D01*
X128373386Y-58746744D01*
X128546744Y-58573386D01*
X128682950Y-58369539D01*
X128776771Y-58143036D01*
X128824600Y-57902582D01*
X128824600Y-57657418D01*
X128776771Y-57416964D01*
X128682950Y-57190461D01*
X128546744Y-56986614D01*
X128373386Y-56813256D01*
X128169539Y-56677050D01*
X127943036Y-56583229D01*
X127702582Y-56535400D01*
X127457418Y-56535400D01*
X127216964Y-56583229D01*
X126990461Y-56677050D01*
X126786614Y-56813256D01*
X126613256Y-56986614D01*
X126477050Y-57190461D01*
X126446851Y-57263368D01*
X126403786Y-57141507D01*
X126328567Y-57000782D01*
X126078104Y-56921501D01*
X125219605Y-57780000D01*
X124860395Y-57780000D01*
X124001896Y-56921501D01*
X123770000Y-56994905D01*
X123538104Y-56921501D01*
X122679605Y-57780000D01*
X122320395Y-57780000D01*
X121461896Y-56921501D01*
X121230000Y-56994905D01*
X120998104Y-56921501D01*
X120139605Y-57780000D01*
X119780395Y-57780000D01*
X118921896Y-56921501D01*
X118671433Y-57000782D01*
X118549818Y-57255327D01*
X118522950Y-57190461D01*
X118386744Y-56986614D01*
X118213386Y-56813256D01*
X118009539Y-56677050D01*
X117783036Y-56583229D01*
X117542582Y-56535400D01*
X117297418Y-56535400D01*
X117056964Y-56583229D01*
X116830461Y-56677050D01*
X116626614Y-56813256D01*
X116453256Y-56986614D01*
X116317050Y-57190461D01*
X116223229Y-57416964D01*
X116175400Y-57657418D01*
X99859783Y-57657418D01*
X99863036Y-57656771D01*
X100089539Y-57562950D01*
X100293386Y-57426744D01*
X100466744Y-57253386D01*
X100602950Y-57049539D01*
X100696771Y-56823036D01*
X100744600Y-56582582D01*
X100744600Y-56337418D01*
X100696771Y-56096964D01*
X100602950Y-55870461D01*
X100466744Y-55666614D01*
X100293386Y-55493256D01*
X100089539Y-55357050D01*
X100016632Y-55326851D01*
X100138493Y-55283786D01*
X100279218Y-55208567D01*
X100308070Y-55117418D01*
X116175400Y-55117418D01*
X116175400Y-55362582D01*
X116223229Y-55603036D01*
X116317050Y-55829539D01*
X116453256Y-56033386D01*
X116626614Y-56206744D01*
X116830461Y-56342950D01*
X117056964Y-56436771D01*
X117297418Y-56484600D01*
X117542582Y-56484600D01*
X117783036Y-56436771D01*
X118009539Y-56342950D01*
X118106588Y-56278104D01*
X119101501Y-56278104D01*
X119174905Y-56510000D01*
X119101501Y-56741896D01*
X119960000Y-57600395D01*
X120818499Y-56741896D01*
X120745095Y-56510000D01*
X120818499Y-56278104D01*
X121641501Y-56278104D01*
X121714905Y-56510000D01*
X121641501Y-56741896D01*
X122500000Y-57600395D01*
X123358499Y-56741896D01*
X123285095Y-56510000D01*
X123358499Y-56278104D01*
X124181501Y-56278104D01*
X124254905Y-56510000D01*
X124181501Y-56741896D01*
X125040000Y-57600395D01*
X125898499Y-56741896D01*
X125825095Y-56510000D01*
X125898499Y-56278104D01*
X125040000Y-55419605D01*
X124181501Y-56278104D01*
X123358499Y-56278104D01*
X122500000Y-55419605D01*
X121641501Y-56278104D01*
X120818499Y-56278104D01*
X119960000Y-55419605D01*
X119101501Y-56278104D01*
X118106588Y-56278104D01*
X118213386Y-56206744D01*
X118386744Y-56033386D01*
X118522950Y-55829539D01*
X118553149Y-55756632D01*
X118596214Y-55878493D01*
X118671433Y-56019218D01*
X118921896Y-56098499D01*
X119780395Y-55240000D01*
X120139605Y-55240000D01*
X120998104Y-56098499D01*
X121230000Y-56025095D01*
X121461896Y-56098499D01*
X122320395Y-55240000D01*
X122679605Y-55240000D01*
X123538104Y-56098499D01*
X123770000Y-56025095D01*
X124001896Y-56098499D01*
X124860395Y-55240000D01*
X125219605Y-55240000D01*
X126078104Y-56098499D01*
X126328567Y-56019218D01*
X126450182Y-55764673D01*
X126477050Y-55829539D01*
X126613256Y-56033386D01*
X126786614Y-56206744D01*
X126990461Y-56342950D01*
X127216964Y-56436771D01*
X127457418Y-56484600D01*
X127702582Y-56484600D01*
X127943036Y-56436771D01*
X128169539Y-56342950D01*
X128373386Y-56206744D01*
X128546744Y-56033386D01*
X128682950Y-55829539D01*
X128776771Y-55603036D01*
X128824600Y-55362582D01*
X128824600Y-55117418D01*
X128776771Y-54876964D01*
X128682950Y-54650461D01*
X128546744Y-54446614D01*
X128373386Y-54273256D01*
X128169539Y-54137050D01*
X127943036Y-54043229D01*
X127702582Y-53995400D01*
X127457418Y-53995400D01*
X127216964Y-54043229D01*
X126990461Y-54137050D01*
X126786614Y-54273256D01*
X126613256Y-54446614D01*
X126477050Y-54650461D01*
X126446851Y-54723368D01*
X126403786Y-54601507D01*
X126328567Y-54460782D01*
X126078104Y-54381501D01*
X125219605Y-55240000D01*
X124860395Y-55240000D01*
X124001896Y-54381501D01*
X123770000Y-54454905D01*
X123538104Y-54381501D01*
X122679605Y-55240000D01*
X122320395Y-55240000D01*
X121461896Y-54381501D01*
X121230000Y-54454905D01*
X120998104Y-54381501D01*
X120139605Y-55240000D01*
X119780395Y-55240000D01*
X118921896Y-54381501D01*
X118671433Y-54460782D01*
X118549818Y-54715327D01*
X118522950Y-54650461D01*
X118386744Y-54446614D01*
X118213386Y-54273256D01*
X118106589Y-54201896D01*
X119101501Y-54201896D01*
X119960000Y-55060395D01*
X120818499Y-54201896D01*
X121641501Y-54201896D01*
X122500000Y-55060395D01*
X123358499Y-54201896D01*
X124181501Y-54201896D01*
X125040000Y-55060395D01*
X125898499Y-54201896D01*
X125819218Y-53951433D01*
X125552859Y-53824174D01*
X125266790Y-53751325D01*
X124972007Y-53735685D01*
X124679836Y-53777855D01*
X124401507Y-53876214D01*
X124260782Y-53951433D01*
X124181501Y-54201896D01*
X123358499Y-54201896D01*
X123279218Y-53951433D01*
X123012859Y-53824174D01*
X122726790Y-53751325D01*
X122432007Y-53735685D01*
X122139836Y-53777855D01*
X121861507Y-53876214D01*
X121720782Y-53951433D01*
X121641501Y-54201896D01*
X120818499Y-54201896D01*
X120739218Y-53951433D01*
X120472859Y-53824174D01*
X120186790Y-53751325D01*
X119892007Y-53735685D01*
X119599836Y-53777855D01*
X119321507Y-53876214D01*
X119180782Y-53951433D01*
X119101501Y-54201896D01*
X118106589Y-54201896D01*
X118009539Y-54137050D01*
X117783036Y-54043229D01*
X117542582Y-53995400D01*
X117297418Y-53995400D01*
X117056964Y-54043229D01*
X116830461Y-54137050D01*
X116626614Y-54273256D01*
X116453256Y-54446614D01*
X116317050Y-54650461D01*
X116223229Y-54876964D01*
X116175400Y-55117418D01*
X100308070Y-55117418D01*
X100358499Y-54958104D01*
X99500000Y-54099605D01*
X98641501Y-54958104D01*
X98720782Y-55208567D01*
X98975327Y-55330182D01*
X98910461Y-55357050D01*
X98706614Y-55493256D01*
X98533256Y-55666614D01*
X98397050Y-55870461D01*
X98303229Y-56096964D01*
X98255400Y-56337418D01*
X97931000Y-56337418D01*
X97931000Y-53987993D01*
X97995685Y-53987993D01*
X98037855Y-54280164D01*
X98136214Y-54558493D01*
X98211433Y-54699218D01*
X98461896Y-54778499D01*
X99320395Y-53920000D01*
X99679605Y-53920000D01*
X100538104Y-54778499D01*
X100788567Y-54699218D01*
X100915826Y-54432859D01*
X100988675Y-54146790D01*
X101004315Y-53852007D01*
X100962145Y-53559836D01*
X100863786Y-53281507D01*
X100788567Y-53140782D01*
X100538104Y-53061501D01*
X99679605Y-53920000D01*
X99320395Y-53920000D01*
X98461896Y-53061501D01*
X98211433Y-53140782D01*
X98084174Y-53407141D01*
X98011325Y-53693210D01*
X97995685Y-53987993D01*
X97931000Y-53987993D01*
X97931000Y-52881896D01*
X98641501Y-52881896D01*
X99500000Y-53740395D01*
X100358499Y-52881896D01*
X100279218Y-52631433D01*
X100012859Y-52504174D01*
X99726790Y-52431325D01*
X99432007Y-52415685D01*
X99139836Y-52457855D01*
X98861507Y-52556214D01*
X98720782Y-52631433D01*
X98641501Y-52881896D01*
X97931000Y-52881896D01*
X97931000Y-47417418D01*
X98255400Y-47417418D01*
X98255400Y-47662582D01*
X98303229Y-47903036D01*
X98397050Y-48129539D01*
X98533256Y-48333386D01*
X98706614Y-48506744D01*
X98910461Y-48642950D01*
X99136964Y-48736771D01*
X99377418Y-48784600D01*
X99622582Y-48784600D01*
X99863036Y-48736771D01*
X100089539Y-48642950D01*
X100293386Y-48506744D01*
X100466744Y-48333386D01*
X100602950Y-48129539D01*
X100696771Y-47903036D01*
X100712675Y-47823078D01*
X105319000Y-47823078D01*
X105319000Y-47976922D01*
X105349013Y-48127809D01*
X105407887Y-48269942D01*
X105493358Y-48397859D01*
X105602141Y-48506642D01*
X105730058Y-48592113D01*
X105872191Y-48650987D01*
X106023078Y-48681000D01*
X106176922Y-48681000D01*
X106327809Y-48650987D01*
X106469942Y-48592113D01*
X106597859Y-48506642D01*
X106645701Y-48458800D01*
X110856346Y-48458800D01*
X110830101Y-48467595D01*
X110785122Y-48481239D01*
X110777960Y-48485067D01*
X110770264Y-48487646D01*
X110729493Y-48510973D01*
X110688046Y-48533127D01*
X110681768Y-48538279D01*
X110674723Y-48542310D01*
X110639287Y-48573142D01*
X110602957Y-48602957D01*
X110580346Y-48630509D01*
X109873797Y-49379000D01*
X109828078Y-49379000D01*
X109677191Y-49409013D01*
X109535058Y-49467887D01*
X109407141Y-49553358D01*
X109298358Y-49662141D01*
X109212887Y-49790058D01*
X109154013Y-49932191D01*
X109124000Y-50083078D01*
X109124000Y-50236922D01*
X109154013Y-50387809D01*
X109212887Y-50529942D01*
X109298358Y-50657859D01*
X109407141Y-50766642D01*
X109535058Y-50852113D01*
X109677191Y-50910987D01*
X109828078Y-50941000D01*
X109981922Y-50941000D01*
X110132809Y-50910987D01*
X110274942Y-50852113D01*
X110402859Y-50766642D01*
X110511642Y-50657859D01*
X110597113Y-50529942D01*
X110655987Y-50387809D01*
X110686000Y-50236922D01*
X110686000Y-50146695D01*
X111240952Y-49558800D01*
X120372558Y-49558800D01*
X120400000Y-49561503D01*
X120427442Y-49558800D01*
X120427444Y-49558800D01*
X120509544Y-49550714D01*
X120614878Y-49518761D01*
X120700176Y-49473168D01*
X120705343Y-49471601D01*
X120793595Y-49424429D01*
X120870948Y-49360948D01*
X120934429Y-49283595D01*
X120966308Y-49223954D01*
X123375719Y-46814543D01*
X123397043Y-46797043D01*
X123466873Y-46711954D01*
X123518761Y-46614878D01*
X123550714Y-46509544D01*
X123558800Y-46427444D01*
X123558800Y-46427443D01*
X123561503Y-46400001D01*
X123558800Y-46372559D01*
X123558800Y-45735701D01*
X123606642Y-45687859D01*
X123692113Y-45559942D01*
X123750987Y-45417809D01*
X123781000Y-45266922D01*
X123781000Y-45113078D01*
X128319000Y-45113078D01*
X128319000Y-45266922D01*
X128349013Y-45417809D01*
X128407887Y-45559942D01*
X128493358Y-45687859D01*
X128541200Y-45735701D01*
X128541201Y-47402548D01*
X128538497Y-47430000D01*
X128549287Y-47539544D01*
X128581239Y-47644877D01*
X128581240Y-47644878D01*
X128633128Y-47741954D01*
X128702958Y-47827043D01*
X128724276Y-47844538D01*
X130255457Y-49375719D01*
X130272957Y-49397043D01*
X130358046Y-49466873D01*
X130455122Y-49518761D01*
X130560456Y-49550714D01*
X130642556Y-49558800D01*
X130642557Y-49558800D01*
X130669999Y-49561503D01*
X130697441Y-49558800D01*
X137568538Y-49558800D01*
X138119000Y-50109263D01*
X138119000Y-50176922D01*
X138149013Y-50327809D01*
X138207887Y-50469942D01*
X138293358Y-50597859D01*
X138402141Y-50706642D01*
X138530058Y-50792113D01*
X138672191Y-50850987D01*
X138823078Y-50881000D01*
X138976922Y-50881000D01*
X139127809Y-50850987D01*
X139269942Y-50792113D01*
X139397859Y-50706642D01*
X139506642Y-50597859D01*
X139592113Y-50469942D01*
X139602473Y-50444931D01*
X143292001Y-54134460D01*
X143292000Y-55803499D01*
X143193358Y-55902141D01*
X143107887Y-56030058D01*
X143049013Y-56172191D01*
X143019000Y-56323078D01*
X143019000Y-56476922D01*
X143049013Y-56627809D01*
X143107887Y-56769942D01*
X143193358Y-56897859D01*
X143302141Y-57006642D01*
X143430058Y-57092113D01*
X143572191Y-57150987D01*
X143723078Y-57181000D01*
X143876922Y-57181000D01*
X144027809Y-57150987D01*
X144169942Y-57092113D01*
X144297859Y-57006642D01*
X144355433Y-56949068D01*
X144397050Y-57049539D01*
X144533256Y-57253386D01*
X144706614Y-57426744D01*
X144910461Y-57562950D01*
X145136964Y-57656771D01*
X145377418Y-57704600D01*
X145622582Y-57704600D01*
X145863036Y-57656771D01*
X146089539Y-57562950D01*
X146293386Y-57426744D01*
X146466744Y-57253386D01*
X146602950Y-57049539D01*
X146696771Y-56823036D01*
X146744600Y-56582582D01*
X146744600Y-56337418D01*
X146696771Y-56096964D01*
X146602950Y-55870461D01*
X146466744Y-55666614D01*
X146293386Y-55493256D01*
X146089539Y-55357050D01*
X146016632Y-55326851D01*
X146138493Y-55283786D01*
X146279218Y-55208567D01*
X146358499Y-54958104D01*
X145500000Y-54099605D01*
X144641501Y-54958104D01*
X144720782Y-55208567D01*
X144975327Y-55330182D01*
X144910461Y-55357050D01*
X144706614Y-55493256D01*
X144533256Y-55666614D01*
X144397050Y-55870461D01*
X144390581Y-55886080D01*
X144308000Y-55803499D01*
X144308000Y-54729785D01*
X144461896Y-54778499D01*
X145320395Y-53920000D01*
X145679605Y-53920000D01*
X146538104Y-54778499D01*
X146788567Y-54699218D01*
X146915826Y-54432859D01*
X146988675Y-54146790D01*
X147004315Y-53852007D01*
X146962145Y-53559836D01*
X146863786Y-53281507D01*
X146788567Y-53140782D01*
X146538104Y-53061501D01*
X145679605Y-53920000D01*
X145320395Y-53920000D01*
X144461896Y-53061501D01*
X144211433Y-53140782D01*
X144084174Y-53407141D01*
X144067399Y-53473016D01*
X143476279Y-52881896D01*
X144641501Y-52881896D01*
X145500000Y-53740395D01*
X146358499Y-52881896D01*
X146279218Y-52631433D01*
X146012859Y-52504174D01*
X145726790Y-52431325D01*
X145432007Y-52415685D01*
X145139836Y-52457855D01*
X144861507Y-52556214D01*
X144720782Y-52631433D01*
X144641501Y-52881896D01*
X143476279Y-52881896D01*
X138481000Y-47886618D01*
X138481000Y-47823078D01*
X138450987Y-47672191D01*
X138392113Y-47530058D01*
X138343577Y-47457418D01*
X144255400Y-47457418D01*
X144255400Y-47702582D01*
X144303229Y-47943036D01*
X144397050Y-48169539D01*
X144533256Y-48373386D01*
X144706614Y-48546744D01*
X144910461Y-48682950D01*
X145136964Y-48776771D01*
X145377418Y-48824600D01*
X145622582Y-48824600D01*
X145863036Y-48776771D01*
X146089539Y-48682950D01*
X146293386Y-48546744D01*
X146466744Y-48373386D01*
X146602950Y-48169539D01*
X146696771Y-47943036D01*
X146744600Y-47702582D01*
X146744600Y-47457418D01*
X146696771Y-47216964D01*
X146602950Y-46990461D01*
X146466744Y-46786614D01*
X146293386Y-46613256D01*
X146089539Y-46477050D01*
X145863036Y-46383229D01*
X145622582Y-46335400D01*
X145377418Y-46335400D01*
X145136964Y-46383229D01*
X144910461Y-46477050D01*
X144706614Y-46613256D01*
X144533256Y-46786614D01*
X144397050Y-46990461D01*
X144303229Y-47216964D01*
X144255400Y-47457418D01*
X138343577Y-47457418D01*
X138306642Y-47402141D01*
X138197859Y-47293358D01*
X138069942Y-47207887D01*
X137927809Y-47149013D01*
X137776922Y-47119000D01*
X137623078Y-47119000D01*
X137472191Y-47149013D01*
X137330058Y-47207887D01*
X137202141Y-47293358D01*
X137093358Y-47402141D01*
X137007887Y-47530058D01*
X136949013Y-47672191D01*
X136919000Y-47823078D01*
X136919000Y-47976922D01*
X136949013Y-48127809D01*
X137007887Y-48269942D01*
X137093358Y-48397859D01*
X137136699Y-48441200D01*
X130901462Y-48441200D01*
X129658800Y-47198538D01*
X129658800Y-45735701D01*
X129706642Y-45687859D01*
X129792113Y-45559942D01*
X129850987Y-45417809D01*
X129881000Y-45266922D01*
X129881000Y-45113078D01*
X129863099Y-45023078D01*
X133219000Y-45023078D01*
X133219000Y-45176922D01*
X133249013Y-45327809D01*
X133307887Y-45469942D01*
X133393358Y-45597859D01*
X133502141Y-45706642D01*
X133630058Y-45792113D01*
X133772191Y-45850987D01*
X133923078Y-45881000D01*
X134076922Y-45881000D01*
X134227809Y-45850987D01*
X134369942Y-45792113D01*
X134497859Y-45706642D01*
X134599547Y-45604954D01*
X144379796Y-45587885D01*
X144397050Y-45629539D01*
X144533256Y-45833386D01*
X144706614Y-46006744D01*
X144910461Y-46142950D01*
X145136964Y-46236771D01*
X145377418Y-46284600D01*
X145622582Y-46284600D01*
X145863036Y-46236771D01*
X146089539Y-46142950D01*
X146293386Y-46006744D01*
X146466744Y-45833386D01*
X146602950Y-45629539D01*
X146696771Y-45403036D01*
X146744600Y-45162582D01*
X146744600Y-44917418D01*
X146696771Y-44676964D01*
X146602950Y-44450461D01*
X146466744Y-44246614D01*
X146293386Y-44073256D01*
X146089539Y-43937050D01*
X145863036Y-43843229D01*
X145622582Y-43795400D01*
X145377418Y-43795400D01*
X145136964Y-43843229D01*
X144910461Y-43937050D01*
X144706614Y-44073256D01*
X144533256Y-44246614D01*
X144397050Y-44450461D01*
X144345072Y-44575946D01*
X134597458Y-44592957D01*
X134497859Y-44493358D01*
X134369942Y-44407887D01*
X134227809Y-44349013D01*
X134076922Y-44319000D01*
X133923078Y-44319000D01*
X133772191Y-44349013D01*
X133630058Y-44407887D01*
X133502141Y-44493358D01*
X133393358Y-44602141D01*
X133307887Y-44730058D01*
X133249013Y-44872191D01*
X133219000Y-45023078D01*
X129863099Y-45023078D01*
X129850987Y-44962191D01*
X129792113Y-44820058D01*
X129706642Y-44692141D01*
X129597859Y-44583358D01*
X129469942Y-44497887D01*
X129327809Y-44439013D01*
X129176922Y-44409000D01*
X129023078Y-44409000D01*
X128872191Y-44439013D01*
X128730058Y-44497887D01*
X128602141Y-44583358D01*
X128493358Y-44692141D01*
X128407887Y-44820058D01*
X128349013Y-44962191D01*
X128319000Y-45113078D01*
X123781000Y-45113078D01*
X123750987Y-44962191D01*
X123692113Y-44820058D01*
X123606642Y-44692141D01*
X123497859Y-44583358D01*
X123369942Y-44497887D01*
X123227809Y-44439013D01*
X123076922Y-44409000D01*
X122923078Y-44409000D01*
X122772191Y-44439013D01*
X122630058Y-44497887D01*
X122502141Y-44583358D01*
X122393358Y-44692141D01*
X122307887Y-44820058D01*
X122249013Y-44962191D01*
X122219000Y-45113078D01*
X122219000Y-45266922D01*
X122249013Y-45417809D01*
X122307887Y-45559942D01*
X122393358Y-45687859D01*
X122441200Y-45735701D01*
X122441201Y-46168537D01*
X120168538Y-48441200D01*
X115963301Y-48441200D01*
X116006642Y-48397859D01*
X116092113Y-48269942D01*
X116150987Y-48127809D01*
X116181000Y-47976922D01*
X116181000Y-47823078D01*
X116150987Y-47672191D01*
X116092113Y-47530058D01*
X116006642Y-47402141D01*
X115897859Y-47293358D01*
X115769942Y-47207887D01*
X115627809Y-47149013D01*
X115476922Y-47119000D01*
X115323078Y-47119000D01*
X115172191Y-47149013D01*
X115030058Y-47207887D01*
X114902141Y-47293358D01*
X114854299Y-47341200D01*
X106645701Y-47341200D01*
X106597859Y-47293358D01*
X106469942Y-47207887D01*
X106327809Y-47149013D01*
X106176922Y-47119000D01*
X106023078Y-47119000D01*
X105872191Y-47149013D01*
X105730058Y-47207887D01*
X105602141Y-47293358D01*
X105493358Y-47402141D01*
X105407887Y-47530058D01*
X105349013Y-47672191D01*
X105319000Y-47823078D01*
X100712675Y-47823078D01*
X100744600Y-47662582D01*
X100744600Y-47417418D01*
X100696771Y-47176964D01*
X100602950Y-46950461D01*
X100466744Y-46746614D01*
X100293386Y-46573256D01*
X100089539Y-46437050D01*
X99863036Y-46343229D01*
X99622582Y-46295400D01*
X99377418Y-46295400D01*
X99136964Y-46343229D01*
X98910461Y-46437050D01*
X98706614Y-46573256D01*
X98533256Y-46746614D01*
X98397050Y-46950461D01*
X98303229Y-47176964D01*
X98255400Y-47417418D01*
X97931000Y-47417418D01*
X97931000Y-44877418D01*
X98255400Y-44877418D01*
X98255400Y-45122582D01*
X98303229Y-45363036D01*
X98397050Y-45589539D01*
X98533256Y-45793386D01*
X98706614Y-45966744D01*
X98910461Y-46102950D01*
X99136964Y-46196771D01*
X99377418Y-46244600D01*
X99622582Y-46244600D01*
X99863036Y-46196771D01*
X100089539Y-46102950D01*
X100293386Y-45966744D01*
X100466744Y-45793386D01*
X100602950Y-45589539D01*
X100696771Y-45363036D01*
X100744600Y-45122582D01*
X100744600Y-44877418D01*
X100696771Y-44636964D01*
X100602950Y-44410461D01*
X100466744Y-44206614D01*
X100293386Y-44033256D01*
X100089539Y-43897050D01*
X99863036Y-43803229D01*
X99622582Y-43755400D01*
X99377418Y-43755400D01*
X99136964Y-43803229D01*
X98910461Y-43897050D01*
X98706614Y-44033256D01*
X98533256Y-44206614D01*
X98397050Y-44410461D01*
X98303229Y-44636964D01*
X98255400Y-44877418D01*
X97931000Y-44877418D01*
X97931000Y-42337418D01*
X98255400Y-42337418D01*
X98255400Y-42582582D01*
X98303229Y-42823036D01*
X98397050Y-43049539D01*
X98533256Y-43253386D01*
X98706614Y-43426744D01*
X98910461Y-43562950D01*
X99136964Y-43656771D01*
X99377418Y-43704600D01*
X99622582Y-43704600D01*
X99863036Y-43656771D01*
X100089539Y-43562950D01*
X100293386Y-43426744D01*
X100466744Y-43253386D01*
X100602950Y-43049539D01*
X100696771Y-42823036D01*
X100744600Y-42582582D01*
X100744600Y-42377418D01*
X144255400Y-42377418D01*
X144255400Y-42622582D01*
X144303229Y-42863036D01*
X144397050Y-43089539D01*
X144533256Y-43293386D01*
X144706614Y-43466744D01*
X144910461Y-43602950D01*
X145136964Y-43696771D01*
X145377418Y-43744600D01*
X145622582Y-43744600D01*
X145863036Y-43696771D01*
X146089539Y-43602950D01*
X146293386Y-43466744D01*
X146466744Y-43293386D01*
X146602950Y-43089539D01*
X146696771Y-42863036D01*
X146744600Y-42622582D01*
X146744600Y-42377418D01*
X146696771Y-42136964D01*
X146602950Y-41910461D01*
X146466744Y-41706614D01*
X146293386Y-41533256D01*
X146089539Y-41397050D01*
X145863036Y-41303229D01*
X145622582Y-41255400D01*
X145377418Y-41255400D01*
X145136964Y-41303229D01*
X144910461Y-41397050D01*
X144706614Y-41533256D01*
X144533256Y-41706614D01*
X144397050Y-41910461D01*
X144303229Y-42136964D01*
X144255400Y-42377418D01*
X100744600Y-42377418D01*
X100744600Y-42337418D01*
X100696771Y-42096964D01*
X100602950Y-41870461D01*
X100466744Y-41666614D01*
X100293386Y-41493256D01*
X100089539Y-41357050D01*
X99863036Y-41263229D01*
X99622582Y-41215400D01*
X99377418Y-41215400D01*
X99136964Y-41263229D01*
X98910461Y-41357050D01*
X98706614Y-41493256D01*
X98533256Y-41666614D01*
X98397050Y-41870461D01*
X98303229Y-42096964D01*
X98255400Y-42337418D01*
X97931000Y-42337418D01*
X97931000Y-40431000D01*
X147069001Y-40431000D01*
X147069000Y-61769000D01*
G37*
G04 #@! TD.AperFunction*
M02*
