G04 #@! TF.GenerationSoftware,KiCad,Pcbnew,(5.1.8)-1*
G04 #@! TF.CreationDate,2021-08-08T18:19:28-04:00*
G04 #@! TF.ProjectId,nearless_back_pcb,6e656172-6c65-4737-935f-6261636b5f70,rev?*
G04 #@! TF.SameCoordinates,Original*
G04 #@! TF.FileFunction,Paste,Top*
G04 #@! TF.FilePolarity,Positive*
%FSLAX46Y46*%
G04 Gerber Fmt 4.6, Leading zero omitted, Abs format (unit mm)*
G04 Created by KiCad (PCBNEW (5.1.8)-1) date 2021-08-08 18:19:28*
%MOMM*%
%LPD*%
G01*
G04 APERTURE LIST*
%ADD10R,1.500000X1.300000*%
%ADD11R,1.300000X1.500000*%
%ADD12R,0.650000X2.000000*%
%ADD13R,1.400000X1.400000*%
G04 APERTURE END LIST*
D10*
X138500000Y-59300000D03*
X138500000Y-57300000D03*
X109500000Y-59300000D03*
X109500000Y-57300000D03*
X135500000Y-59300000D03*
X135500000Y-57300000D03*
X106500000Y-59300000D03*
X106500000Y-57300000D03*
X141500000Y-47800000D03*
X141500000Y-45800000D03*
X112500000Y-49000000D03*
X112500000Y-47000000D03*
D11*
X133200000Y-42500000D03*
X135200000Y-42500000D03*
X139300000Y-42500000D03*
X137300000Y-42500000D03*
X104200000Y-42500000D03*
X106200000Y-42500000D03*
X110300000Y-42500000D03*
X108300000Y-42500000D03*
D10*
X132500000Y-45800000D03*
X132500000Y-47800000D03*
X141500000Y-53800000D03*
X141500000Y-51800000D03*
X103500000Y-45800000D03*
X103500000Y-47800000D03*
X112500000Y-53800000D03*
X112500000Y-51800000D03*
D11*
X138000000Y-55000000D03*
X136000000Y-55000000D03*
X109000000Y-55000000D03*
X107000000Y-55000000D03*
D12*
X138905000Y-52000000D03*
X137635000Y-52000000D03*
X136365000Y-52000000D03*
X135095000Y-52000000D03*
X135095000Y-46000000D03*
X136365000Y-46000000D03*
X137635000Y-46000000D03*
X138905000Y-46000000D03*
X109905000Y-52000000D03*
X108635000Y-52000000D03*
X107365000Y-52000000D03*
X106095000Y-52000000D03*
X106095000Y-46000000D03*
X107365000Y-46000000D03*
X108635000Y-46000000D03*
X109905000Y-46000000D03*
D13*
X117400000Y-45190000D03*
X117400000Y-48990000D03*
X127600000Y-48990000D03*
X127600000Y-45190000D03*
D10*
X120500000Y-46990000D03*
X120500000Y-48990000D03*
X124500000Y-47190000D03*
X124500000Y-45190000D03*
M02*
