G04 #@! TF.GenerationSoftware,KiCad,Pcbnew,(5.1.8)-1*
G04 #@! TF.CreationDate,2021-08-08T18:19:28-04:00*
G04 #@! TF.ProjectId,nearless_back_pcb,6e656172-6c65-4737-935f-6261636b5f70,rev?*
G04 #@! TF.SameCoordinates,Original*
G04 #@! TF.FileFunction,Legend,Top*
G04 #@! TF.FilePolarity,Positive*
%FSLAX46Y46*%
G04 Gerber Fmt 4.6, Leading zero omitted, Abs format (unit mm)*
G04 Created by KiCad (PCBNEW (5.1.8)-1) date 2021-08-08 18:19:28*
%MOMM*%
%LPD*%
G01*
G04 APERTURE LIST*
%ADD10C,0.150000*%
%ADD11C,0.100000*%
%ADD12R,1.500000X1.300000*%
%ADD13R,1.300000X1.500000*%
%ADD14C,1.727200*%
%ADD15R,0.650000X2.000000*%
%ADD16R,1.400000X1.400000*%
G04 APERTURE END LIST*
D10*
X138984853Y-47470000D02*
G75*
G03*
X138984853Y-47470000I-84853J0D01*
G01*
X110084853Y-47470000D02*
G75*
G03*
X110084853Y-47470000I-84853J0D01*
G01*
D11*
X137450000Y-56350000D02*
X139550000Y-56350000D01*
X137450000Y-60250000D02*
X137450000Y-56350000D01*
X139550000Y-60250000D02*
X137450000Y-60250000D01*
X139550000Y-56350000D02*
X139550000Y-60250000D01*
X108450000Y-56350000D02*
X110550000Y-56350000D01*
X108450000Y-60250000D02*
X108450000Y-56350000D01*
X110550000Y-60250000D02*
X108450000Y-60250000D01*
X110550000Y-56350000D02*
X110550000Y-60250000D01*
X134450000Y-56350000D02*
X136550000Y-56350000D01*
X134450000Y-60250000D02*
X134450000Y-56350000D01*
X136550000Y-60250000D02*
X134450000Y-60250000D01*
X136550000Y-56350000D02*
X136550000Y-60250000D01*
X105450000Y-56350000D02*
X107550000Y-56350000D01*
X105450000Y-60250000D02*
X105450000Y-56350000D01*
X107550000Y-60250000D02*
X105450000Y-60250000D01*
X107550000Y-56350000D02*
X107550000Y-60250000D01*
X140450000Y-44850000D02*
X142550000Y-44850000D01*
X140450000Y-48750000D02*
X140450000Y-44850000D01*
X142550000Y-48750000D02*
X140450000Y-48750000D01*
X142550000Y-44850000D02*
X142550000Y-48750000D01*
X111450000Y-46050000D02*
X113550000Y-46050000D01*
X111450000Y-49950000D02*
X111450000Y-46050000D01*
X113550000Y-49950000D02*
X111450000Y-49950000D01*
X113550000Y-46050000D02*
X113550000Y-49950000D01*
X136150000Y-41450000D02*
X136150000Y-43550000D01*
X132250000Y-41450000D02*
X136150000Y-41450000D01*
X132250000Y-43550000D02*
X132250000Y-41450000D01*
X136150000Y-43550000D02*
X132250000Y-43550000D01*
X136350000Y-43550000D02*
X136350000Y-41450000D01*
X140250000Y-43550000D02*
X136350000Y-43550000D01*
X140250000Y-41450000D02*
X140250000Y-43550000D01*
X136350000Y-41450000D02*
X140250000Y-41450000D01*
X107150000Y-41450000D02*
X107150000Y-43550000D01*
X103250000Y-41450000D02*
X107150000Y-41450000D01*
X103250000Y-43550000D02*
X103250000Y-41450000D01*
X107150000Y-43550000D02*
X103250000Y-43550000D01*
X107350000Y-43550000D02*
X107350000Y-41450000D01*
X111250000Y-43550000D02*
X107350000Y-43550000D01*
X111250000Y-41450000D02*
X111250000Y-43550000D01*
X107350000Y-41450000D02*
X111250000Y-41450000D01*
X133550000Y-48750000D02*
X131450000Y-48750000D01*
X133550000Y-44850000D02*
X133550000Y-48750000D01*
X131450000Y-44850000D02*
X133550000Y-44850000D01*
X131450000Y-48750000D02*
X131450000Y-44850000D01*
X140450000Y-50850000D02*
X142550000Y-50850000D01*
X140450000Y-54750000D02*
X140450000Y-50850000D01*
X142550000Y-54750000D02*
X140450000Y-54750000D01*
X142550000Y-50850000D02*
X142550000Y-54750000D01*
X104550000Y-48750000D02*
X102450000Y-48750000D01*
X104550000Y-44850000D02*
X104550000Y-48750000D01*
X102450000Y-44850000D02*
X104550000Y-44850000D01*
X102450000Y-48750000D02*
X102450000Y-44850000D01*
X111450000Y-50850000D02*
X113550000Y-50850000D01*
X111450000Y-54750000D02*
X111450000Y-50850000D01*
X113550000Y-54750000D02*
X111450000Y-54750000D01*
X113550000Y-50850000D02*
X113550000Y-54750000D01*
X135050000Y-56050000D02*
X135050000Y-53950000D01*
X138950000Y-56050000D02*
X135050000Y-56050000D01*
X138950000Y-53950000D02*
X138950000Y-56050000D01*
X135050000Y-53950000D02*
X138950000Y-53950000D01*
X106050000Y-56050000D02*
X106050000Y-53950000D01*
X109950000Y-56050000D02*
X106050000Y-56050000D01*
X109950000Y-53950000D02*
X109950000Y-56050000D01*
X106050000Y-53950000D02*
X109950000Y-53950000D01*
X139450000Y-47000000D02*
X139450000Y-51000000D01*
X134550000Y-47000000D02*
X139450000Y-47000000D01*
X134550000Y-51000000D02*
X134550000Y-47000000D01*
X139450000Y-51000000D02*
X134550000Y-51000000D01*
X134550000Y-48000000D02*
X139450000Y-48000000D01*
X110450000Y-47000000D02*
X110450000Y-51000000D01*
X105550000Y-47000000D02*
X110450000Y-47000000D01*
X105550000Y-51000000D02*
X105550000Y-47000000D01*
X110450000Y-51000000D02*
X105550000Y-51000000D01*
X105550000Y-48000000D02*
X110450000Y-48000000D01*
X118400000Y-49990000D02*
X116400000Y-49990000D01*
X118400000Y-44190000D02*
X118400000Y-49990000D01*
X116400000Y-44190000D02*
X118400000Y-44190000D01*
X116400000Y-49990000D02*
X116400000Y-44190000D01*
X116700000Y-47990000D02*
X118100000Y-47990000D01*
X126600000Y-44190000D02*
X128600000Y-44190000D01*
X126600000Y-49990000D02*
X126600000Y-44190000D01*
X128600000Y-49990000D02*
X126600000Y-49990000D01*
X128600000Y-44190000D02*
X128600000Y-49990000D01*
X128300000Y-46190000D02*
X126900000Y-46190000D01*
X121550000Y-49940000D02*
X119450000Y-49940000D01*
X121550000Y-46040000D02*
X121550000Y-49940000D01*
X119450000Y-46040000D02*
X121550000Y-46040000D01*
X119450000Y-49940000D02*
X119450000Y-46040000D01*
X123450000Y-44240000D02*
X125550000Y-44240000D01*
X123450000Y-48140000D02*
X123450000Y-44240000D01*
X125550000Y-48140000D02*
X123450000Y-48140000D01*
X125550000Y-44240000D02*
X125550000Y-48140000D01*
D10*
D11*
X141189285Y-59782142D02*
X140832142Y-60032142D01*
X141189285Y-60210714D02*
X140439285Y-60210714D01*
X140439285Y-59925000D01*
X140475000Y-59853571D01*
X140510714Y-59817857D01*
X140582142Y-59782142D01*
X140689285Y-59782142D01*
X140760714Y-59817857D01*
X140796428Y-59853571D01*
X140832142Y-59925000D01*
X140832142Y-60210714D01*
X140510714Y-59496428D02*
X140475000Y-59460714D01*
X140439285Y-59389285D01*
X140439285Y-59210714D01*
X140475000Y-59139285D01*
X140510714Y-59103571D01*
X140582142Y-59067857D01*
X140653571Y-59067857D01*
X140760714Y-59103571D01*
X141189285Y-59532142D01*
X141189285Y-59067857D01*
X140689285Y-58425000D02*
X141189285Y-58425000D01*
X140403571Y-58603571D02*
X140939285Y-58782142D01*
X140939285Y-58317857D01*
X112099285Y-59782142D02*
X111742142Y-60032142D01*
X112099285Y-60210714D02*
X111349285Y-60210714D01*
X111349285Y-59925000D01*
X111385000Y-59853571D01*
X111420714Y-59817857D01*
X111492142Y-59782142D01*
X111599285Y-59782142D01*
X111670714Y-59817857D01*
X111706428Y-59853571D01*
X111742142Y-59925000D01*
X111742142Y-60210714D01*
X111420714Y-59496428D02*
X111385000Y-59460714D01*
X111349285Y-59389285D01*
X111349285Y-59210714D01*
X111385000Y-59139285D01*
X111420714Y-59103571D01*
X111492142Y-59067857D01*
X111563571Y-59067857D01*
X111670714Y-59103571D01*
X112099285Y-59532142D01*
X112099285Y-59067857D01*
X111349285Y-58817857D02*
X111349285Y-58353571D01*
X111635000Y-58603571D01*
X111635000Y-58496428D01*
X111670714Y-58425000D01*
X111706428Y-58389285D01*
X111777857Y-58353571D01*
X111956428Y-58353571D01*
X112027857Y-58389285D01*
X112063571Y-58425000D01*
X112099285Y-58496428D01*
X112099285Y-58710714D01*
X112063571Y-58782142D01*
X112027857Y-58817857D01*
X133569285Y-59782142D02*
X133212142Y-60032142D01*
X133569285Y-60210714D02*
X132819285Y-60210714D01*
X132819285Y-59925000D01*
X132855000Y-59853571D01*
X132890714Y-59817857D01*
X132962142Y-59782142D01*
X133069285Y-59782142D01*
X133140714Y-59817857D01*
X133176428Y-59853571D01*
X133212142Y-59925000D01*
X133212142Y-60210714D01*
X132890714Y-59496428D02*
X132855000Y-59460714D01*
X132819285Y-59389285D01*
X132819285Y-59210714D01*
X132855000Y-59139285D01*
X132890714Y-59103571D01*
X132962142Y-59067857D01*
X133033571Y-59067857D01*
X133140714Y-59103571D01*
X133569285Y-59532142D01*
X133569285Y-59067857D01*
X132890714Y-58782142D02*
X132855000Y-58746428D01*
X132819285Y-58675000D01*
X132819285Y-58496428D01*
X132855000Y-58425000D01*
X132890714Y-58389285D01*
X132962142Y-58353571D01*
X133033571Y-58353571D01*
X133140714Y-58389285D01*
X133569285Y-58817857D01*
X133569285Y-58353571D01*
X104509285Y-59782142D02*
X104152142Y-60032142D01*
X104509285Y-60210714D02*
X103759285Y-60210714D01*
X103759285Y-59925000D01*
X103795000Y-59853571D01*
X103830714Y-59817857D01*
X103902142Y-59782142D01*
X104009285Y-59782142D01*
X104080714Y-59817857D01*
X104116428Y-59853571D01*
X104152142Y-59925000D01*
X104152142Y-60210714D01*
X103830714Y-59496428D02*
X103795000Y-59460714D01*
X103759285Y-59389285D01*
X103759285Y-59210714D01*
X103795000Y-59139285D01*
X103830714Y-59103571D01*
X103902142Y-59067857D01*
X103973571Y-59067857D01*
X104080714Y-59103571D01*
X104509285Y-59532142D01*
X104509285Y-59067857D01*
X104509285Y-58353571D02*
X104509285Y-58782142D01*
X104509285Y-58567857D02*
X103759285Y-58567857D01*
X103866428Y-58639285D01*
X103937857Y-58710714D01*
X103973571Y-58782142D01*
X143744285Y-47282142D02*
X143387142Y-47532142D01*
X143744285Y-47710714D02*
X142994285Y-47710714D01*
X142994285Y-47425000D01*
X143030000Y-47353571D01*
X143065714Y-47317857D01*
X143137142Y-47282142D01*
X143244285Y-47282142D01*
X143315714Y-47317857D01*
X143351428Y-47353571D01*
X143387142Y-47425000D01*
X143387142Y-47710714D01*
X143065714Y-46996428D02*
X143030000Y-46960714D01*
X142994285Y-46889285D01*
X142994285Y-46710714D01*
X143030000Y-46639285D01*
X143065714Y-46603571D01*
X143137142Y-46567857D01*
X143208571Y-46567857D01*
X143315714Y-46603571D01*
X143744285Y-47032142D01*
X143744285Y-46567857D01*
X142994285Y-46103571D02*
X142994285Y-46032142D01*
X143030000Y-45960714D01*
X143065714Y-45925000D01*
X143137142Y-45889285D01*
X143280000Y-45853571D01*
X143458571Y-45853571D01*
X143601428Y-45889285D01*
X143672857Y-45925000D01*
X143708571Y-45960714D01*
X143744285Y-46032142D01*
X143744285Y-46103571D01*
X143708571Y-46175000D01*
X143672857Y-46210714D01*
X143601428Y-46246428D01*
X143458571Y-46282142D01*
X143280000Y-46282142D01*
X143137142Y-46246428D01*
X143065714Y-46210714D01*
X143030000Y-46175000D01*
X142994285Y-46103571D01*
X114839285Y-45682142D02*
X114482142Y-45932142D01*
X114839285Y-46110714D02*
X114089285Y-46110714D01*
X114089285Y-45825000D01*
X114125000Y-45753571D01*
X114160714Y-45717857D01*
X114232142Y-45682142D01*
X114339285Y-45682142D01*
X114410714Y-45717857D01*
X114446428Y-45753571D01*
X114482142Y-45825000D01*
X114482142Y-46110714D01*
X114839285Y-44967857D02*
X114839285Y-45396428D01*
X114839285Y-45182142D02*
X114089285Y-45182142D01*
X114196428Y-45253571D01*
X114267857Y-45325000D01*
X114303571Y-45396428D01*
X114839285Y-44610714D02*
X114839285Y-44467857D01*
X114803571Y-44396428D01*
X114767857Y-44360714D01*
X114660714Y-44289285D01*
X114517857Y-44253571D01*
X114232142Y-44253571D01*
X114160714Y-44289285D01*
X114125000Y-44325000D01*
X114089285Y-44396428D01*
X114089285Y-44539285D01*
X114125000Y-44610714D01*
X114160714Y-44646428D01*
X114232142Y-44682142D01*
X114410714Y-44682142D01*
X114482142Y-44646428D01*
X114517857Y-44610714D01*
X114553571Y-44539285D01*
X114553571Y-44396428D01*
X114517857Y-44325000D01*
X114482142Y-44289285D01*
X114410714Y-44253571D01*
X130297857Y-42769285D02*
X130047857Y-42412142D01*
X129869285Y-42769285D02*
X129869285Y-42019285D01*
X130155000Y-42019285D01*
X130226428Y-42055000D01*
X130262142Y-42090714D01*
X130297857Y-42162142D01*
X130297857Y-42269285D01*
X130262142Y-42340714D01*
X130226428Y-42376428D01*
X130155000Y-42412142D01*
X129869285Y-42412142D01*
X131012142Y-42769285D02*
X130583571Y-42769285D01*
X130797857Y-42769285D02*
X130797857Y-42019285D01*
X130726428Y-42126428D01*
X130655000Y-42197857D01*
X130583571Y-42233571D01*
X131440714Y-42340714D02*
X131369285Y-42305000D01*
X131333571Y-42269285D01*
X131297857Y-42197857D01*
X131297857Y-42162142D01*
X131333571Y-42090714D01*
X131369285Y-42055000D01*
X131440714Y-42019285D01*
X131583571Y-42019285D01*
X131655000Y-42055000D01*
X131690714Y-42090714D01*
X131726428Y-42162142D01*
X131726428Y-42197857D01*
X131690714Y-42269285D01*
X131655000Y-42305000D01*
X131583571Y-42340714D01*
X131440714Y-42340714D01*
X131369285Y-42376428D01*
X131333571Y-42412142D01*
X131297857Y-42483571D01*
X131297857Y-42626428D01*
X131333571Y-42697857D01*
X131369285Y-42733571D01*
X131440714Y-42769285D01*
X131583571Y-42769285D01*
X131655000Y-42733571D01*
X131690714Y-42697857D01*
X131726428Y-42626428D01*
X131726428Y-42483571D01*
X131690714Y-42412142D01*
X131655000Y-42376428D01*
X131583571Y-42340714D01*
X141257857Y-42769285D02*
X141007857Y-42412142D01*
X140829285Y-42769285D02*
X140829285Y-42019285D01*
X141115000Y-42019285D01*
X141186428Y-42055000D01*
X141222142Y-42090714D01*
X141257857Y-42162142D01*
X141257857Y-42269285D01*
X141222142Y-42340714D01*
X141186428Y-42376428D01*
X141115000Y-42412142D01*
X140829285Y-42412142D01*
X141972142Y-42769285D02*
X141543571Y-42769285D01*
X141757857Y-42769285D02*
X141757857Y-42019285D01*
X141686428Y-42126428D01*
X141615000Y-42197857D01*
X141543571Y-42233571D01*
X142222142Y-42019285D02*
X142722142Y-42019285D01*
X142400714Y-42769285D01*
X101337857Y-42769285D02*
X101087857Y-42412142D01*
X100909285Y-42769285D02*
X100909285Y-42019285D01*
X101195000Y-42019285D01*
X101266428Y-42055000D01*
X101302142Y-42090714D01*
X101337857Y-42162142D01*
X101337857Y-42269285D01*
X101302142Y-42340714D01*
X101266428Y-42376428D01*
X101195000Y-42412142D01*
X100909285Y-42412142D01*
X102052142Y-42769285D02*
X101623571Y-42769285D01*
X101837857Y-42769285D02*
X101837857Y-42019285D01*
X101766428Y-42126428D01*
X101695000Y-42197857D01*
X101623571Y-42233571D01*
X102695000Y-42019285D02*
X102552142Y-42019285D01*
X102480714Y-42055000D01*
X102445000Y-42090714D01*
X102373571Y-42197857D01*
X102337857Y-42340714D01*
X102337857Y-42626428D01*
X102373571Y-42697857D01*
X102409285Y-42733571D01*
X102480714Y-42769285D01*
X102623571Y-42769285D01*
X102695000Y-42733571D01*
X102730714Y-42697857D01*
X102766428Y-42626428D01*
X102766428Y-42447857D01*
X102730714Y-42376428D01*
X102695000Y-42340714D01*
X102623571Y-42305000D01*
X102480714Y-42305000D01*
X102409285Y-42340714D01*
X102373571Y-42376428D01*
X102337857Y-42447857D01*
X112067857Y-42809285D02*
X111817857Y-42452142D01*
X111639285Y-42809285D02*
X111639285Y-42059285D01*
X111925000Y-42059285D01*
X111996428Y-42095000D01*
X112032142Y-42130714D01*
X112067857Y-42202142D01*
X112067857Y-42309285D01*
X112032142Y-42380714D01*
X111996428Y-42416428D01*
X111925000Y-42452142D01*
X111639285Y-42452142D01*
X112782142Y-42809285D02*
X112353571Y-42809285D01*
X112567857Y-42809285D02*
X112567857Y-42059285D01*
X112496428Y-42166428D01*
X112425000Y-42237857D01*
X112353571Y-42273571D01*
X113460714Y-42059285D02*
X113103571Y-42059285D01*
X113067857Y-42416428D01*
X113103571Y-42380714D01*
X113175000Y-42345000D01*
X113353571Y-42345000D01*
X113425000Y-42380714D01*
X113460714Y-42416428D01*
X113496428Y-42487857D01*
X113496428Y-42666428D01*
X113460714Y-42737857D01*
X113425000Y-42773571D01*
X113353571Y-42809285D01*
X113175000Y-42809285D01*
X113103571Y-42773571D01*
X113067857Y-42737857D01*
X132767857Y-50185000D02*
X132803571Y-50220714D01*
X132839285Y-50327857D01*
X132839285Y-50399285D01*
X132803571Y-50506428D01*
X132732142Y-50577857D01*
X132660714Y-50613571D01*
X132517857Y-50649285D01*
X132410714Y-50649285D01*
X132267857Y-50613571D01*
X132196428Y-50577857D01*
X132125000Y-50506428D01*
X132089285Y-50399285D01*
X132089285Y-50327857D01*
X132125000Y-50220714D01*
X132160714Y-50185000D01*
X132410714Y-49756428D02*
X132375000Y-49827857D01*
X132339285Y-49863571D01*
X132267857Y-49899285D01*
X132232142Y-49899285D01*
X132160714Y-49863571D01*
X132125000Y-49827857D01*
X132089285Y-49756428D01*
X132089285Y-49613571D01*
X132125000Y-49542142D01*
X132160714Y-49506428D01*
X132232142Y-49470714D01*
X132267857Y-49470714D01*
X132339285Y-49506428D01*
X132375000Y-49542142D01*
X132410714Y-49613571D01*
X132410714Y-49756428D01*
X132446428Y-49827857D01*
X132482142Y-49863571D01*
X132553571Y-49899285D01*
X132696428Y-49899285D01*
X132767857Y-49863571D01*
X132803571Y-49827857D01*
X132839285Y-49756428D01*
X132839285Y-49613571D01*
X132803571Y-49542142D01*
X132767857Y-49506428D01*
X132696428Y-49470714D01*
X132553571Y-49470714D01*
X132482142Y-49506428D01*
X132446428Y-49542142D01*
X132410714Y-49613571D01*
X143672857Y-52925000D02*
X143708571Y-52960714D01*
X143744285Y-53067857D01*
X143744285Y-53139285D01*
X143708571Y-53246428D01*
X143637142Y-53317857D01*
X143565714Y-53353571D01*
X143422857Y-53389285D01*
X143315714Y-53389285D01*
X143172857Y-53353571D01*
X143101428Y-53317857D01*
X143030000Y-53246428D01*
X142994285Y-53139285D01*
X142994285Y-53067857D01*
X143030000Y-52960714D01*
X143065714Y-52925000D01*
X142994285Y-52675000D02*
X142994285Y-52175000D01*
X143744285Y-52496428D01*
X101862857Y-46925000D02*
X101898571Y-46960714D01*
X101934285Y-47067857D01*
X101934285Y-47139285D01*
X101898571Y-47246428D01*
X101827142Y-47317857D01*
X101755714Y-47353571D01*
X101612857Y-47389285D01*
X101505714Y-47389285D01*
X101362857Y-47353571D01*
X101291428Y-47317857D01*
X101220000Y-47246428D01*
X101184285Y-47139285D01*
X101184285Y-47067857D01*
X101220000Y-46960714D01*
X101255714Y-46925000D01*
X101184285Y-46282142D02*
X101184285Y-46425000D01*
X101220000Y-46496428D01*
X101255714Y-46532142D01*
X101362857Y-46603571D01*
X101505714Y-46639285D01*
X101791428Y-46639285D01*
X101862857Y-46603571D01*
X101898571Y-46567857D01*
X101934285Y-46496428D01*
X101934285Y-46353571D01*
X101898571Y-46282142D01*
X101862857Y-46246428D01*
X101791428Y-46210714D01*
X101612857Y-46210714D01*
X101541428Y-46246428D01*
X101505714Y-46282142D01*
X101470000Y-46353571D01*
X101470000Y-46496428D01*
X101505714Y-46567857D01*
X101541428Y-46603571D01*
X101612857Y-46639285D01*
X114672857Y-52925000D02*
X114708571Y-52960714D01*
X114744285Y-53067857D01*
X114744285Y-53139285D01*
X114708571Y-53246428D01*
X114637142Y-53317857D01*
X114565714Y-53353571D01*
X114422857Y-53389285D01*
X114315714Y-53389285D01*
X114172857Y-53353571D01*
X114101428Y-53317857D01*
X114030000Y-53246428D01*
X113994285Y-53139285D01*
X113994285Y-53067857D01*
X114030000Y-52960714D01*
X114065714Y-52925000D01*
X113994285Y-52246428D02*
X113994285Y-52603571D01*
X114351428Y-52639285D01*
X114315714Y-52603571D01*
X114280000Y-52532142D01*
X114280000Y-52353571D01*
X114315714Y-52282142D01*
X114351428Y-52246428D01*
X114422857Y-52210714D01*
X114601428Y-52210714D01*
X114672857Y-52246428D01*
X114708571Y-52282142D01*
X114744285Y-52353571D01*
X114744285Y-52532142D01*
X114708571Y-52603571D01*
X114672857Y-52639285D01*
X133645000Y-55247857D02*
X133609285Y-55283571D01*
X133502142Y-55319285D01*
X133430714Y-55319285D01*
X133323571Y-55283571D01*
X133252142Y-55212142D01*
X133216428Y-55140714D01*
X133180714Y-54997857D01*
X133180714Y-54890714D01*
X133216428Y-54747857D01*
X133252142Y-54676428D01*
X133323571Y-54605000D01*
X133430714Y-54569285D01*
X133502142Y-54569285D01*
X133609285Y-54605000D01*
X133645000Y-54640714D01*
X133930714Y-54640714D02*
X133966428Y-54605000D01*
X134037857Y-54569285D01*
X134216428Y-54569285D01*
X134287857Y-54605000D01*
X134323571Y-54640714D01*
X134359285Y-54712142D01*
X134359285Y-54783571D01*
X134323571Y-54890714D01*
X133895000Y-55319285D01*
X134359285Y-55319285D01*
X104515000Y-55307857D02*
X104479285Y-55343571D01*
X104372142Y-55379285D01*
X104300714Y-55379285D01*
X104193571Y-55343571D01*
X104122142Y-55272142D01*
X104086428Y-55200714D01*
X104050714Y-55057857D01*
X104050714Y-54950714D01*
X104086428Y-54807857D01*
X104122142Y-54736428D01*
X104193571Y-54665000D01*
X104300714Y-54629285D01*
X104372142Y-54629285D01*
X104479285Y-54665000D01*
X104515000Y-54700714D01*
X105229285Y-55379285D02*
X104800714Y-55379285D01*
X105015000Y-55379285D02*
X105015000Y-54629285D01*
X104943571Y-54736428D01*
X104872142Y-54807857D01*
X104800714Y-54843571D01*
D10*
X130173571Y-57831428D02*
X130173571Y-57260000D01*
X130459285Y-57545714D02*
X129887857Y-57545714D01*
X130459285Y-56510000D02*
X130459285Y-56938571D01*
X130459285Y-56724285D02*
X129709285Y-56724285D01*
X129816428Y-56795714D01*
X129887857Y-56867142D01*
X129923571Y-56938571D01*
X129780714Y-56224285D02*
X129745000Y-56188571D01*
X129709285Y-56117142D01*
X129709285Y-55938571D01*
X129745000Y-55867142D01*
X129780714Y-55831428D01*
X129852142Y-55795714D01*
X129923571Y-55795714D01*
X130030714Y-55831428D01*
X130459285Y-56260000D01*
X130459285Y-55795714D01*
X129709285Y-55581428D02*
X130459285Y-55331428D01*
X129709285Y-55081428D01*
X114933571Y-57831428D02*
X114933571Y-57260000D01*
X115219285Y-56510000D02*
X115219285Y-56938571D01*
X115219285Y-56724285D02*
X114469285Y-56724285D01*
X114576428Y-56795714D01*
X114647857Y-56867142D01*
X114683571Y-56938571D01*
X114540714Y-56224285D02*
X114505000Y-56188571D01*
X114469285Y-56117142D01*
X114469285Y-55938571D01*
X114505000Y-55867142D01*
X114540714Y-55831428D01*
X114612142Y-55795714D01*
X114683571Y-55795714D01*
X114790714Y-55831428D01*
X115219285Y-56260000D01*
X115219285Y-55795714D01*
X114469285Y-55581428D02*
X115219285Y-55331428D01*
X114469285Y-55081428D01*
D11*
X136438571Y-48899285D02*
X136438571Y-49506428D01*
X136474285Y-49577857D01*
X136510000Y-49613571D01*
X136581428Y-49649285D01*
X136724285Y-49649285D01*
X136795714Y-49613571D01*
X136831428Y-49577857D01*
X136867142Y-49506428D01*
X136867142Y-48899285D01*
X137188571Y-48970714D02*
X137224285Y-48935000D01*
X137295714Y-48899285D01*
X137474285Y-48899285D01*
X137545714Y-48935000D01*
X137581428Y-48970714D01*
X137617142Y-49042142D01*
X137617142Y-49113571D01*
X137581428Y-49220714D01*
X137152857Y-49649285D01*
X137617142Y-49649285D01*
X107498571Y-48899285D02*
X107498571Y-49506428D01*
X107534285Y-49577857D01*
X107570000Y-49613571D01*
X107641428Y-49649285D01*
X107784285Y-49649285D01*
X107855714Y-49613571D01*
X107891428Y-49577857D01*
X107927142Y-49506428D01*
X107927142Y-48899285D01*
X108677142Y-49649285D02*
X108248571Y-49649285D01*
X108462857Y-49649285D02*
X108462857Y-48899285D01*
X108391428Y-49006428D01*
X108320000Y-49077857D01*
X108248571Y-49113571D01*
X117779285Y-51783571D02*
X117029285Y-51783571D01*
X117029285Y-51605000D01*
X117065000Y-51497857D01*
X117136428Y-51426428D01*
X117207857Y-51390714D01*
X117350714Y-51355000D01*
X117457857Y-51355000D01*
X117600714Y-51390714D01*
X117672142Y-51426428D01*
X117743571Y-51497857D01*
X117779285Y-51605000D01*
X117779285Y-51783571D01*
X117100714Y-51069285D02*
X117065000Y-51033571D01*
X117029285Y-50962142D01*
X117029285Y-50783571D01*
X117065000Y-50712142D01*
X117100714Y-50676428D01*
X117172142Y-50640714D01*
X117243571Y-50640714D01*
X117350714Y-50676428D01*
X117779285Y-51105000D01*
X117779285Y-50640714D01*
X127909285Y-51753571D02*
X127159285Y-51753571D01*
X127159285Y-51575000D01*
X127195000Y-51467857D01*
X127266428Y-51396428D01*
X127337857Y-51360714D01*
X127480714Y-51325000D01*
X127587857Y-51325000D01*
X127730714Y-51360714D01*
X127802142Y-51396428D01*
X127873571Y-51467857D01*
X127909285Y-51575000D01*
X127909285Y-51753571D01*
X127909285Y-50610714D02*
X127909285Y-51039285D01*
X127909285Y-50825000D02*
X127159285Y-50825000D01*
X127266428Y-50896428D01*
X127337857Y-50967857D01*
X127373571Y-51039285D01*
X120727857Y-51325000D02*
X120763571Y-51360714D01*
X120799285Y-51467857D01*
X120799285Y-51539285D01*
X120763571Y-51646428D01*
X120692142Y-51717857D01*
X120620714Y-51753571D01*
X120477857Y-51789285D01*
X120370714Y-51789285D01*
X120227857Y-51753571D01*
X120156428Y-51717857D01*
X120085000Y-51646428D01*
X120049285Y-51539285D01*
X120049285Y-51467857D01*
X120085000Y-51360714D01*
X120120714Y-51325000D01*
X120299285Y-50682142D02*
X120799285Y-50682142D01*
X120013571Y-50860714D02*
X120549285Y-51039285D01*
X120549285Y-50575000D01*
X124757857Y-49545000D02*
X124793571Y-49580714D01*
X124829285Y-49687857D01*
X124829285Y-49759285D01*
X124793571Y-49866428D01*
X124722142Y-49937857D01*
X124650714Y-49973571D01*
X124507857Y-50009285D01*
X124400714Y-50009285D01*
X124257857Y-49973571D01*
X124186428Y-49937857D01*
X124115000Y-49866428D01*
X124079285Y-49759285D01*
X124079285Y-49687857D01*
X124115000Y-49580714D01*
X124150714Y-49545000D01*
X124079285Y-49295000D02*
X124079285Y-48830714D01*
X124365000Y-49080714D01*
X124365000Y-48973571D01*
X124400714Y-48902142D01*
X124436428Y-48866428D01*
X124507857Y-48830714D01*
X124686428Y-48830714D01*
X124757857Y-48866428D01*
X124793571Y-48902142D01*
X124829285Y-48973571D01*
X124829285Y-49187857D01*
X124793571Y-49259285D01*
X124757857Y-49295000D01*
%LPC*%
D12*
X138500000Y-59300000D03*
X138500000Y-57300000D03*
X109500000Y-59300000D03*
X109500000Y-57300000D03*
X135500000Y-59300000D03*
X135500000Y-57300000D03*
X106500000Y-59300000D03*
X106500000Y-57300000D03*
X141500000Y-47800000D03*
X141500000Y-45800000D03*
X112500000Y-49000000D03*
X112500000Y-47000000D03*
D13*
X133200000Y-42500000D03*
X135200000Y-42500000D03*
X139300000Y-42500000D03*
X137300000Y-42500000D03*
X104200000Y-42500000D03*
X106200000Y-42500000D03*
X110300000Y-42500000D03*
X108300000Y-42500000D03*
D12*
X132500000Y-45800000D03*
X132500000Y-47800000D03*
X141500000Y-53800000D03*
X141500000Y-51800000D03*
X103500000Y-45800000D03*
X103500000Y-47800000D03*
X112500000Y-53800000D03*
X112500000Y-51800000D03*
D13*
X138000000Y-55000000D03*
X136000000Y-55000000D03*
X109000000Y-55000000D03*
X107000000Y-55000000D03*
D14*
X117420000Y-57780000D03*
X117420000Y-55240000D03*
X119960000Y-57780000D03*
X119960000Y-55240000D03*
X122500000Y-57780000D03*
X122500000Y-55240000D03*
X125040000Y-57780000D03*
X125040000Y-55240000D03*
X127580000Y-57780000D03*
X127580000Y-55240000D03*
X99500000Y-59000000D03*
X99500000Y-56460000D03*
X99500000Y-53920000D03*
X145500000Y-53920000D03*
X145500000Y-56460000D03*
X145500000Y-59000000D03*
D15*
X138905000Y-52000000D03*
X137635000Y-52000000D03*
X136365000Y-52000000D03*
X135095000Y-52000000D03*
X135095000Y-46000000D03*
X136365000Y-46000000D03*
X137635000Y-46000000D03*
X138905000Y-46000000D03*
X109905000Y-52000000D03*
X108635000Y-52000000D03*
X107365000Y-52000000D03*
X106095000Y-52000000D03*
X106095000Y-46000000D03*
X107365000Y-46000000D03*
X108635000Y-46000000D03*
X109905000Y-46000000D03*
D14*
X145500000Y-47580000D03*
X145500000Y-45040000D03*
X145500000Y-42500000D03*
X99500000Y-47540000D03*
X99500000Y-45000000D03*
X99500000Y-42460000D03*
D16*
X117400000Y-45190000D03*
X117400000Y-48990000D03*
X127600000Y-48990000D03*
X127600000Y-45190000D03*
D12*
X120500000Y-46990000D03*
X120500000Y-48990000D03*
X124500000Y-47190000D03*
X124500000Y-45190000D03*
M02*
