M48
; DRILL file {KiCad (5.1.8)-1} date 08/08/21 18:20:59
; FORMAT={-:-/ absolute / metric / decimal}
; #@! TF.CreationDate,2021-08-08T18:20:59-04:00
; #@! TF.GenerationSoftware,Kicad,Pcbnew,(5.1.8)-1
; #@! TF.FileFunction,Plated,1,2,PTH
FMAT,2
METRIC
T1C0.400
T2C1.016
%
G90
G05
T1
X106.1Y-47.9
X109.905Y-50.16
X115.4Y-47.9
X123.0Y-45.19
X129.1Y-45.19
X134.0Y-45.1
X137.7Y-47.9
X138.9Y-50.1
X143.8Y-56.4
T2
X145.5Y-53.92
X145.5Y-56.46
X145.5Y-59.0
X117.42Y-55.24
X117.42Y-57.78
X119.96Y-55.24
X119.96Y-57.78
X122.5Y-55.24
X122.5Y-57.78
X125.04Y-55.24
X125.04Y-57.78
X127.58Y-55.24
X127.58Y-57.78
X145.5Y-42.5
X145.5Y-45.04
X145.5Y-47.58
X99.5Y-42.46
X99.5Y-45.0
X99.5Y-47.54
X99.5Y-53.92
X99.5Y-56.46
X99.5Y-59.0
T0
M30
