%FSLAX45Y45*%
G04 Gerber Fmt 4.5, Leading zero omitted, Abs format (unit mm)*
G04 Created by KiCad (PCBNEW (5.1.8)-1) date 2021-07-28 22:21:32*
%MOMM*%
%LPD*%
G01*
G04 APERTURE LIST*
%TA.AperFunction,Profile*%
%ADD10C,0.200000*%
%TD*%
%ADD11C,0.200000*%
%ADD12C,0.300000*%
G04 APERTURE END LIST*
D10*
X20907000Y-2283500D02*
X20907000Y-6248500D01*
X15857000Y-2283500D02*
X20907000Y-2283500D01*
X15857000Y-2283500D02*
X15857000Y-6248500D01*
X15857000Y-6248500D02*
X20907000Y-6248500D01*
D11*
D12*
X16133428Y-6724214D02*
X16133428Y-6424214D01*
X16204857Y-6424214D01*
X16247714Y-6438500D01*
X16276286Y-6467071D01*
X16290571Y-6495643D01*
X16304857Y-6552786D01*
X16304857Y-6595643D01*
X16290571Y-6652786D01*
X16276286Y-6681357D01*
X16247714Y-6709929D01*
X16204857Y-6724214D01*
X16133428Y-6724214D01*
X16433428Y-6724214D02*
X16433428Y-6524214D01*
X16433428Y-6581357D02*
X16447714Y-6552786D01*
X16462000Y-6538500D01*
X16490571Y-6524214D01*
X16519143Y-6524214D01*
X16619143Y-6724214D02*
X16619143Y-6524214D01*
X16619143Y-6424214D02*
X16604857Y-6438500D01*
X16619143Y-6452786D01*
X16633428Y-6438500D01*
X16619143Y-6424214D01*
X16619143Y-6452786D01*
X16804857Y-6724214D02*
X16776286Y-6709929D01*
X16762000Y-6681357D01*
X16762000Y-6424214D01*
X16962000Y-6724214D02*
X16933428Y-6709929D01*
X16919143Y-6681357D01*
X16919143Y-6424214D01*
X17304857Y-6724214D02*
X17304857Y-6424214D01*
X17404857Y-6638500D01*
X17504857Y-6424214D01*
X17504857Y-6724214D01*
X17776286Y-6724214D02*
X17776286Y-6567071D01*
X17762000Y-6538500D01*
X17733428Y-6524214D01*
X17676286Y-6524214D01*
X17647714Y-6538500D01*
X17776286Y-6709929D02*
X17747714Y-6724214D01*
X17676286Y-6724214D01*
X17647714Y-6709929D01*
X17633428Y-6681357D01*
X17633428Y-6652786D01*
X17647714Y-6624214D01*
X17676286Y-6609929D01*
X17747714Y-6609929D01*
X17776286Y-6595643D01*
X17919143Y-6524214D02*
X17919143Y-6824214D01*
X17919143Y-6538500D02*
X17947714Y-6524214D01*
X18004857Y-6524214D01*
X18033428Y-6538500D01*
X18047714Y-6552786D01*
X18062000Y-6581357D01*
X18062000Y-6667071D01*
X18047714Y-6695643D01*
X18033428Y-6709929D01*
X18004857Y-6724214D01*
X17947714Y-6724214D01*
X17919143Y-6709929D01*
X18190571Y-6695643D02*
X18204857Y-6709929D01*
X18190571Y-6724214D01*
X18176286Y-6709929D01*
X18190571Y-6695643D01*
X18190571Y-6724214D01*
X18190571Y-6538500D02*
X18204857Y-6552786D01*
X18190571Y-6567071D01*
X18176286Y-6552786D01*
X18190571Y-6538500D01*
X18190571Y-6567071D01*
M02*
