G04 #@! TF.GenerationSoftware,KiCad,Pcbnew,(5.1.8)-1*
G04 #@! TF.CreationDate,2021-07-28T22:21:21-04:00*
G04 #@! TF.ProjectId,nearless_front_panel,6e656172-6c65-4737-935f-66726f6e745f,rev?*
G04 #@! TF.SameCoordinates,Original*
G04 #@! TF.FileFunction,Copper,L2,Bot*
G04 #@! TF.FilePolarity,Positive*
%FSLAX46Y46*%
G04 Gerber Fmt 4.6, Leading zero omitted, Abs format (unit mm)*
G04 Created by KiCad (PCBNEW (5.1.8)-1) date 2021-07-28 22:21:21*
%MOMM*%
%LPD*%
G01*
G04 APERTURE LIST*
G04 #@! TA.AperFunction,WasherPad*
%ADD10C,3.220000*%
G04 #@! TD*
G04 #@! TA.AperFunction,WasherPad*
%ADD11C,6.200000*%
G04 #@! TD*
G04 #@! TA.AperFunction,NonConductor*
%ADD12C,0.254000*%
G04 #@! TD*
G04 #@! TA.AperFunction,NonConductor*
%ADD13C,0.100000*%
G04 #@! TD*
G04 APERTURE END LIST*
D10*
X166070000Y-25835000D03*
X201620000Y-25835000D03*
X201620000Y-59485000D03*
X166070000Y-59485000D03*
D11*
X190325000Y-49150000D03*
X177325000Y-49150000D03*
X163820000Y-38335000D03*
X203820000Y-38335000D03*
X193820000Y-38335000D03*
X183820000Y-38335000D03*
X173820000Y-38335000D03*
D12*
X208589001Y-62004000D02*
X159051000Y-62004000D01*
X159051000Y-59288904D01*
X164079000Y-59288904D01*
X164079000Y-59681096D01*
X164155513Y-60065753D01*
X164305598Y-60428092D01*
X164523489Y-60754189D01*
X164800811Y-61031511D01*
X165126908Y-61249402D01*
X165489247Y-61399487D01*
X165873904Y-61476000D01*
X166266096Y-61476000D01*
X166650753Y-61399487D01*
X167013092Y-61249402D01*
X167339189Y-61031511D01*
X167616511Y-60754189D01*
X167834402Y-60428092D01*
X167984487Y-60065753D01*
X168061000Y-59681096D01*
X168061000Y-59288904D01*
X199629000Y-59288904D01*
X199629000Y-59681096D01*
X199705513Y-60065753D01*
X199855598Y-60428092D01*
X200073489Y-60754189D01*
X200350811Y-61031511D01*
X200676908Y-61249402D01*
X201039247Y-61399487D01*
X201423904Y-61476000D01*
X201816096Y-61476000D01*
X202200753Y-61399487D01*
X202563092Y-61249402D01*
X202889189Y-61031511D01*
X203166511Y-60754189D01*
X203384402Y-60428092D01*
X203534487Y-60065753D01*
X203611000Y-59681096D01*
X203611000Y-59288904D01*
X203534487Y-58904247D01*
X203384402Y-58541908D01*
X203166511Y-58215811D01*
X202889189Y-57938489D01*
X202563092Y-57720598D01*
X202200753Y-57570513D01*
X201816096Y-57494000D01*
X201423904Y-57494000D01*
X201039247Y-57570513D01*
X200676908Y-57720598D01*
X200350811Y-57938489D01*
X200073489Y-58215811D01*
X199855598Y-58541908D01*
X199705513Y-58904247D01*
X199629000Y-59288904D01*
X168061000Y-59288904D01*
X167984487Y-58904247D01*
X167834402Y-58541908D01*
X167616511Y-58215811D01*
X167339189Y-57938489D01*
X167013092Y-57720598D01*
X166650753Y-57570513D01*
X166266096Y-57494000D01*
X165873904Y-57494000D01*
X165489247Y-57570513D01*
X165126908Y-57720598D01*
X164800811Y-57938489D01*
X164523489Y-58215811D01*
X164305598Y-58541908D01*
X164155513Y-58904247D01*
X164079000Y-59288904D01*
X159051000Y-59288904D01*
X159051000Y-48807151D01*
X173844000Y-48807151D01*
X173844000Y-49492849D01*
X173977773Y-50165370D01*
X174240178Y-50798872D01*
X174621131Y-51369008D01*
X175105992Y-51853869D01*
X175676128Y-52234822D01*
X176309630Y-52497227D01*
X176982151Y-52631000D01*
X177667849Y-52631000D01*
X178340370Y-52497227D01*
X178973872Y-52234822D01*
X179544008Y-51853869D01*
X180028869Y-51369008D01*
X180409822Y-50798872D01*
X180672227Y-50165370D01*
X180806000Y-49492849D01*
X180806000Y-48807151D01*
X186844000Y-48807151D01*
X186844000Y-49492849D01*
X186977773Y-50165370D01*
X187240178Y-50798872D01*
X187621131Y-51369008D01*
X188105992Y-51853869D01*
X188676128Y-52234822D01*
X189309630Y-52497227D01*
X189982151Y-52631000D01*
X190667849Y-52631000D01*
X191340370Y-52497227D01*
X191973872Y-52234822D01*
X192544008Y-51853869D01*
X193028869Y-51369008D01*
X193409822Y-50798872D01*
X193672227Y-50165370D01*
X193806000Y-49492849D01*
X193806000Y-48807151D01*
X193672227Y-48134630D01*
X193409822Y-47501128D01*
X193028869Y-46930992D01*
X192544008Y-46446131D01*
X191973872Y-46065178D01*
X191340370Y-45802773D01*
X190667849Y-45669000D01*
X189982151Y-45669000D01*
X189309630Y-45802773D01*
X188676128Y-46065178D01*
X188105992Y-46446131D01*
X187621131Y-46930992D01*
X187240178Y-47501128D01*
X186977773Y-48134630D01*
X186844000Y-48807151D01*
X180806000Y-48807151D01*
X180672227Y-48134630D01*
X180409822Y-47501128D01*
X180028869Y-46930992D01*
X179544008Y-46446131D01*
X178973872Y-46065178D01*
X178340370Y-45802773D01*
X177667849Y-45669000D01*
X176982151Y-45669000D01*
X176309630Y-45802773D01*
X175676128Y-46065178D01*
X175105992Y-46446131D01*
X174621131Y-46930992D01*
X174240178Y-47501128D01*
X173977773Y-48134630D01*
X173844000Y-48807151D01*
X159051000Y-48807151D01*
X159051000Y-37992151D01*
X160339000Y-37992151D01*
X160339000Y-38677849D01*
X160472773Y-39350370D01*
X160735178Y-39983872D01*
X161116131Y-40554008D01*
X161600992Y-41038869D01*
X162171128Y-41419822D01*
X162804630Y-41682227D01*
X163477151Y-41816000D01*
X164162849Y-41816000D01*
X164835370Y-41682227D01*
X165468872Y-41419822D01*
X166039008Y-41038869D01*
X166523869Y-40554008D01*
X166904822Y-39983872D01*
X167167227Y-39350370D01*
X167301000Y-38677849D01*
X167301000Y-37992151D01*
X170339000Y-37992151D01*
X170339000Y-38677849D01*
X170472773Y-39350370D01*
X170735178Y-39983872D01*
X171116131Y-40554008D01*
X171600992Y-41038869D01*
X172171128Y-41419822D01*
X172804630Y-41682227D01*
X173477151Y-41816000D01*
X174162849Y-41816000D01*
X174835370Y-41682227D01*
X175468872Y-41419822D01*
X176039008Y-41038869D01*
X176523869Y-40554008D01*
X176904822Y-39983872D01*
X177167227Y-39350370D01*
X177301000Y-38677849D01*
X177301000Y-37992151D01*
X180339000Y-37992151D01*
X180339000Y-38677849D01*
X180472773Y-39350370D01*
X180735178Y-39983872D01*
X181116131Y-40554008D01*
X181600992Y-41038869D01*
X182171128Y-41419822D01*
X182804630Y-41682227D01*
X183477151Y-41816000D01*
X184162849Y-41816000D01*
X184835370Y-41682227D01*
X185468872Y-41419822D01*
X186039008Y-41038869D01*
X186523869Y-40554008D01*
X186904822Y-39983872D01*
X187167227Y-39350370D01*
X187301000Y-38677849D01*
X187301000Y-37992151D01*
X190339000Y-37992151D01*
X190339000Y-38677849D01*
X190472773Y-39350370D01*
X190735178Y-39983872D01*
X191116131Y-40554008D01*
X191600992Y-41038869D01*
X192171128Y-41419822D01*
X192804630Y-41682227D01*
X193477151Y-41816000D01*
X194162849Y-41816000D01*
X194835370Y-41682227D01*
X195468872Y-41419822D01*
X196039008Y-41038869D01*
X196523869Y-40554008D01*
X196904822Y-39983872D01*
X197167227Y-39350370D01*
X197301000Y-38677849D01*
X197301000Y-37992151D01*
X200339000Y-37992151D01*
X200339000Y-38677849D01*
X200472773Y-39350370D01*
X200735178Y-39983872D01*
X201116131Y-40554008D01*
X201600992Y-41038869D01*
X202171128Y-41419822D01*
X202804630Y-41682227D01*
X203477151Y-41816000D01*
X204162849Y-41816000D01*
X204835370Y-41682227D01*
X205468872Y-41419822D01*
X206039008Y-41038869D01*
X206523869Y-40554008D01*
X206904822Y-39983872D01*
X207167227Y-39350370D01*
X207301000Y-38677849D01*
X207301000Y-37992151D01*
X207167227Y-37319630D01*
X206904822Y-36686128D01*
X206523869Y-36115992D01*
X206039008Y-35631131D01*
X205468872Y-35250178D01*
X204835370Y-34987773D01*
X204162849Y-34854000D01*
X203477151Y-34854000D01*
X202804630Y-34987773D01*
X202171128Y-35250178D01*
X201600992Y-35631131D01*
X201116131Y-36115992D01*
X200735178Y-36686128D01*
X200472773Y-37319630D01*
X200339000Y-37992151D01*
X197301000Y-37992151D01*
X197167227Y-37319630D01*
X196904822Y-36686128D01*
X196523869Y-36115992D01*
X196039008Y-35631131D01*
X195468872Y-35250178D01*
X194835370Y-34987773D01*
X194162849Y-34854000D01*
X193477151Y-34854000D01*
X192804630Y-34987773D01*
X192171128Y-35250178D01*
X191600992Y-35631131D01*
X191116131Y-36115992D01*
X190735178Y-36686128D01*
X190472773Y-37319630D01*
X190339000Y-37992151D01*
X187301000Y-37992151D01*
X187167227Y-37319630D01*
X186904822Y-36686128D01*
X186523869Y-36115992D01*
X186039008Y-35631131D01*
X185468872Y-35250178D01*
X184835370Y-34987773D01*
X184162849Y-34854000D01*
X183477151Y-34854000D01*
X182804630Y-34987773D01*
X182171128Y-35250178D01*
X181600992Y-35631131D01*
X181116131Y-36115992D01*
X180735178Y-36686128D01*
X180472773Y-37319630D01*
X180339000Y-37992151D01*
X177301000Y-37992151D01*
X177167227Y-37319630D01*
X176904822Y-36686128D01*
X176523869Y-36115992D01*
X176039008Y-35631131D01*
X175468872Y-35250178D01*
X174835370Y-34987773D01*
X174162849Y-34854000D01*
X173477151Y-34854000D01*
X172804630Y-34987773D01*
X172171128Y-35250178D01*
X171600992Y-35631131D01*
X171116131Y-36115992D01*
X170735178Y-36686128D01*
X170472773Y-37319630D01*
X170339000Y-37992151D01*
X167301000Y-37992151D01*
X167167227Y-37319630D01*
X166904822Y-36686128D01*
X166523869Y-36115992D01*
X166039008Y-35631131D01*
X165468872Y-35250178D01*
X164835370Y-34987773D01*
X164162849Y-34854000D01*
X163477151Y-34854000D01*
X162804630Y-34987773D01*
X162171128Y-35250178D01*
X161600992Y-35631131D01*
X161116131Y-36115992D01*
X160735178Y-36686128D01*
X160472773Y-37319630D01*
X160339000Y-37992151D01*
X159051000Y-37992151D01*
X159051000Y-25638904D01*
X164079000Y-25638904D01*
X164079000Y-26031096D01*
X164155513Y-26415753D01*
X164305598Y-26778092D01*
X164523489Y-27104189D01*
X164800811Y-27381511D01*
X165126908Y-27599402D01*
X165489247Y-27749487D01*
X165873904Y-27826000D01*
X166266096Y-27826000D01*
X166650753Y-27749487D01*
X167013092Y-27599402D01*
X167339189Y-27381511D01*
X167616511Y-27104189D01*
X167834402Y-26778092D01*
X167984487Y-26415753D01*
X168061000Y-26031096D01*
X168061000Y-25638904D01*
X199629000Y-25638904D01*
X199629000Y-26031096D01*
X199705513Y-26415753D01*
X199855598Y-26778092D01*
X200073489Y-27104189D01*
X200350811Y-27381511D01*
X200676908Y-27599402D01*
X201039247Y-27749487D01*
X201423904Y-27826000D01*
X201816096Y-27826000D01*
X202200753Y-27749487D01*
X202563092Y-27599402D01*
X202889189Y-27381511D01*
X203166511Y-27104189D01*
X203384402Y-26778092D01*
X203534487Y-26415753D01*
X203611000Y-26031096D01*
X203611000Y-25638904D01*
X203534487Y-25254247D01*
X203384402Y-24891908D01*
X203166511Y-24565811D01*
X202889189Y-24288489D01*
X202563092Y-24070598D01*
X202200753Y-23920513D01*
X201816096Y-23844000D01*
X201423904Y-23844000D01*
X201039247Y-23920513D01*
X200676908Y-24070598D01*
X200350811Y-24288489D01*
X200073489Y-24565811D01*
X199855598Y-24891908D01*
X199705513Y-25254247D01*
X199629000Y-25638904D01*
X168061000Y-25638904D01*
X167984487Y-25254247D01*
X167834402Y-24891908D01*
X167616511Y-24565811D01*
X167339189Y-24288489D01*
X167013092Y-24070598D01*
X166650753Y-23920513D01*
X166266096Y-23844000D01*
X165873904Y-23844000D01*
X165489247Y-23920513D01*
X165126908Y-24070598D01*
X164800811Y-24288489D01*
X164523489Y-24565811D01*
X164305598Y-24891908D01*
X164155513Y-25254247D01*
X164079000Y-25638904D01*
X159051000Y-25638904D01*
X159051000Y-23316000D01*
X208589000Y-23316000D01*
X208589001Y-62004000D01*
G04 #@! TA.AperFunction,NonConductor*
D13*
G36*
X208589001Y-62004000D02*
G01*
X159051000Y-62004000D01*
X159051000Y-59288904D01*
X164079000Y-59288904D01*
X164079000Y-59681096D01*
X164155513Y-60065753D01*
X164305598Y-60428092D01*
X164523489Y-60754189D01*
X164800811Y-61031511D01*
X165126908Y-61249402D01*
X165489247Y-61399487D01*
X165873904Y-61476000D01*
X166266096Y-61476000D01*
X166650753Y-61399487D01*
X167013092Y-61249402D01*
X167339189Y-61031511D01*
X167616511Y-60754189D01*
X167834402Y-60428092D01*
X167984487Y-60065753D01*
X168061000Y-59681096D01*
X168061000Y-59288904D01*
X199629000Y-59288904D01*
X199629000Y-59681096D01*
X199705513Y-60065753D01*
X199855598Y-60428092D01*
X200073489Y-60754189D01*
X200350811Y-61031511D01*
X200676908Y-61249402D01*
X201039247Y-61399487D01*
X201423904Y-61476000D01*
X201816096Y-61476000D01*
X202200753Y-61399487D01*
X202563092Y-61249402D01*
X202889189Y-61031511D01*
X203166511Y-60754189D01*
X203384402Y-60428092D01*
X203534487Y-60065753D01*
X203611000Y-59681096D01*
X203611000Y-59288904D01*
X203534487Y-58904247D01*
X203384402Y-58541908D01*
X203166511Y-58215811D01*
X202889189Y-57938489D01*
X202563092Y-57720598D01*
X202200753Y-57570513D01*
X201816096Y-57494000D01*
X201423904Y-57494000D01*
X201039247Y-57570513D01*
X200676908Y-57720598D01*
X200350811Y-57938489D01*
X200073489Y-58215811D01*
X199855598Y-58541908D01*
X199705513Y-58904247D01*
X199629000Y-59288904D01*
X168061000Y-59288904D01*
X167984487Y-58904247D01*
X167834402Y-58541908D01*
X167616511Y-58215811D01*
X167339189Y-57938489D01*
X167013092Y-57720598D01*
X166650753Y-57570513D01*
X166266096Y-57494000D01*
X165873904Y-57494000D01*
X165489247Y-57570513D01*
X165126908Y-57720598D01*
X164800811Y-57938489D01*
X164523489Y-58215811D01*
X164305598Y-58541908D01*
X164155513Y-58904247D01*
X164079000Y-59288904D01*
X159051000Y-59288904D01*
X159051000Y-48807151D01*
X173844000Y-48807151D01*
X173844000Y-49492849D01*
X173977773Y-50165370D01*
X174240178Y-50798872D01*
X174621131Y-51369008D01*
X175105992Y-51853869D01*
X175676128Y-52234822D01*
X176309630Y-52497227D01*
X176982151Y-52631000D01*
X177667849Y-52631000D01*
X178340370Y-52497227D01*
X178973872Y-52234822D01*
X179544008Y-51853869D01*
X180028869Y-51369008D01*
X180409822Y-50798872D01*
X180672227Y-50165370D01*
X180806000Y-49492849D01*
X180806000Y-48807151D01*
X186844000Y-48807151D01*
X186844000Y-49492849D01*
X186977773Y-50165370D01*
X187240178Y-50798872D01*
X187621131Y-51369008D01*
X188105992Y-51853869D01*
X188676128Y-52234822D01*
X189309630Y-52497227D01*
X189982151Y-52631000D01*
X190667849Y-52631000D01*
X191340370Y-52497227D01*
X191973872Y-52234822D01*
X192544008Y-51853869D01*
X193028869Y-51369008D01*
X193409822Y-50798872D01*
X193672227Y-50165370D01*
X193806000Y-49492849D01*
X193806000Y-48807151D01*
X193672227Y-48134630D01*
X193409822Y-47501128D01*
X193028869Y-46930992D01*
X192544008Y-46446131D01*
X191973872Y-46065178D01*
X191340370Y-45802773D01*
X190667849Y-45669000D01*
X189982151Y-45669000D01*
X189309630Y-45802773D01*
X188676128Y-46065178D01*
X188105992Y-46446131D01*
X187621131Y-46930992D01*
X187240178Y-47501128D01*
X186977773Y-48134630D01*
X186844000Y-48807151D01*
X180806000Y-48807151D01*
X180672227Y-48134630D01*
X180409822Y-47501128D01*
X180028869Y-46930992D01*
X179544008Y-46446131D01*
X178973872Y-46065178D01*
X178340370Y-45802773D01*
X177667849Y-45669000D01*
X176982151Y-45669000D01*
X176309630Y-45802773D01*
X175676128Y-46065178D01*
X175105992Y-46446131D01*
X174621131Y-46930992D01*
X174240178Y-47501128D01*
X173977773Y-48134630D01*
X173844000Y-48807151D01*
X159051000Y-48807151D01*
X159051000Y-37992151D01*
X160339000Y-37992151D01*
X160339000Y-38677849D01*
X160472773Y-39350370D01*
X160735178Y-39983872D01*
X161116131Y-40554008D01*
X161600992Y-41038869D01*
X162171128Y-41419822D01*
X162804630Y-41682227D01*
X163477151Y-41816000D01*
X164162849Y-41816000D01*
X164835370Y-41682227D01*
X165468872Y-41419822D01*
X166039008Y-41038869D01*
X166523869Y-40554008D01*
X166904822Y-39983872D01*
X167167227Y-39350370D01*
X167301000Y-38677849D01*
X167301000Y-37992151D01*
X170339000Y-37992151D01*
X170339000Y-38677849D01*
X170472773Y-39350370D01*
X170735178Y-39983872D01*
X171116131Y-40554008D01*
X171600992Y-41038869D01*
X172171128Y-41419822D01*
X172804630Y-41682227D01*
X173477151Y-41816000D01*
X174162849Y-41816000D01*
X174835370Y-41682227D01*
X175468872Y-41419822D01*
X176039008Y-41038869D01*
X176523869Y-40554008D01*
X176904822Y-39983872D01*
X177167227Y-39350370D01*
X177301000Y-38677849D01*
X177301000Y-37992151D01*
X180339000Y-37992151D01*
X180339000Y-38677849D01*
X180472773Y-39350370D01*
X180735178Y-39983872D01*
X181116131Y-40554008D01*
X181600992Y-41038869D01*
X182171128Y-41419822D01*
X182804630Y-41682227D01*
X183477151Y-41816000D01*
X184162849Y-41816000D01*
X184835370Y-41682227D01*
X185468872Y-41419822D01*
X186039008Y-41038869D01*
X186523869Y-40554008D01*
X186904822Y-39983872D01*
X187167227Y-39350370D01*
X187301000Y-38677849D01*
X187301000Y-37992151D01*
X190339000Y-37992151D01*
X190339000Y-38677849D01*
X190472773Y-39350370D01*
X190735178Y-39983872D01*
X191116131Y-40554008D01*
X191600992Y-41038869D01*
X192171128Y-41419822D01*
X192804630Y-41682227D01*
X193477151Y-41816000D01*
X194162849Y-41816000D01*
X194835370Y-41682227D01*
X195468872Y-41419822D01*
X196039008Y-41038869D01*
X196523869Y-40554008D01*
X196904822Y-39983872D01*
X197167227Y-39350370D01*
X197301000Y-38677849D01*
X197301000Y-37992151D01*
X200339000Y-37992151D01*
X200339000Y-38677849D01*
X200472773Y-39350370D01*
X200735178Y-39983872D01*
X201116131Y-40554008D01*
X201600992Y-41038869D01*
X202171128Y-41419822D01*
X202804630Y-41682227D01*
X203477151Y-41816000D01*
X204162849Y-41816000D01*
X204835370Y-41682227D01*
X205468872Y-41419822D01*
X206039008Y-41038869D01*
X206523869Y-40554008D01*
X206904822Y-39983872D01*
X207167227Y-39350370D01*
X207301000Y-38677849D01*
X207301000Y-37992151D01*
X207167227Y-37319630D01*
X206904822Y-36686128D01*
X206523869Y-36115992D01*
X206039008Y-35631131D01*
X205468872Y-35250178D01*
X204835370Y-34987773D01*
X204162849Y-34854000D01*
X203477151Y-34854000D01*
X202804630Y-34987773D01*
X202171128Y-35250178D01*
X201600992Y-35631131D01*
X201116131Y-36115992D01*
X200735178Y-36686128D01*
X200472773Y-37319630D01*
X200339000Y-37992151D01*
X197301000Y-37992151D01*
X197167227Y-37319630D01*
X196904822Y-36686128D01*
X196523869Y-36115992D01*
X196039008Y-35631131D01*
X195468872Y-35250178D01*
X194835370Y-34987773D01*
X194162849Y-34854000D01*
X193477151Y-34854000D01*
X192804630Y-34987773D01*
X192171128Y-35250178D01*
X191600992Y-35631131D01*
X191116131Y-36115992D01*
X190735178Y-36686128D01*
X190472773Y-37319630D01*
X190339000Y-37992151D01*
X187301000Y-37992151D01*
X187167227Y-37319630D01*
X186904822Y-36686128D01*
X186523869Y-36115992D01*
X186039008Y-35631131D01*
X185468872Y-35250178D01*
X184835370Y-34987773D01*
X184162849Y-34854000D01*
X183477151Y-34854000D01*
X182804630Y-34987773D01*
X182171128Y-35250178D01*
X181600992Y-35631131D01*
X181116131Y-36115992D01*
X180735178Y-36686128D01*
X180472773Y-37319630D01*
X180339000Y-37992151D01*
X177301000Y-37992151D01*
X177167227Y-37319630D01*
X176904822Y-36686128D01*
X176523869Y-36115992D01*
X176039008Y-35631131D01*
X175468872Y-35250178D01*
X174835370Y-34987773D01*
X174162849Y-34854000D01*
X173477151Y-34854000D01*
X172804630Y-34987773D01*
X172171128Y-35250178D01*
X171600992Y-35631131D01*
X171116131Y-36115992D01*
X170735178Y-36686128D01*
X170472773Y-37319630D01*
X170339000Y-37992151D01*
X167301000Y-37992151D01*
X167167227Y-37319630D01*
X166904822Y-36686128D01*
X166523869Y-36115992D01*
X166039008Y-35631131D01*
X165468872Y-35250178D01*
X164835370Y-34987773D01*
X164162849Y-34854000D01*
X163477151Y-34854000D01*
X162804630Y-34987773D01*
X162171128Y-35250178D01*
X161600992Y-35631131D01*
X161116131Y-36115992D01*
X160735178Y-36686128D01*
X160472773Y-37319630D01*
X160339000Y-37992151D01*
X159051000Y-37992151D01*
X159051000Y-25638904D01*
X164079000Y-25638904D01*
X164079000Y-26031096D01*
X164155513Y-26415753D01*
X164305598Y-26778092D01*
X164523489Y-27104189D01*
X164800811Y-27381511D01*
X165126908Y-27599402D01*
X165489247Y-27749487D01*
X165873904Y-27826000D01*
X166266096Y-27826000D01*
X166650753Y-27749487D01*
X167013092Y-27599402D01*
X167339189Y-27381511D01*
X167616511Y-27104189D01*
X167834402Y-26778092D01*
X167984487Y-26415753D01*
X168061000Y-26031096D01*
X168061000Y-25638904D01*
X199629000Y-25638904D01*
X199629000Y-26031096D01*
X199705513Y-26415753D01*
X199855598Y-26778092D01*
X200073489Y-27104189D01*
X200350811Y-27381511D01*
X200676908Y-27599402D01*
X201039247Y-27749487D01*
X201423904Y-27826000D01*
X201816096Y-27826000D01*
X202200753Y-27749487D01*
X202563092Y-27599402D01*
X202889189Y-27381511D01*
X203166511Y-27104189D01*
X203384402Y-26778092D01*
X203534487Y-26415753D01*
X203611000Y-26031096D01*
X203611000Y-25638904D01*
X203534487Y-25254247D01*
X203384402Y-24891908D01*
X203166511Y-24565811D01*
X202889189Y-24288489D01*
X202563092Y-24070598D01*
X202200753Y-23920513D01*
X201816096Y-23844000D01*
X201423904Y-23844000D01*
X201039247Y-23920513D01*
X200676908Y-24070598D01*
X200350811Y-24288489D01*
X200073489Y-24565811D01*
X199855598Y-24891908D01*
X199705513Y-25254247D01*
X199629000Y-25638904D01*
X168061000Y-25638904D01*
X167984487Y-25254247D01*
X167834402Y-24891908D01*
X167616511Y-24565811D01*
X167339189Y-24288489D01*
X167013092Y-24070598D01*
X166650753Y-23920513D01*
X166266096Y-23844000D01*
X165873904Y-23844000D01*
X165489247Y-23920513D01*
X165126908Y-24070598D01*
X164800811Y-24288489D01*
X164523489Y-24565811D01*
X164305598Y-24891908D01*
X164155513Y-25254247D01*
X164079000Y-25638904D01*
X159051000Y-25638904D01*
X159051000Y-23316000D01*
X208589000Y-23316000D01*
X208589001Y-62004000D01*
G37*
G04 #@! TD.AperFunction*
M02*
