G04 #@! TF.GenerationSoftware,KiCad,Pcbnew,(5.1.8)-1*
G04 #@! TF.CreationDate,2021-07-28T22:21:21-04:00*
G04 #@! TF.ProjectId,nearless_front_panel,6e656172-6c65-4737-935f-66726f6e745f,rev?*
G04 #@! TF.SameCoordinates,Original*
G04 #@! TF.FileFunction,Legend,Bot*
G04 #@! TF.FilePolarity,Positive*
%FSLAX46Y46*%
G04 Gerber Fmt 4.6, Leading zero omitted, Abs format (unit mm)*
G04 Created by KiCad (PCBNEW (5.1.8)-1) date 2021-07-28 22:21:21*
%MOMM*%
%LPD*%
G01*
G04 APERTURE LIST*
%ADD10C,0.100000*%
%ADD11C,3.220000*%
%ADD12C,6.200000*%
G04 APERTURE END LIST*
D10*
X187753809Y-43430476D02*
X187753809Y-44023333D01*
X187793333Y-44141904D01*
X187872380Y-44220952D01*
X187990952Y-44260476D01*
X188070000Y-44260476D01*
X186963333Y-44260476D02*
X187358571Y-44260476D01*
X187358571Y-43430476D01*
X186212380Y-44181428D02*
X186251904Y-44220952D01*
X186370476Y-44260476D01*
X186449523Y-44260476D01*
X186568095Y-44220952D01*
X186647142Y-44141904D01*
X186686666Y-44062857D01*
X186726190Y-43904761D01*
X186726190Y-43786190D01*
X186686666Y-43628095D01*
X186647142Y-43549047D01*
X186568095Y-43470000D01*
X186449523Y-43430476D01*
X186370476Y-43430476D01*
X186251904Y-43470000D01*
X186212380Y-43509523D01*
X185619523Y-43430476D02*
X185619523Y-44023333D01*
X185659047Y-44141904D01*
X185738095Y-44220952D01*
X185856666Y-44260476D01*
X185935714Y-44260476D01*
X184829047Y-44260476D02*
X185224285Y-44260476D01*
X185224285Y-43430476D01*
X184078095Y-44181428D02*
X184117619Y-44220952D01*
X184236190Y-44260476D01*
X184315238Y-44260476D01*
X184433809Y-44220952D01*
X184512857Y-44141904D01*
X184552380Y-44062857D01*
X184591904Y-43904761D01*
X184591904Y-43786190D01*
X184552380Y-43628095D01*
X184512857Y-43549047D01*
X184433809Y-43470000D01*
X184315238Y-43430476D01*
X184236190Y-43430476D01*
X184117619Y-43470000D01*
X184078095Y-43509523D01*
X183485238Y-43430476D02*
X183485238Y-44023333D01*
X183524761Y-44141904D01*
X183603809Y-44220952D01*
X183722380Y-44260476D01*
X183801428Y-44260476D01*
X182694761Y-44260476D02*
X183090000Y-44260476D01*
X183090000Y-43430476D01*
X181943809Y-44181428D02*
X181983333Y-44220952D01*
X182101904Y-44260476D01*
X182180952Y-44260476D01*
X182299523Y-44220952D01*
X182378571Y-44141904D01*
X182418095Y-44062857D01*
X182457619Y-43904761D01*
X182457619Y-43786190D01*
X182418095Y-43628095D01*
X182378571Y-43549047D01*
X182299523Y-43470000D01*
X182180952Y-43430476D01*
X182101904Y-43430476D01*
X181983333Y-43470000D01*
X181943809Y-43509523D01*
X181350952Y-43430476D02*
X181350952Y-44023333D01*
X181390476Y-44141904D01*
X181469523Y-44220952D01*
X181588095Y-44260476D01*
X181667142Y-44260476D01*
X180560476Y-44260476D02*
X180955714Y-44260476D01*
X180955714Y-43430476D01*
X179809523Y-44181428D02*
X179849047Y-44220952D01*
X179967619Y-44260476D01*
X180046666Y-44260476D01*
X180165238Y-44220952D01*
X180244285Y-44141904D01*
X180283809Y-44062857D01*
X180323333Y-43904761D01*
X180323333Y-43786190D01*
X180283809Y-43628095D01*
X180244285Y-43549047D01*
X180165238Y-43470000D01*
X180046666Y-43430476D01*
X179967619Y-43430476D01*
X179849047Y-43470000D01*
X179809523Y-43509523D01*
%LPC*%
D11*
X166070000Y-25835000D03*
X201620000Y-25835000D03*
X201620000Y-59485000D03*
X166070000Y-59485000D03*
D12*
X190325000Y-49150000D03*
X177325000Y-49150000D03*
X163820000Y-38335000D03*
X203820000Y-38335000D03*
X193820000Y-38335000D03*
X183820000Y-38335000D03*
X173820000Y-38335000D03*
M02*
