%FSLAX45Y45*%
G04 Gerber Fmt 4.5, Leading zero omitted, Abs format (unit mm)*
G04 Created by KiCad (PCBNEW (5.1.8)-1) date 2021-07-28 22:21:32*
%MOMM*%
%LPD*%
G01*
G04 APERTURE LIST*
%TA.AperFunction,Profile*%
%ADD10C,0.200000*%
%TD*%
%ADD11C,0.200000*%
%ADD12C,0.300000*%
G04 APERTURE END LIST*
D10*
X20907000Y-2283500D02*
X20907000Y-6248500D01*
X15857000Y-2283500D02*
X20907000Y-2283500D01*
X15857000Y-2283500D02*
X15857000Y-6248500D01*
X15857000Y-6248500D02*
X20907000Y-6248500D01*
D11*
X16446500Y-5788000D02*
X16767500Y-6109000D01*
X16767500Y-5788000D02*
X16446500Y-6109000D01*
X16446500Y-2423000D02*
X16767500Y-2744000D01*
X16767500Y-2423000D02*
X16446500Y-2744000D01*
X20001500Y-5788000D02*
X20322500Y-6109000D01*
X20322500Y-5788000D02*
X20001500Y-6109000D01*
X20001500Y-2423000D02*
X20322500Y-2744000D01*
X20322500Y-2423000D02*
X20001500Y-2744000D01*
X16687000Y-3833500D02*
G75*
G03*
X16687000Y-3833500I-305000J0D01*
G01*
X18687000Y-3833500D02*
G75*
G03*
X18687000Y-3833500I-305000J0D01*
G01*
X18037500Y-4915000D02*
G75*
G03*
X18037500Y-4915000I-305000J0D01*
G01*
X19337500Y-4915000D02*
G75*
G03*
X19337500Y-4915000I-305000J0D01*
G01*
X19687000Y-3833500D02*
G75*
G03*
X19687000Y-3833500I-305000J0D01*
G01*
X20687000Y-3833500D02*
G75*
G03*
X20687000Y-3833500I-305000J0D01*
G01*
X17687000Y-3833500D02*
G75*
G03*
X17687000Y-3833500I-305000J0D01*
G01*
D12*
X16133428Y-6724214D02*
X16133428Y-6424214D01*
X16204857Y-6424214D01*
X16247714Y-6438500D01*
X16276286Y-6467071D01*
X16290571Y-6495643D01*
X16304857Y-6552786D01*
X16304857Y-6595643D01*
X16290571Y-6652786D01*
X16276286Y-6681357D01*
X16247714Y-6709929D01*
X16204857Y-6724214D01*
X16133428Y-6724214D01*
X16433428Y-6724214D02*
X16433428Y-6524214D01*
X16433428Y-6581357D02*
X16447714Y-6552786D01*
X16462000Y-6538500D01*
X16490571Y-6524214D01*
X16519143Y-6524214D01*
X16619143Y-6724214D02*
X16619143Y-6524214D01*
X16619143Y-6424214D02*
X16604857Y-6438500D01*
X16619143Y-6452786D01*
X16633428Y-6438500D01*
X16619143Y-6424214D01*
X16619143Y-6452786D01*
X16804857Y-6724214D02*
X16776286Y-6709929D01*
X16762000Y-6681357D01*
X16762000Y-6424214D01*
X16962000Y-6724214D02*
X16933428Y-6709929D01*
X16919143Y-6681357D01*
X16919143Y-6424214D01*
X17304857Y-6724214D02*
X17304857Y-6424214D01*
X17404857Y-6638500D01*
X17504857Y-6424214D01*
X17504857Y-6724214D01*
X17776286Y-6724214D02*
X17776286Y-6567071D01*
X17762000Y-6538500D01*
X17733428Y-6524214D01*
X17676286Y-6524214D01*
X17647714Y-6538500D01*
X17776286Y-6709929D02*
X17747714Y-6724214D01*
X17676286Y-6724214D01*
X17647714Y-6709929D01*
X17633428Y-6681357D01*
X17633428Y-6652786D01*
X17647714Y-6624214D01*
X17676286Y-6609929D01*
X17747714Y-6609929D01*
X17776286Y-6595643D01*
X17919143Y-6524214D02*
X17919143Y-6824214D01*
X17919143Y-6538500D02*
X17947714Y-6524214D01*
X18004857Y-6524214D01*
X18033428Y-6538500D01*
X18047714Y-6552786D01*
X18062000Y-6581357D01*
X18062000Y-6667071D01*
X18047714Y-6695643D01*
X18033428Y-6709929D01*
X18004857Y-6724214D01*
X17947714Y-6724214D01*
X17919143Y-6709929D01*
X18190571Y-6695643D02*
X18204857Y-6709929D01*
X18190571Y-6724214D01*
X18176286Y-6709929D01*
X18190571Y-6695643D01*
X18190571Y-6724214D01*
X18190571Y-6538500D02*
X18204857Y-6552786D01*
X18190571Y-6567071D01*
X18176286Y-6552786D01*
X18190571Y-6538500D01*
X18190571Y-6567071D01*
X15526000Y-7058000D02*
X15847000Y-7379000D01*
X15847000Y-7058000D02*
X15526000Y-7379000D01*
X16104857Y-7054214D02*
X16290571Y-7054214D01*
X16190571Y-7168500D01*
X16233428Y-7168500D01*
X16262000Y-7182786D01*
X16276286Y-7197071D01*
X16290571Y-7225643D01*
X16290571Y-7297071D01*
X16276286Y-7325643D01*
X16262000Y-7339929D01*
X16233428Y-7354214D01*
X16147714Y-7354214D01*
X16119143Y-7339929D01*
X16104857Y-7325643D01*
X16419143Y-7325643D02*
X16433428Y-7339929D01*
X16419143Y-7354214D01*
X16404857Y-7339929D01*
X16419143Y-7325643D01*
X16419143Y-7354214D01*
X16547714Y-7082786D02*
X16562000Y-7068500D01*
X16590571Y-7054214D01*
X16662000Y-7054214D01*
X16690571Y-7068500D01*
X16704857Y-7082786D01*
X16719143Y-7111357D01*
X16719143Y-7139929D01*
X16704857Y-7182786D01*
X16533428Y-7354214D01*
X16719143Y-7354214D01*
X17004857Y-7354214D02*
X16833428Y-7354214D01*
X16919143Y-7354214D02*
X16919143Y-7054214D01*
X16890571Y-7097071D01*
X16862000Y-7125643D01*
X16833428Y-7139929D01*
X17133428Y-7354214D02*
X17133428Y-7154214D01*
X17133428Y-7182786D02*
X17147714Y-7168500D01*
X17176286Y-7154214D01*
X17219143Y-7154214D01*
X17247714Y-7168500D01*
X17262000Y-7197071D01*
X17262000Y-7354214D01*
X17262000Y-7197071D02*
X17276286Y-7168500D01*
X17304857Y-7154214D01*
X17347714Y-7154214D01*
X17376286Y-7168500D01*
X17390571Y-7197071D01*
X17390571Y-7354214D01*
X17533428Y-7354214D02*
X17533428Y-7154214D01*
X17533428Y-7182786D02*
X17547714Y-7168500D01*
X17576286Y-7154214D01*
X17619143Y-7154214D01*
X17647714Y-7168500D01*
X17662000Y-7197071D01*
X17662000Y-7354214D01*
X17662000Y-7197071D02*
X17676286Y-7168500D01*
X17704857Y-7154214D01*
X17747714Y-7154214D01*
X17776286Y-7168500D01*
X17790571Y-7197071D01*
X17790571Y-7354214D01*
X18376286Y-7039929D02*
X18119143Y-7425643D01*
X18762000Y-7054214D02*
X18790571Y-7054214D01*
X18819143Y-7068500D01*
X18833428Y-7082786D01*
X18847714Y-7111357D01*
X18862000Y-7168500D01*
X18862000Y-7239929D01*
X18847714Y-7297071D01*
X18833428Y-7325643D01*
X18819143Y-7339929D01*
X18790571Y-7354214D01*
X18762000Y-7354214D01*
X18733428Y-7339929D01*
X18719143Y-7325643D01*
X18704857Y-7297071D01*
X18690571Y-7239929D01*
X18690571Y-7168500D01*
X18704857Y-7111357D01*
X18719143Y-7082786D01*
X18733428Y-7068500D01*
X18762000Y-7054214D01*
X18990571Y-7325643D02*
X19004857Y-7339929D01*
X18990571Y-7354214D01*
X18976286Y-7339929D01*
X18990571Y-7325643D01*
X18990571Y-7354214D01*
X19290571Y-7354214D02*
X19119143Y-7354214D01*
X19204857Y-7354214D02*
X19204857Y-7054214D01*
X19176286Y-7097071D01*
X19147714Y-7125643D01*
X19119143Y-7139929D01*
X19404857Y-7082786D02*
X19419143Y-7068500D01*
X19447714Y-7054214D01*
X19519143Y-7054214D01*
X19547714Y-7068500D01*
X19562000Y-7082786D01*
X19576286Y-7111357D01*
X19576286Y-7139929D01*
X19562000Y-7182786D01*
X19390571Y-7354214D01*
X19576286Y-7354214D01*
X19833428Y-7054214D02*
X19776286Y-7054214D01*
X19747714Y-7068500D01*
X19733428Y-7082786D01*
X19704857Y-7125643D01*
X19690571Y-7182786D01*
X19690571Y-7297071D01*
X19704857Y-7325643D01*
X19719143Y-7339929D01*
X19747714Y-7354214D01*
X19804857Y-7354214D01*
X19833428Y-7339929D01*
X19847714Y-7325643D01*
X19862000Y-7297071D01*
X19862000Y-7225643D01*
X19847714Y-7197071D01*
X19833428Y-7182786D01*
X19804857Y-7168500D01*
X19747714Y-7168500D01*
X19719143Y-7182786D01*
X19704857Y-7197071D01*
X19690571Y-7225643D01*
X19976286Y-7054214D02*
X19976286Y-7111357D01*
X20090571Y-7054214D02*
X20090571Y-7111357D01*
X20533428Y-7468500D02*
X20519143Y-7454214D01*
X20490571Y-7411357D01*
X20476286Y-7382786D01*
X20462000Y-7339929D01*
X20447714Y-7268500D01*
X20447714Y-7211357D01*
X20462000Y-7139929D01*
X20476286Y-7097071D01*
X20490571Y-7068500D01*
X20519143Y-7025643D01*
X20533428Y-7011357D01*
X20776286Y-7154214D02*
X20776286Y-7354214D01*
X20704857Y-7039929D02*
X20633428Y-7254214D01*
X20819143Y-7254214D01*
X21162000Y-7354214D02*
X21162000Y-7054214D01*
X21290571Y-7354214D02*
X21290571Y-7197071D01*
X21276286Y-7168500D01*
X21247714Y-7154214D01*
X21204857Y-7154214D01*
X21176286Y-7168500D01*
X21162000Y-7182786D01*
X21476286Y-7354214D02*
X21447714Y-7339929D01*
X21433428Y-7325643D01*
X21419143Y-7297071D01*
X21419143Y-7211357D01*
X21433428Y-7182786D01*
X21447714Y-7168500D01*
X21476286Y-7154214D01*
X21519143Y-7154214D01*
X21547714Y-7168500D01*
X21562000Y-7182786D01*
X21576286Y-7211357D01*
X21576286Y-7297071D01*
X21562000Y-7325643D01*
X21547714Y-7339929D01*
X21519143Y-7354214D01*
X21476286Y-7354214D01*
X21747714Y-7354214D02*
X21719143Y-7339929D01*
X21704857Y-7311357D01*
X21704857Y-7054214D01*
X21976286Y-7339929D02*
X21947714Y-7354214D01*
X21890571Y-7354214D01*
X21862000Y-7339929D01*
X21847714Y-7311357D01*
X21847714Y-7197071D01*
X21862000Y-7168500D01*
X21890571Y-7154214D01*
X21947714Y-7154214D01*
X21976286Y-7168500D01*
X21990571Y-7197071D01*
X21990571Y-7225643D01*
X21847714Y-7254214D01*
X22104857Y-7339929D02*
X22133428Y-7354214D01*
X22190571Y-7354214D01*
X22219143Y-7339929D01*
X22233428Y-7311357D01*
X22233428Y-7297071D01*
X22219143Y-7268500D01*
X22190571Y-7254214D01*
X22147714Y-7254214D01*
X22119143Y-7239929D01*
X22104857Y-7211357D01*
X22104857Y-7197071D01*
X22119143Y-7168500D01*
X22147714Y-7154214D01*
X22190571Y-7154214D01*
X22219143Y-7168500D01*
X22333428Y-7468500D02*
X22347714Y-7454214D01*
X22376286Y-7411357D01*
X22390571Y-7382786D01*
X22404857Y-7339929D01*
X22419143Y-7268500D01*
X22419143Y-7211357D01*
X22404857Y-7139929D01*
X22390571Y-7097071D01*
X22376286Y-7068500D01*
X22347714Y-7025643D01*
X22333428Y-7011357D01*
X22876286Y-7468500D02*
X22862000Y-7454214D01*
X22833428Y-7411357D01*
X22819143Y-7382786D01*
X22804857Y-7339929D01*
X22790571Y-7268500D01*
X22790571Y-7211357D01*
X22804857Y-7139929D01*
X22819143Y-7097071D01*
X22833428Y-7068500D01*
X22862000Y-7025643D01*
X22876286Y-7011357D01*
X22990571Y-7154214D02*
X22990571Y-7354214D01*
X22990571Y-7182786D02*
X23004857Y-7168500D01*
X23033428Y-7154214D01*
X23076286Y-7154214D01*
X23104857Y-7168500D01*
X23119143Y-7197071D01*
X23119143Y-7354214D01*
X23304857Y-7354214D02*
X23276286Y-7339929D01*
X23262000Y-7325643D01*
X23247714Y-7297071D01*
X23247714Y-7211357D01*
X23262000Y-7182786D01*
X23276286Y-7168500D01*
X23304857Y-7154214D01*
X23347714Y-7154214D01*
X23376286Y-7168500D01*
X23390571Y-7182786D01*
X23404857Y-7211357D01*
X23404857Y-7297071D01*
X23390571Y-7325643D01*
X23376286Y-7339929D01*
X23347714Y-7354214D01*
X23304857Y-7354214D01*
X23490571Y-7154214D02*
X23604857Y-7154214D01*
X23533428Y-7054214D02*
X23533428Y-7311357D01*
X23547714Y-7339929D01*
X23576286Y-7354214D01*
X23604857Y-7354214D01*
X23933428Y-7154214D02*
X23933428Y-7454214D01*
X23933428Y-7168500D02*
X23962000Y-7154214D01*
X24019143Y-7154214D01*
X24047714Y-7168500D01*
X24062000Y-7182786D01*
X24076286Y-7211357D01*
X24076286Y-7297071D01*
X24062000Y-7325643D01*
X24047714Y-7339929D01*
X24019143Y-7354214D01*
X23962000Y-7354214D01*
X23933428Y-7339929D01*
X24247714Y-7354214D02*
X24219143Y-7339929D01*
X24204857Y-7311357D01*
X24204857Y-7054214D01*
X24490571Y-7354214D02*
X24490571Y-7197071D01*
X24476286Y-7168500D01*
X24447714Y-7154214D01*
X24390571Y-7154214D01*
X24362000Y-7168500D01*
X24490571Y-7339929D02*
X24462000Y-7354214D01*
X24390571Y-7354214D01*
X24362000Y-7339929D01*
X24347714Y-7311357D01*
X24347714Y-7282786D01*
X24362000Y-7254214D01*
X24390571Y-7239929D01*
X24462000Y-7239929D01*
X24490571Y-7225643D01*
X24590571Y-7154214D02*
X24704857Y-7154214D01*
X24633428Y-7054214D02*
X24633428Y-7311357D01*
X24647714Y-7339929D01*
X24676286Y-7354214D01*
X24704857Y-7354214D01*
X24919143Y-7339929D02*
X24890571Y-7354214D01*
X24833428Y-7354214D01*
X24804857Y-7339929D01*
X24790571Y-7311357D01*
X24790571Y-7197071D01*
X24804857Y-7168500D01*
X24833428Y-7154214D01*
X24890571Y-7154214D01*
X24919143Y-7168500D01*
X24933428Y-7197071D01*
X24933428Y-7225643D01*
X24790571Y-7254214D01*
X25190571Y-7354214D02*
X25190571Y-7054214D01*
X25190571Y-7339929D02*
X25162000Y-7354214D01*
X25104857Y-7354214D01*
X25076286Y-7339929D01*
X25062000Y-7325643D01*
X25047714Y-7297071D01*
X25047714Y-7211357D01*
X25062000Y-7182786D01*
X25076286Y-7168500D01*
X25104857Y-7154214D01*
X25162000Y-7154214D01*
X25190571Y-7168500D01*
X25304857Y-7468500D02*
X25319143Y-7454214D01*
X25347714Y-7411357D01*
X25362000Y-7382786D01*
X25376286Y-7339929D01*
X25390571Y-7268500D01*
X25390571Y-7211357D01*
X25376286Y-7139929D01*
X25362000Y-7097071D01*
X25347714Y-7068500D01*
X25319143Y-7025643D01*
X25304857Y-7011357D01*
X15847000Y-7669500D02*
G75*
G03*
X15847000Y-7669500I-305000J0D01*
G01*
X16262000Y-7505214D02*
X16204857Y-7505214D01*
X16176286Y-7519500D01*
X16162000Y-7533786D01*
X16133428Y-7576643D01*
X16119143Y-7633786D01*
X16119143Y-7748071D01*
X16133428Y-7776643D01*
X16147714Y-7790929D01*
X16176286Y-7805214D01*
X16233428Y-7805214D01*
X16262000Y-7790929D01*
X16276286Y-7776643D01*
X16290571Y-7748071D01*
X16290571Y-7676643D01*
X16276286Y-7648071D01*
X16262000Y-7633786D01*
X16233428Y-7619500D01*
X16176286Y-7619500D01*
X16147714Y-7633786D01*
X16133428Y-7648071D01*
X16119143Y-7676643D01*
X16419143Y-7776643D02*
X16433428Y-7790929D01*
X16419143Y-7805214D01*
X16404857Y-7790929D01*
X16419143Y-7776643D01*
X16419143Y-7805214D01*
X16719143Y-7805214D02*
X16547714Y-7805214D01*
X16633428Y-7805214D02*
X16633428Y-7505214D01*
X16604857Y-7548071D01*
X16576286Y-7576643D01*
X16547714Y-7590929D01*
X16904857Y-7505214D02*
X16933428Y-7505214D01*
X16962000Y-7519500D01*
X16976286Y-7533786D01*
X16990571Y-7562357D01*
X17004857Y-7619500D01*
X17004857Y-7690929D01*
X16990571Y-7748071D01*
X16976286Y-7776643D01*
X16962000Y-7790929D01*
X16933428Y-7805214D01*
X16904857Y-7805214D01*
X16876286Y-7790929D01*
X16862000Y-7776643D01*
X16847714Y-7748071D01*
X16833428Y-7690929D01*
X16833428Y-7619500D01*
X16847714Y-7562357D01*
X16862000Y-7533786D01*
X16876286Y-7519500D01*
X16904857Y-7505214D01*
X17133428Y-7805214D02*
X17133428Y-7605214D01*
X17133428Y-7633786D02*
X17147714Y-7619500D01*
X17176286Y-7605214D01*
X17219143Y-7605214D01*
X17247714Y-7619500D01*
X17262000Y-7648071D01*
X17262000Y-7805214D01*
X17262000Y-7648071D02*
X17276286Y-7619500D01*
X17304857Y-7605214D01*
X17347714Y-7605214D01*
X17376286Y-7619500D01*
X17390571Y-7648071D01*
X17390571Y-7805214D01*
X17533428Y-7805214D02*
X17533428Y-7605214D01*
X17533428Y-7633786D02*
X17547714Y-7619500D01*
X17576286Y-7605214D01*
X17619143Y-7605214D01*
X17647714Y-7619500D01*
X17662000Y-7648071D01*
X17662000Y-7805214D01*
X17662000Y-7648071D02*
X17676286Y-7619500D01*
X17704857Y-7605214D01*
X17747714Y-7605214D01*
X17776286Y-7619500D01*
X17790571Y-7648071D01*
X17790571Y-7805214D01*
X18376286Y-7490929D02*
X18119143Y-7876643D01*
X18762000Y-7505214D02*
X18790571Y-7505214D01*
X18819143Y-7519500D01*
X18833428Y-7533786D01*
X18847714Y-7562357D01*
X18862000Y-7619500D01*
X18862000Y-7690929D01*
X18847714Y-7748071D01*
X18833428Y-7776643D01*
X18819143Y-7790929D01*
X18790571Y-7805214D01*
X18762000Y-7805214D01*
X18733428Y-7790929D01*
X18719143Y-7776643D01*
X18704857Y-7748071D01*
X18690571Y-7690929D01*
X18690571Y-7619500D01*
X18704857Y-7562357D01*
X18719143Y-7533786D01*
X18733428Y-7519500D01*
X18762000Y-7505214D01*
X18990571Y-7776643D02*
X19004857Y-7790929D01*
X18990571Y-7805214D01*
X18976286Y-7790929D01*
X18990571Y-7776643D01*
X18990571Y-7805214D01*
X19119143Y-7533786D02*
X19133428Y-7519500D01*
X19162000Y-7505214D01*
X19233428Y-7505214D01*
X19262000Y-7519500D01*
X19276286Y-7533786D01*
X19290571Y-7562357D01*
X19290571Y-7590929D01*
X19276286Y-7633786D01*
X19104857Y-7805214D01*
X19290571Y-7805214D01*
X19547714Y-7605214D02*
X19547714Y-7805214D01*
X19476286Y-7490929D02*
X19404857Y-7705214D01*
X19590571Y-7705214D01*
X19762000Y-7505214D02*
X19790571Y-7505214D01*
X19819143Y-7519500D01*
X19833428Y-7533786D01*
X19847714Y-7562357D01*
X19862000Y-7619500D01*
X19862000Y-7690929D01*
X19847714Y-7748071D01*
X19833428Y-7776643D01*
X19819143Y-7790929D01*
X19790571Y-7805214D01*
X19762000Y-7805214D01*
X19733428Y-7790929D01*
X19719143Y-7776643D01*
X19704857Y-7748071D01*
X19690571Y-7690929D01*
X19690571Y-7619500D01*
X19704857Y-7562357D01*
X19719143Y-7533786D01*
X19733428Y-7519500D01*
X19762000Y-7505214D01*
X19976286Y-7505214D02*
X19976286Y-7562357D01*
X20090571Y-7505214D02*
X20090571Y-7562357D01*
X20533428Y-7919500D02*
X20519143Y-7905214D01*
X20490571Y-7862357D01*
X20476286Y-7833786D01*
X20462000Y-7790929D01*
X20447714Y-7719500D01*
X20447714Y-7662357D01*
X20462000Y-7590929D01*
X20476286Y-7548071D01*
X20490571Y-7519500D01*
X20519143Y-7476643D01*
X20533428Y-7462357D01*
X20619143Y-7505214D02*
X20819143Y-7505214D01*
X20690571Y-7805214D01*
X21162000Y-7805214D02*
X21162000Y-7505214D01*
X21290571Y-7805214D02*
X21290571Y-7648071D01*
X21276286Y-7619500D01*
X21247714Y-7605214D01*
X21204857Y-7605214D01*
X21176286Y-7619500D01*
X21162000Y-7633786D01*
X21476286Y-7805214D02*
X21447714Y-7790929D01*
X21433428Y-7776643D01*
X21419143Y-7748071D01*
X21419143Y-7662357D01*
X21433428Y-7633786D01*
X21447714Y-7619500D01*
X21476286Y-7605214D01*
X21519143Y-7605214D01*
X21547714Y-7619500D01*
X21562000Y-7633786D01*
X21576286Y-7662357D01*
X21576286Y-7748071D01*
X21562000Y-7776643D01*
X21547714Y-7790929D01*
X21519143Y-7805214D01*
X21476286Y-7805214D01*
X21747714Y-7805214D02*
X21719143Y-7790929D01*
X21704857Y-7762357D01*
X21704857Y-7505214D01*
X21976286Y-7790929D02*
X21947714Y-7805214D01*
X21890571Y-7805214D01*
X21862000Y-7790929D01*
X21847714Y-7762357D01*
X21847714Y-7648071D01*
X21862000Y-7619500D01*
X21890571Y-7605214D01*
X21947714Y-7605214D01*
X21976286Y-7619500D01*
X21990571Y-7648071D01*
X21990571Y-7676643D01*
X21847714Y-7705214D01*
X22104857Y-7790929D02*
X22133428Y-7805214D01*
X22190571Y-7805214D01*
X22219143Y-7790929D01*
X22233428Y-7762357D01*
X22233428Y-7748071D01*
X22219143Y-7719500D01*
X22190571Y-7705214D01*
X22147714Y-7705214D01*
X22119143Y-7690929D01*
X22104857Y-7662357D01*
X22104857Y-7648071D01*
X22119143Y-7619500D01*
X22147714Y-7605214D01*
X22190571Y-7605214D01*
X22219143Y-7619500D01*
X22333428Y-7919500D02*
X22347714Y-7905214D01*
X22376286Y-7862357D01*
X22390571Y-7833786D01*
X22404857Y-7790929D01*
X22419143Y-7719500D01*
X22419143Y-7662357D01*
X22404857Y-7590929D01*
X22390571Y-7548071D01*
X22376286Y-7519500D01*
X22347714Y-7476643D01*
X22333428Y-7462357D01*
X22876286Y-7919500D02*
X22862000Y-7905214D01*
X22833428Y-7862357D01*
X22819143Y-7833786D01*
X22804857Y-7790929D01*
X22790571Y-7719500D01*
X22790571Y-7662357D01*
X22804857Y-7590929D01*
X22819143Y-7548071D01*
X22833428Y-7519500D01*
X22862000Y-7476643D01*
X22876286Y-7462357D01*
X22990571Y-7605214D02*
X22990571Y-7805214D01*
X22990571Y-7633786D02*
X23004857Y-7619500D01*
X23033428Y-7605214D01*
X23076286Y-7605214D01*
X23104857Y-7619500D01*
X23119143Y-7648071D01*
X23119143Y-7805214D01*
X23304857Y-7805214D02*
X23276286Y-7790929D01*
X23262000Y-7776643D01*
X23247714Y-7748071D01*
X23247714Y-7662357D01*
X23262000Y-7633786D01*
X23276286Y-7619500D01*
X23304857Y-7605214D01*
X23347714Y-7605214D01*
X23376286Y-7619500D01*
X23390571Y-7633786D01*
X23404857Y-7662357D01*
X23404857Y-7748071D01*
X23390571Y-7776643D01*
X23376286Y-7790929D01*
X23347714Y-7805214D01*
X23304857Y-7805214D01*
X23490571Y-7605214D02*
X23604857Y-7605214D01*
X23533428Y-7505214D02*
X23533428Y-7762357D01*
X23547714Y-7790929D01*
X23576286Y-7805214D01*
X23604857Y-7805214D01*
X23933428Y-7605214D02*
X23933428Y-7905214D01*
X23933428Y-7619500D02*
X23962000Y-7605214D01*
X24019143Y-7605214D01*
X24047714Y-7619500D01*
X24062000Y-7633786D01*
X24076286Y-7662357D01*
X24076286Y-7748071D01*
X24062000Y-7776643D01*
X24047714Y-7790929D01*
X24019143Y-7805214D01*
X23962000Y-7805214D01*
X23933428Y-7790929D01*
X24247714Y-7805214D02*
X24219143Y-7790929D01*
X24204857Y-7762357D01*
X24204857Y-7505214D01*
X24490571Y-7805214D02*
X24490571Y-7648071D01*
X24476286Y-7619500D01*
X24447714Y-7605214D01*
X24390571Y-7605214D01*
X24362000Y-7619500D01*
X24490571Y-7790929D02*
X24462000Y-7805214D01*
X24390571Y-7805214D01*
X24362000Y-7790929D01*
X24347714Y-7762357D01*
X24347714Y-7733786D01*
X24362000Y-7705214D01*
X24390571Y-7690929D01*
X24462000Y-7690929D01*
X24490571Y-7676643D01*
X24590571Y-7605214D02*
X24704857Y-7605214D01*
X24633428Y-7505214D02*
X24633428Y-7762357D01*
X24647714Y-7790929D01*
X24676286Y-7805214D01*
X24704857Y-7805214D01*
X24919143Y-7790929D02*
X24890571Y-7805214D01*
X24833428Y-7805214D01*
X24804857Y-7790929D01*
X24790571Y-7762357D01*
X24790571Y-7648071D01*
X24804857Y-7619500D01*
X24833428Y-7605214D01*
X24890571Y-7605214D01*
X24919143Y-7619500D01*
X24933428Y-7648071D01*
X24933428Y-7676643D01*
X24790571Y-7705214D01*
X25190571Y-7805214D02*
X25190571Y-7505214D01*
X25190571Y-7790929D02*
X25162000Y-7805214D01*
X25104857Y-7805214D01*
X25076286Y-7790929D01*
X25062000Y-7776643D01*
X25047714Y-7748071D01*
X25047714Y-7662357D01*
X25062000Y-7633786D01*
X25076286Y-7619500D01*
X25104857Y-7605214D01*
X25162000Y-7605214D01*
X25190571Y-7619500D01*
X25304857Y-7919500D02*
X25319143Y-7905214D01*
X25347714Y-7862357D01*
X25362000Y-7833786D01*
X25376286Y-7790929D01*
X25390571Y-7719500D01*
X25390571Y-7662357D01*
X25376286Y-7590929D01*
X25362000Y-7548071D01*
X25347714Y-7519500D01*
X25319143Y-7476643D01*
X25304857Y-7462357D01*
M02*
